{
.appVersion = "1287";
DisplayStrings = (
"abcdefghijklmnopqrstuvwxyz\012ninininoninoninoionnio\012nmnmnmnmnmn\012jijijijijiji\012minimun"
);
customParameters = (
{
name = glyphOrder;
value = (
space,
A,
Aacute,
B,
C,
D,
E,
F,
G,
H,
I,
J,
K,
L,
M,
N,
Ntilde,
O,
P,
Q,
R,
S,
T,
U,
Udieresis,
V,
W,
X,
Y,
Z,
a,
aacute,
b,
c,
d,
e,
f,
g,
h,
i,
j,
k,
l,
m,
n,
ntilde,
o,
p,
q,
r,
s,
t,
u,
udieresis,
v,
w,
x,
y,
z,
zero,
one,
two,
three,
four,
five,
six,
seven,
eight,
nine,
hyphen,
parenleft,
parenright,
ampersand,
period,
comma,
colon,
semicolon,
exclam,
exclamdown,
question,
questiondown,
acute,
tilde,
dieresis,
quote,
.notdef,
notdef
);
},
{
name = openTypeGaspRangeRecords;
value = (
{
rangeGaspBehavior = (
0,
1,
2,
3
);
rangeMaxPPEM = 65535;
}
);
},
{
name = openTypeHeadFlags;
value = (
);
},
{
name = compatibleFullName;
value = "Acrata_Beta_1 Regular";
},
{
name = preferredFamilyName;
value = Acrata_Beta_1;
},
{
name = versionString;
value = "Version 1.000";
},
{
name = openTypeOS2Panose;
value = (
0,
0,
0,
0,
0,
0,
0,
0,
0,
0
);
},
{
name = openTypeOS2Selection;
value = (
);
},
{
name = fsType;
value = (
2
);
},
{
name = blueFuzz;
value = 1;
},
{
name = blueScale;
value = 0.04;
},
{
name = blueShift;
value = 7;
},
{
name = postscriptForceBold;
value = 0;
},
{
name = postscriptIsFixedPitch;
value = 0;
}
);
date = "2020-07-30 10:03:19 +0000";
disablesNiceNames = 1;
familyName = Acrata_Beta_1;
fontMaster = (
{
alignmentZones = (
"{740, 18}",
"{540, 18}",
"{0, -18}",
"{-210, -10}"
);
ascender = 750;
capHeight = 740;
customParameters = (
{
name = typoAscender;
value = 750;
},
{
name = typoDescender;
value = -250;
},
{
name = typoLineGap;
value = 100;
},
{
name = winAscent;
value = 750;
},
{
name = winDescent;
value = 250;
},
{
name = underlineThickness;
value = 50;
},
{
name = underlinePosition;
value = -100;
}
);
descender = -210;
guideLines = (
{
name = LC_Serif_bottom;
position = "{0, 64}";
},
{
name = LC_serif_top;
position = "{-200, 480}";
},
{
position = "{0, 84}";

glyphs = (
{
glyphname = A;
layers = (
{
background = {
paths = (
{
closed = 1;
nodes = (
"565 239 LINE",
"565 319 LINE",
"180 319 LINE",
"180 239 LINE"
);
},
{
closed = 1;
nodes = (
"257 0 LINE",
"257 64 LINE",
"123 92 LINE",
"141 58 LINE",
"359 684 LINE",
"320 656 LINE",
"404 656 LINE",
"368 684 LINE",
"571 52 LINE",
"588 86 LINE",
"482 64 LINE",
"482 0 LINE",
"756 0 LINE",
"756 64 LINE",
"633 98 LINE",
"672 62 LINE",
"449 740 LINE",
"288 740 LINE",
"52 57 LINE",
"91 93 LINE",
"-17 64 LINE",
"-17 0 LINE"
);
},
{
closed = 1;
nodes = (
"295 652 LINE",
"325 740 LINE",
"135 740 LINE",
"135 676 LINE"
);
}
);
};
guideLines = (
{
position = "{0, 676}";
},
{
position = "{0, 656}";
}
);
layerId = master01;
paths = (
{
closed = 1;
nodes = (
"565 239 LINE",
"565 319 LINE",
"180 319 LINE",
"180 239 LINE"
);
},
{
closed = 1;
nodes = (
"257 0 LINE",
"257 64 LINE",
"123 92 LINE",
"141 58 LINE",
"359 684 LINE",
"320 656 LINE",
"404 656 LINE",
"368 684 LINE",
"571 52 LINE",
"588 86 LINE",
"482 64 LINE",
"482 0 LINE",
"756 0 LINE",
"756 64 LINE",
"633 98 LINE",
"672 62 LINE",
"449 740 LINE",
"288 740 LINE",
"52 57 LINE",
"91 93 LINE",
"-17 64 LINE",
"-17 0 LINE"
);
},
{
closed = 1;
nodes = (
"295 652 LINE",
"325 740 LINE",
"135 740 LINE",
"135 676 LINE"
);
}
);
width = 735;
},
{
associatedMasterId = master01;
guideLines = (
{
position = "{0, 676}";
},
{
position = "{0, 656}";
}
);
layerId = "6C669DC1-6651-4267-8381-E0D2A27AD8B6";
name = foreground;
paths = (
{
closed = 1;
nodes = (
"565 239 LINE",
"565 319 LINE",
"180 319 LINE",
"180 239 LINE"
);
},
{
closed = 1;
nodes = (
"257 0 LINE",
"257 64 LINE",
"123 92 LINE",
"141 58 LINE",
"359 684 LINE",
"320 656 LINE",
"404 656 LINE",
"368 684 LINE",
"571 52 LINE",
"588 86 LINE",
"482 64 LINE",
"482 0 LINE",
"756 0 LINE",
"756 64 LINE",
"633 98 LINE",
"672 62 LINE",
"449 740 LINE",
"288 740 LINE",
"52 57 LINE",
"91 93 LINE",
"-17 64 LINE",
"-17 0 LINE"
);
},
{
closed = 1;
nodes = (
"295 652 LINE",
"325 740 LINE",
"135 740 LINE",
"135 676 LINE"
);
}
);
width = 735;
}
);
unicode = 0041;
},
{
glyphname = Aacute;
layers = (
{
background = {
components = (
{
name = A;
}
);
paths = (
{
closed = 1;
nodes = (
"501 998 LINE",
"403 833 LINE",
"322 833 LINE",
"388 998 LINE"
);
}
);
};
components = (
{
name = A;
}
);
layerId = master01;
paths = (
{
closed = 1;
nodes = (
"501 998 LINE",
"403 833 LINE",
"322 833 LINE",
"388 998 LINE"
);
}
);
width = 735;
},
{
associatedMasterId = master01;
components = (
{
name = A;
}
);
layerId = "69285A80-C374-4383-A9A4-BB1C0C115D47";
name = foreground;
paths = (
{
closed = 1;
nodes = (
"501 998 LINE",
"403 833 LINE",
"322 833 LINE",
"388 998 LINE"
);
}
);
width = 735;
}
);
unicode = 00C1;
},
{
glyphname = B;
layers = (
{
background = {
paths = (
{
closed = 1;
nodes = (
"536 740 OFFCURVE",
"591 692 OFFCURVE",
"591 561 CURVE SMOOTH",
"591 462 OFFCURVE",
"556 407 OFFCURVE",
"465 400 CURVE SMOOTH",
"439 398 LINE",
"470 424 LINE",
"470 364 LINE",
"449 377 LINE",
"475 376 LINE SMOOTH",
"584 372 OFFCURVE",
"636 338 OFFCURVE",
"636 205 CURVE SMOOTH",
"636 63 OFFCURVE",
"554 0 OFFCURVE",
"373 0 CURVE",
"39 0 LINE",
"39 64 LINE",
"147 93 LINE",
"113 65 LINE",
"113 690 LINE",
"142 648 LINE",
"39 676 LINE",
"39 740 LINE",
"405 740 LINE"
);
},
{
closed = 1;
nodes = (
"211 698 LINE",
"211 54 LINE",
"175 78 LINE",
"403 78 LINE",
"501 78 OFFCURVE",
"545 115 OFFCURVE",
"545 222 CURVE SMOOTH",
"545 307 OFFCURVE",
"501 346 OFFCURVE",
"417 346 CURVE",
"191 346 LINE",
"191 421 LINE",
"400 421 LINE",
"463 421 OFFCURVE",
"501 470 OFFCURVE",
"501 549 CURVE",
"501 629 OFFCURVE",
"465 662 OFFCURVE",
"397 662 CURVE",
"176 662 LINE"
);
}
);
};
layerId = master01;
paths = (
{
closed = 1;
nodes = (
"536 740 OFFCURVE",
"591 692 OFFCURVE",
"591 561 CURVE SMOOTH",
"591 461.848 OFFCURVE",
"555.993 407 OFFCURVE",
"465 400 CURVE SMOOTH",
"439 398 LINE",
"470 424 LINE",
"470 364 LINE",
"449 377 LINE",
"475 376 LINE SMOOTH",
"583.996 371.808 OFFCURVE",
"636 338.339 OFFCURVE",
"636 205 CURVE SMOOTH",
"636 63 OFFCURVE",
"554 0 OFFCURVE",
"373 0 CURVE",
"39 0 LINE",
"39 64 LINE",
"147 93 LINE",
"113 65 LINE",
"113 690 LINE",
"142 648 LINE",
"39 676 LINE",
"39 740 LINE",
"405 740 LINE"
);
},
{
closed = 1;
nodes = (
"211 698 LINE",
"211 54 LINE",
"175 78 LINE",
"403 78 LINE",
"501 78 OFFCURVE",
"545 115 OFFCURVE",
"545 222 CURVE SMOOTH",
"545 307 OFFCURVE",
"501 346 OFFCURVE",
"417 346 CURVE",
"191 346 LINE",
"191 421 LINE",
"400 421 LINE",
"463 421 OFFCURVE",
"501 470 OFFCURVE",
"501 549 CURVE",
"501 629 OFFCURVE",
"465 662 OFFCURVE",
"397 662 CURVE",
"176 662 LINE"
);
}
);
width = 691;
},
{
associatedMasterId = master01;
layerId = "22509F7C-D35A-4BD8-B06B-F1A67F01C0DE";
name = foreground;
paths = (
{
closed = 1;
nodes = (
"536 740 OFFCURVE",
"591 692 OFFCURVE",
"591 561 CURVE SMOOTH",
"591 461.848 OFFCURVE",
"555.993 407 OFFCURVE",
"465 400 CURVE SMOOTH",
"439 398 LINE",
"470 424 LINE",
"470 364 LINE",
"449 377 LINE",
"475 376 LINE SMOOTH",
"583.996 371.808 OFFCURVE",
"636 338.339 OFFCURVE",
"636 205 CURVE SMOOTH",
"636 63 OFFCURVE",
"554 0 OFFCURVE",
"373 0 CURVE",
"39 0 LINE",
"39 64 LINE",
"147 93 LINE",
"113 65 LINE",
"113 690 LINE",
"142 648 LINE",
"39 676 LINE",
"39 740 LINE",
"405 740 LINE"
);
},
{
closed = 1;
nodes = (
"211 698 LINE",
"211 54 LINE",
"175 78 LINE",
"403 78 LINE",
"501 78 OFFCURVE",
"545 115 OFFCURVE",
"545 222 CURVE SMOOTH",
"545 307 OFFCURVE",
"501 346 OFFCURVE",
"417 346 CURVE",
"191 346 LINE",
"191 421 LINE",
"400 421 LINE",
"463 421 OFFCURVE",
"501 470 OFFCURVE",
"501 549 CURVE",
"501 629 OFFCURVE",
"465 662 OFFCURVE",
"397 662 CURVE",
"176 662 LINE"
);
}
);
width = 691;
}
);
unicode = 0042;
},
{
glyphname = C;
layers = (
{
background = {
paths = (
{
closed = 1;
nodes = (
"151 -18 OFFCURVE",
"56 95 OFFCURVE",
"56 370 CURVE SMOOTH",
"56 645 OFFCURVE",
"164 758 OFFCURVE",
"371 758 CURVE SMOOTH",
"497 758 OFFCURVE",
"582 724 OFFCURVE",
"623 685 CURVE",
"610 454 LINE",
"539 454 LINE",
"530 687 LINE",
"582 606 LINE",
"540 646 OFFCURVE",
"475 672 OFFCURVE",
"371 672 CURVE SMOOTH",
"219 672 OFFCURVE",
"151 579 OFFCURVE",
"151 370 CURVE SMOOTH",
"151 155 OFFCURVE",
"228 68 OFFCURVE",
"377 68 CURVE SMOOTH",
"477 68 OFFCURVE",
"523 96 OFFCURVE",
"577 148 CURVE",
"629 77 LINE",
"571 22 OFFCURVE",
"496 -18 OFFCURVE",
"373 -18 CURVE SMOOTH"
);
}
);
};
layerId = master01;
paths = (
{
closed = 1;
nodes = (
"151 -18 OFFCURVE",
"56 95 OFFCURVE",
"56 370 CURVE SMOOTH",
"56 645 OFFCURVE",
"164 758 OFFCURVE",
"371 758 CURVE SMOOTH",
"497 758 OFFCURVE",
"581.695 724.131 OFFCURVE",
"623 685 CURVE",
"610 454 LINE",
"539 454 LINE",
"530 687 LINE",
"582 606 LINE",
"540.24 645.562 OFFCURVE",
"475 672 OFFCURVE",
"371 672 CURVE SMOOTH",
"219 672 OFFCURVE",
"151 579 OFFCURVE",
"151 370 CURVE SMOOTH",
"151 155 OFFCURVE",
"228 68 OFFCURVE",
"377 68 CURVE SMOOTH",
"476.502 68 OFFCURVE",
"523.437 96.497 OFFCURVE",
"577 148 CURVE",
"629 77 LINE",
"570.595 21.669 OFFCURVE",
"495.521 -18 OFFCURVE",
"373 -18 CURVE SMOOTH"
);
}
);
width = 682;
},
{
associatedMasterId = master01;
layerId = "8B7DFE6C-FD81-492B-86E5-0FD2F7FCF624";
name = foreground;
paths = (
{
closed = 1;
nodes = (
"151 -18 OFFCURVE",
"56 95 OFFCURVE",
"56 370 CURVE SMOOTH",
"56 645 OFFCURVE",
"164 758 OFFCURVE",
"371 758 CURVE SMOOTH",
"497 758 OFFCURVE",
"581.695 724.131 OFFCURVE",
"623 685 CURVE",
"610 454 LINE",
"539 454 LINE",
"530 687 LINE",
"582 606 LINE",
"540.24 645.562 OFFCURVE",
"475 672 OFFCURVE",
"371 672 CURVE SMOOTH",
"219 672 OFFCURVE",
"151 579 OFFCURVE",
"151 370 CURVE SMOOTH",
"151 155 OFFCURVE",
"228 68 OFFCURVE",
"377 68 CURVE SMOOTH",
"476.502 68 OFFCURVE",
"523.437 96.497 OFFCURVE",
"577 148 CURVE",
"629 77 LINE",
"570.595 21.669 OFFCURVE",
"495.521 -18 OFFCURVE",
"373 -18 CURVE SMOOTH"
);
}
);
width = 682;
}
);
unicode = 0043;
},
{
glyphname = D;
layers = (
{
background = {
paths = (
{
closed = 1;
nodes = (
"40 64 LINE",
"148 93 LINE",
"114 65 LINE",
"114 690 LINE",
"143 648 LINE",
"40 676 LINE",
"40 740 LINE",
"339 740 LINE",
"588 740 OFFCURVE",
"692 632 OFFCURVE",
"692 370 CURVE SMOOTH",
"692 109 OFFCURVE",
"594 0 OFFCURVE",
"359 0 CURVE SMOOTH",
"40 0 LINE"
);
},
{
closed = 1;
nodes = (
"179 84 LINE",
"360 84 LINE SMOOTH",
"527 84 OFFCURVE",
"597 167 OFFCURVE",
"597 370 CURVE SMOOTH",
"597 573 OFFCURVE",
"523 655 OFFCURVE",
"337 657 CURVE",
"189 657 LINE",
"212 704 LINE",
"212 54 LINE"
);
}
);
};
layerId = master01;
paths = (
{
closed = 1;
nodes = (
"40 64 LINE",
"148 93 LINE",
"114 65 LINE",
"114 690 LINE",
"143 648 LINE",
"40 676 LINE",
"40 740 LINE",
"339 740 LINE",
"588 740 OFFCURVE",
"692 632 OFFCURVE",
"692 370 CURVE SMOOTH",
"692 109 OFFCURVE",
"594 0 OFFCURVE",
"359 0 CURVE SMOOTH",
"40 0 LINE"
);
},
{
closed = 1;
nodes = (
"179 84 LINE",
"360 84 LINE SMOOTH",
"527.294 84 OFFCURVE",
"597 167.417 OFFCURVE",
"597 370 CURVE SMOOTH",
"597 573.292 OFFCURVE",
"523 655 OFFCURVE",
"337 657 CURVE",
"189 657 LINE",
"212 704 LINE",
"212 54 LINE"
);
}
);
width = 752;
},
{
associatedMasterId = master01;
layerId = "586FEC23-6A00-430A-A2BD-7C1C8DBF59FD";
name = foreground;
paths = (
{
closed = 1;
nodes = (
"40 64 LINE",
"148 93 LINE",
"114 65 LINE",
"114 690 LINE",
"143 648 LINE",
"40 676 LINE",
"40 740 LINE",
"339 740 LINE",
"588 740 OFFCURVE",
"692 632 OFFCURVE",
"692 370 CURVE SMOOTH",
"692 109 OFFCURVE",
"594 0 OFFCURVE",
"359 0 CURVE SMOOTH",
"40 0 LINE"
);
},
{
closed = 1;
nodes = (
"179 84 LINE",
"360 84 LINE SMOOTH",
"527.294 84 OFFCURVE",
"597 167.417 OFFCURVE",
"597 370 CURVE SMOOTH",
"597 573.292 OFFCURVE",
"523 655 OFFCURVE",
"337 657 CURVE",
"189 657 LINE",
"212 704 LINE",
"212 54 LINE"
);
}
);
width = 752;
}
);
unicode = 0044;
},
{
glyphname = E;
layers = (
{
background = {
paths = (
{
closed = 1;
nodes = (
"157 411 LINE",
"465 400 LINE",
"465 333 LINE",
"157 323 LINE"
);
},
{
closed = 1;
nodes = (
"530 81 LINE",
"504 48 LINE",
"533 219 LINE",
"599 219 LINE",
"599 0 LINE",
"40 0 LINE",
"40 64 LINE",
"148 93 LINE",
"114 65 LINE",
"114 690 LINE",
"143 648 LINE",
"40 676 LINE",
"40 740 LINE",
"595 740 LINE",
"585 526 LINE",
"518 526 LINE",
"506 687 LINE",
"546 659 LINE",
"157 659 LINE",
"212 698 LINE",
"212 57 LINE",
"158 81 LINE"
);
}
);
};
layerId = master01;
paths = (
{
closed = 1;
nodes = (
"157 411 LINE",
"465 400 LINE",
"465 333 LINE",
"157 323 LINE"
);
},
{
closed = 1;
nodes = (
"530 81 LINE",
"504 48 LINE",
"533 219 LINE",
"599 219 LINE",
"599 0 LINE",
"40 0 LINE",
"40 64 LINE",
"148 93 LINE",
"114 65 LINE",
"114 690 LINE",
"143 648 LINE",
"40 676 LINE",
"40 740 LINE",
"595 740 LINE",
"585 526 LINE",
"518 526 LINE",
"506 687 LINE",
"546 659 LINE",
"157 659 LINE",
"212 698 LINE",
"212 57 LINE",
"158 81 LINE"
);
}
);
width = 661;
},
{
associatedMasterId = master01;
layerId = "31D8A4F5-4712-438F-8AC8-FBD2F97F71E2";
name = foreground;
paths = (
{
closed = 1;
nodes = (
"157 411 LINE",
"465 400 LINE",
"465 333 LINE",
"157 323 LINE"
);
},
{
closed = 1;
nodes = (
"530 81 LINE",
"504 48 LINE",
"533 219 LINE",
"599 219 LINE",
"599 0 LINE",
"40 0 LINE",
"40 64 LINE",
"148 93 LINE",
"114 65 LINE",
"114 690 LINE",
"143 648 LINE",
"40 676 LINE",
"40 740 LINE",
"595 740 LINE",
"585 526 LINE",
"518 526 LINE",
"506 687 LINE",
"546 659 LINE",
"157 659 LINE",
"212 698 LINE",
"212 57 LINE",
"158 81 LINE"
);
}
);
width = 661;
}
);
unicode = 0045;
},
{
glyphname = F;
layers = (
{
background = {
paths = (
{
closed = 1;
nodes = (
"157 401 LINE",
"465 390 LINE",
"465 323 LINE",
"157 313 LINE"
);
},
{
closed = 1;
nodes = (
"186 94 LINE",
"390 64 LINE",
"390 0 LINE",
"46 0 LINE",
"46 64 LINE",
"148 92 LINE",
"114 45 LINE",
"114 690 LINE",
"143 648 LINE",
"40 676 LINE",
"40 740 LINE",
"595 740 LINE",
"585 516 LINE",
"518 516 LINE",
"506 687 LINE",
"546 659 LINE",
"157 659 LINE",
"212 698 LINE",
"212 37 LINE"
);
}
);
};
guideLines = (
{
position = "{0, 655}";
},
{
position = "{0, 516}";
},
{
position = "{0, 84}";
}
);
layerId = master01;
paths = (
{
closed = 1;
nodes = (
"157 401 LINE",
"465 390 LINE",
"465 323 LINE",
"157 313 LINE"
);
},
{
closed = 1;
nodes = (
"186 94 LINE",
"390 64 LINE",
"390 0 LINE",
"46 0 LINE",
"46 64 LINE",
"148 92 LINE",
"114 45 LINE",
"114 690 LINE",
"143 648 LINE",
"40 676 LINE",
"40 740 LINE",
"595 740 LINE",
"585 516 LINE",
"518 516 LINE",
"506 687 LINE",
"546 659 LINE",
"157 659 LINE",
"212 698 LINE",
"212 37 LINE"
);
}
);
width = 617;
},
{
associatedMasterId = master01;
guideLines = (
{
position = "{0, 655}";
},
{
position = "{0, 516}";
},
{
position = "{0, 84}";
}
);
layerId = "6F63DA9A-A2CC-416C-A6B0-B91575461CE1";
name = foreground;
paths = (
{
closed = 1;
nodes = (
"157 401 LINE",
"465 390 LINE",
"465 323 LINE",
"157 313 LINE"
);
},
{
closed = 1;
nodes = (
"186 94 LINE",
"390 64 LINE",
"390 0 LINE",
"46 0 LINE",
"46 64 LINE",
"148 92 LINE",
"114 45 LINE",
"114 690 LINE",
"143 648 LINE",
"40 676 LINE",
"40 740 LINE",
"595 740 LINE",
"585 516 LINE",
"518 516 LINE",
"506 687 LINE",
"546 659 LINE",
"157 659 LINE",
"212 698 LINE",
"212 37 LINE"
);
}
);
width = 617;
}
);
unicode = 0046;
},
{
glyphname = G;
layers = (
{
background = {
paths = (
{
closed = 1;
nodes = (
"569 116 LINE",
"569 322 LINE",
"598 270 LINE",
"368 284 LINE",
"368 352 LINE",
"660 356 LINE",
"660 123 LINE",
"589 20 OFFCURVE",
"512 -18 OFFCURVE",
"373 -18 CURVE SMOOTH",
"151 -18 OFFCURVE",
"56 95 OFFCURVE",
"56 370 CURVE SMOOTH",
"56 639 OFFCURVE",
"158 758 OFFCURVE",
"389 758 CURVE SMOOTH",
"505 758 OFFCURVE",
"584 723 OFFCURVE",
"623 685 CURVE",
"605 490 LINE",
"538 490 LINE",
"522 687 LINE",
"582 606 LINE",
"543 643 OFFCURVE",
"483 672 OFFCURVE",
"389 672 CURVE SMOOTH",
"224 672 OFFCURVE",
"151 579 OFFCURVE",
"151 370 CURVE SMOOTH",
"151 155 OFFCURVE",
"228 68 OFFCURVE",
"377 68 CURVE",
"483 68 OFFCURVE",
"537 95 OFFCURVE",
"598 175 CURVE"
);
}
);
};
layerId = master01;
paths = (
{
closed = 1;
nodes = (
"569 116 LINE",
"569 322 LINE",
"598 270 LINE",
"368 284 LINE",
"368 352 LINE",
"660 356 LINE",
"660 123 LINE",
"589 20 OFFCURVE",
"512 -18 OFFCURVE",
"373 -18 CURVE SMOOTH",
"151 -18 OFFCURVE",
"56 95 OFFCURVE",
"56 370 CURVE SMOOTH",
"56 639 OFFCURVE",
"158 758 OFFCURVE",
"389 758 CURVE SMOOTH",
"505 758 OFFCURVE",
"584.118 722.802 OFFCURVE",
"623 685 CURVE",
"605 490 LINE",
"538 490 LINE",
"522 687 LINE",
"582 606 LINE",
"542.838 642.987 OFFCURVE",
"483 672 OFFCURVE",
"389 672 CURVE SMOOTH",
"224 672 OFFCURVE",
"151 579 OFFCURVE",
"151 370 CURVE SMOOTH",
"151 155 OFFCURVE",
"228 68 OFFCURVE",
"377 68 CURVE",
"483 68 OFFCURVE",
"537 95 OFFCURVE",
"598 175 CURVE"
);
}
);
width = 692;
},
{
associatedMasterId = master01;
layerId = "C7605A73-AE73-4A88-899E-38F1E353A240";
name = foreground;
paths = (
{
closed = 1;
nodes = (
"569 116 LINE",
"569 322 LINE",
"598 270 LINE",
"368 284 LINE",
"368 352 LINE",
"660 356 LINE",
"660 123 LINE",
"589 20 OFFCURVE",
"512 -18 OFFCURVE",
"373 -18 CURVE SMOOTH",
"151 -18 OFFCURVE",
"56 95 OFFCURVE",
"56 370 CURVE SMOOTH",
"56 639 OFFCURVE",
"158 758 OFFCURVE",
"389 758 CURVE SMOOTH",
"505 758 OFFCURVE",
"584.118 722.802 OFFCURVE",
"623 685 CURVE",
"605 490 LINE",
"538 490 LINE",
"522 687 LINE",
"582 606 LINE",
"542.838 642.987 OFFCURVE",
"483 672 OFFCURVE",
"389 672 CURVE SMOOTH",
"224 672 OFFCURVE",
"151 579 OFFCURVE",
"151 370 CURVE SMOOTH",
"151 155 OFFCURVE",
"228 68 OFFCURVE",
"377 68 CURVE",
"483 68 OFFCURVE",
"537 95 OFFCURVE",
"598 175 CURVE"
);
}
);
width = 692;
}
);
unicode = 0047;
},
{
glyphname = H;
layers = (
{
background = {
paths = (
{
closed = 1;
nodes = (
"179 410 LINE",
"624 410 LINE",
"624 330 LINE",
"179 330 LINE"
);
},
{
closed = 1;
nodes = (
"210 57 LINE",
"178 93 LINE",
"287 64 LINE",
"287 0 LINE",
"38 0 LINE",
"38 64 LINE",
"146 93 LINE",
"112 65 LINE",
"112 690 LINE",
"141 648 LINE",
"38 676 LINE",
"38 740 LINE",
"287 740 LINE",
"287 676 LINE",
"178 648 LINE",
"210 698 LINE"
);
},
{
closed = 1;
nodes = (
"685 53 LINE",
"648 94 LINE",
"759 64 LINE",
"759 0 LINE",
"510 0 LINE",
"510 64 LINE",
"613 91 LINE",
"587 65 LINE",
"587 686 LINE",
"621 647 LINE",
"510 676 LINE",
"510 740 LINE",
"759 740 LINE",
"759 676 LINE",
"651 647 LINE",
"685 693 LINE"
);
}
);
};
layerId = master01;
paths = (
{
closed = 1;
nodes = (
"179 410 LINE",
"624 410 LINE",
"624 330 LINE",
"179 330 LINE"
);
},
{
closed = 1;
nodes = (
"210 57 LINE",
"178 93 LINE",
"287 64 LINE",
"287 0 LINE",
"38 0 LINE",
"38 64 LINE",
"146 93 LINE",
"112 65 LINE",
"112 690 LINE",
"141 648 LINE",
"38 676 LINE",
"38 740 LINE",
"287 740 LINE",
"287 676 LINE",
"178 648 LINE",
"210 698 LINE"
);
},
{
closed = 1;
nodes = (
"685 53 LINE",
"648 94 LINE",
"759 64 LINE",
"759 0 LINE",
"510 0 LINE",
"510 64 LINE",
"613 91 LINE",
"587 65 LINE",
"587 686 LINE",
"621 647 LINE",
"510 676 LINE",
"510 740 LINE",
"759 740 LINE",
"759 676 LINE",
"651 647 LINE",
"685 693 LINE"
);
}
);
userData = {
com.schriftgestaltung.Glyphs.lastChange = "2020-07-16 19:46:31 +0000";
};
width = 797;
},
{
associatedMasterId = master01;
layerId = "ED1EF8E6-E652-49E5-8E7D-91FCF949D63A";
name = foreground;
paths = (
{
closed = 1;
nodes = (
"179 410 LINE",
"624 410 LINE",
"624 330 LINE",
"179 330 LINE"
);
},
{
closed = 1;
nodes = (
"210 57 LINE",
"178 93 LINE",
"287 64 LINE",
"287 0 LINE",
"38 0 LINE",
"38 64 LINE",
"146 93 LINE",
"112 65 LINE",
"112 690 LINE",
"141 648 LINE",
"38 676 LINE",
"38 740 LINE",
"287 740 LINE",
"287 676 LINE",
"178 648 LINE",
"210 698 LINE"
);
},
{
closed = 1;
nodes = (
"685 53 LINE",
"648 94 LINE",
"759 64 LINE",
"759 0 LINE",
"510 0 LINE",
"510 64 LINE",
"613 91 LINE",
"587 65 LINE",
"587 686 LINE",
"621 647 LINE",
"510 676 LINE",
"510 740 LINE",
"759 740 LINE",
"759 676 LINE",
"651 647 LINE",
"685 693 LINE"
);
}
);
userData = {
com.schriftgestaltung.Glyphs.lastChange = "2020-07-16 19:46:31 +0000";
};
width = 797;
}
);
unicode = 0048;
},
{
glyphname = I;
layers = (
{
background = {
paths = (
{
closed = 1;
nodes = (
"227 51 LINE",
"195 94 LINE",
"324 64 LINE",
"324 0 LINE",
"35 0 LINE",
"35 64 LINE",
"163 94 LINE",
"129 51 LINE",
"129 694 LINE",
"163 646 LINE",
"35 676 LINE",
"35 740 LINE",
"324 740 LINE",
"324 676 LINE",
"195 646 LINE",
"227 694 LINE"
);
}
);
};
layerId = master01;
paths = (
{
closed = 1;
nodes = (
"227 51 LINE",
"195 94 LINE",
"324 64 LINE",
"324 0 LINE",
"35 0 LINE",
"35 64 LINE",
"163 94 LINE",
"129 51 LINE",
"129 694 LINE",
"163 646 LINE",
"35 676 LINE",
"35 740 LINE",
"324 740 LINE",
"324 676 LINE",
"195 646 LINE",
"227 694 LINE"
);
}
);
userData = {
com.schriftgestaltung.Glyphs.lastChange = "2020-07-16 19:53:17 +0000";
};
width = 359;
},
{
associatedMasterId = master01;
layerId = "6ADD19DC-C19A-4F1F-8941-072875D4E640";
name = foreground;
paths = (
{
closed = 1;
nodes = (
"227 51 LINE",
"195 94 LINE",
"324 64 LINE",
"324 0 LINE",
"35 0 LINE",
"35 64 LINE",
"163 94 LINE",
"129 51 LINE",
"129 694 LINE",
"163 646 LINE",
"35 676 LINE",
"35 740 LINE",
"324 740 LINE",
"324 676 LINE",
"195 646 LINE",
"227 694 LINE"
);
}
);
userData = {
com.schriftgestaltung.Glyphs.lastChange = "2020-07-16 19:53:17 +0000";
};
width = 359;
}
);
unicode = 0049;
},
{
glyphname = J;
layers = (
{
background = {
paths = (
{
closed = 1;
nodes = (
"407 693 LINE",
"373 649 LINE",
"505 676 LINE",
"505 740 LINE",
"152 740 LINE",
"152 674 LINE",
"343 650 LINE",
"309 686 LINE",
"309 248 LINE SMOOTH",
"309 133 OFFCURVE",
"286 74 OFFCURVE",
"186 74 CURVE SMOOTH",
"124 74 OFFCURVE",
"89 95 OFFCURVE",
"43 141 CURVE",
"-19 74 LINE",
"50 5 OFFCURVE",
"103 -18 OFFCURVE",
"196 -18 CURVE",
"343 -18 OFFCURVE",
"407 74 OFFCURVE",
"407 243 CURVE SMOOTH"
);
}
);
};
guideLines = (
{
position = "{0, 676}";
},
{
position = "{0, 656}";
}
);
layerId = master01;
paths = (
{
closed = 1;
nodes = (
"407 693 LINE",
"373 649 LINE",
"505 676 LINE",
"505 740 LINE",
"152 740 LINE",
"152 674 LINE",
"343 650 LINE",
"309 686 LINE",
"309 248 LINE SMOOTH",
"309 133 OFFCURVE",
"286 74 OFFCURVE",
"186 74 CURVE SMOOTH",
"124 74 OFFCURVE",
"89 95 OFFCURVE",
"43 141 CURVE",
"-19 74 LINE",
"50 5 OFFCURVE",
"103 -18 OFFCURVE",
"196 -18 CURVE",
"343 -18 OFFCURVE",
"407 74 OFFCURVE",
"407 243 CURVE SMOOTH"
);
}
);
width = 512;
},
{
associatedMasterId = master01;
guideLines = (
{
position = "{0, 676}";
},
{
position = "{0, 656}";
}
);
layerId = "DD0C773B-45C9-4572-BCE8-4A3352FE4536";
name = foreground;
paths = (
{
closed = 1;
nodes = (
"407 693 LINE",
"373 649 LINE",
"505 676 LINE",
"505 740 LINE",
"152 740 LINE",
"152 674 LINE",
"343 650 LINE",
"309 686 LINE",
"309 248 LINE SMOOTH",
"309 133 OFFCURVE",
"286 74 OFFCURVE",
"186 74 CURVE SMOOTH",
"124 74 OFFCURVE",
"89 95 OFFCURVE",
"43 141 CURVE",
"-19 74 LINE",
"50 5 OFFCURVE",
"103 -18 OFFCURVE",
"196 -18 CURVE",
"343 -18 OFFCURVE",
"407 74 OFFCURVE",
"407 243 CURVE SMOOTH"
);
}
);
width = 512;
}
);
unicode = 004A;
},
{
glyphname = K;
layers = (
{
background = {
paths = (
{
closed = 1;
nodes = (
"191 299 LINE",
"540 674 LINE",
"521 655 LINE",
"425 676 LINE",
"425 740 LINE",
"699 740 LINE",
"699 676 LINE",
"604 647 LINE",
"648 673 LINE",
"197 184 LINE"
);
},
{
closed = 1;
nodes = (
"392 428 LINE",
"641 69 LINE",
"588 92 LINE",
"729 69 LINE",
"729 0 LINE",
"575 0 LINE",
"324 360 LINE"
);
},
{
closed = 1;
nodes = (
"212 57 LINE",
"180 92 LINE",
"299 64 LINE",
"299 0 LINE",
"40 0 LINE",
"40 64 LINE",
"148 93 LINE",
"114 65 LINE",
"114 690 LINE",
"143 648 LINE",
"40 676 LINE",
"40 740 LINE",
"289 740 LINE",
"289 676 LINE",
"180 648 LINE",
"212 698 LINE"
);
},
{
closed = 1;
nodes = (
"438 63 LINE",
"561 95 LINE",
"591 0 LINE",
"438 0 LINE"
);
}
);
};
guideLines = (
{
position = "{0, 84}";
},
{
angle = 90;
position = "{699, 639}";
}
);
layerId = master01;
paths = (
{
closed = 1;
nodes = (
"191 299 LINE",
"540 674 LINE",
"521 655 LINE",
"425 676 LINE",
"425 740 LINE",
"699 740 LINE",
"699 676 LINE",
"604 647 LINE",
"648 673 LINE",
"197 184 LINE"
);
},
{
closed = 1;
nodes = (
"392 428 LINE",
"641 69 LINE",
"588 92 LINE",
"729 69 LINE",
"729 0 LINE",
"575 0 LINE",
"324 360 LINE"
);
},
{
closed = 1;
nodes = (
"212 57 LINE",
"180 92 LINE",
"299 64 LINE",
"299 0 LINE",
"40 0 LINE",
"40 64 LINE",
"148 93 LINE",
"114 65 LINE",
"114 690 LINE",
"143 648 LINE",
"40 676 LINE",
"40 740 LINE",
"289 740 LINE",
"289 676 LINE",
"180 648 LINE",
"212 698 LINE"
);
},
{
closed = 1;
nodes = (
"438 63 LINE",
"561 95 LINE",
"591 0 LINE",
"438 0 LINE"
);
}
);
width = 700;
},
{
associatedMasterId = master01;
guideLines = (
{
position = "{0, 84}";
},
{
angle = 90;
position = "{699, 639}";
}
);
layerId = "277C10FB-DB1F-4886-90B1-7B7575D61B11";
name = foreground;
paths = (
{
closed = 1;
nodes = (
"191 299 LINE",
"540 674 LINE",
"521 655 LINE",
"425 676 LINE",
"425 740 LINE",
"699 740 LINE",
"699 676 LINE",
"604 647 LINE",
"648 673 LINE",
"197 184 LINE"
);
},
{
closed = 1;
nodes = (
"392 428 LINE",
"641 69 LINE",
"588 92 LINE",
"729 69 LINE",
"729 0 LINE",
"575 0 LINE",
"324 360 LINE"
);
},
{
closed = 1;
nodes = (
"212 57 LINE",
"180 92 LINE",
"299 64 LINE",
"299 0 LINE",
"40 0 LINE",
"40 64 LINE",
"148 93 LINE",
"114 65 LINE",
"114 690 LINE",
"143 648 LINE",
"40 676 LINE",
"40 740 LINE",
"289 740 LINE",
"289 676 LINE",
"180 648 LINE",
"212 698 LINE"
);
},
{
closed = 1;
nodes = (
"438 63 LINE",
"561 95 LINE",
"591 0 LINE",
"438 0 LINE"
);
}
);
width = 700;
}
);
unicode = 004B;
},
{
glyphname = L;
layers = (
{
background = {
paths = (
{
closed = 1;
nodes = (
"30 0 LINE",
"30 64 LINE",
"148 93 LINE",
"114 65 LINE",
"114 690 LINE",
"143 648 LINE",
"30 676 LINE",
"30 740 LINE",
"379 740 LINE",
"379 676 LINE",
"180 646 LINE",
"212 698 LINE",
"212 57 LINE",
"180 84 LINE",
"521 84 LINE",
"481 44 LINE",
"513 274 LINE",
"583 274 LINE",
"581 0 LINE"
);
}
);
};
guideLines = (
{
position = "{0, 676}";
},
{
position = "{0, 656}";
}
);
layerId = master01;
paths = (
{
closed = 1;
nodes = (
"30 0 LINE",
"30 64 LINE",
"148 93 LINE",
"114 65 LINE",
"114 690 LINE",
"143 648 LINE",
"30 676 LINE",
"30 740 LINE",
"379 740 LINE",
"379 676 LINE",
"180 646 LINE",
"212 698 LINE",
"212 57 LINE",
"180 84 LINE",
"521 84 LINE",
"481 44 LINE",
"513 274 LINE",
"583 274 LINE",
"581 0 LINE"
);
}
);
width = 611;
},
{
associatedMasterId = master01;
guideLines = (
{
position = "{0, 676}";
},
{
position = "{0, 656}";
}
);
layerId = "D815D9E0-C821-4F75-AF95-7FA6A8E99F95";
name = foreground;
paths = (
{
closed = 1;
nodes = (
"30 0 LINE",
"30 64 LINE",
"148 93 LINE",
"114 65 LINE",
"114 690 LINE",
"143 648 LINE",
"30 676 LINE",
"30 740 LINE",
"379 740 LINE",
"379 676 LINE",
"180 646 LINE",
"212 698 LINE",
"212 57 LINE",
"180 84 LINE",
"521 84 LINE",
"481 44 LINE",
"513 274 LINE",
"583 274 LINE",
"581 0 LINE"
);
}
);
width = 611;
}
);
unicode = 004C;
},
{
glyphname = M;
layers = (
{
background = {
paths = (
{
closed = 1;
nodes = (
"440 35 LINE",
"538 35 LINE",
"765 704 LINE",
"708 646 LINE",
"784 646 LINE",
"765 660 LINE",
"765 42 LINE",
"776 87 LINE",
"688 64 LINE",
"688 0 LINE",
"936 0 LINE",
"936 64 LINE",
"818 96 LINE",
"862 42 LINE",
"862 686 LINE",
"821 648 LINE",
"935 676 LINE",
"925 740 LINE",
"694 740 LINE",
"565 378 LINE",
"473 70 LINE",
"521 70 LINE",
"430 378 LINE",
"303 740 LINE",
"46 740 LINE",
"46 676 LINE",
"149 648 LINE",
"114 696 LINE",
"114 42 LINE",
"126 87 LINE",
"40 64 LINE",
"40 0 LINE",
"279 0 LINE",
"279 64 LINE",
"192 87 LINE",
"202 42 LINE",
"202 670 LINE",
"181 646 LINE",
"261 646 LINE",
"204 704 LINE"
);
},
{
closed = 1;
nodes = (
"535 112 LINE",
"535 185 LINE",
"460 185 LINE",
"460 112 LINE"
);
}
);
};
guideLines = (
{
position = "{0, 84}";
},
{
position = "{0, 656}";
},
{
angle = 90;
position = "{479, 144}";
}
);
layerId = master01;
paths = (
{
closed = 1;
nodes = (
"440 35 LINE",
"538 35 LINE",
"765 704 LINE",
"708 646 LINE",
"784 646 LINE",
"765 660 LINE",
"765 42 LINE",
"776 87 LINE",
"688 64 LINE",
"688 0 LINE",
"936 0 LINE",
"936 64 LINE",
"818 96 LINE",
"862 42 LINE",
"862 686 LINE",
"821 648 LINE",
"935 676 LINE",
"925 740 LINE",
"694 740 LINE",
"565 378 LINE",
"473 70 LINE",
"521 70 LINE",
"430 378 LINE",
"303 740 LINE",
"46 740 LINE",
"46 676 LINE",
"149 648 LINE",
"114 696 LINE",
"114 42 LINE",
"126 87 LINE",
"40 64 LINE",
"40 0 LINE",
"279 0 LINE",
"279 64 LINE",
"192 87 LINE",
"202 42 LINE",
"202 670 LINE",
"181 646 LINE",
"261 646 LINE",
"204 704 LINE"
);
},
{
closed = 1;
nodes = (
"535 112 LINE",
"535 185 LINE",
"460 185 LINE",
"460 112 LINE"
);
}
);
width = 986;
},
{
associatedMasterId = master01;
guideLines = (
{
position = "{0, 84}";
},
{
position = "{0, 656}";
},
{
angle = 90;
position = "{479, 144}";
}
);
layerId = "128E6B57-2887-4DAF-B8E2-4B0B90ED455C";
name = foreground;
paths = (
{
closed = 1;
nodes = (
"440 35 LINE",
"538 35 LINE",
"765 704 LINE",
"708 646 LINE",
"784 646 LINE",
"765 660 LINE",
"765 42 LINE",
"776 87 LINE",
"688 64 LINE",
"688 0 LINE",
"936 0 LINE",
"936 64 LINE",
"818 96 LINE",
"862 42 LINE",
"862 686 LINE",
"821 648 LINE",
"935 676 LINE",
"925 740 LINE",
"694 740 LINE",
"565 378 LINE",
"473 70 LINE",
"521 70 LINE",
"430 378 LINE",
"303 740 LINE",
"46 740 LINE",
"46 676 LINE",
"149 648 LINE",
"114 696 LINE",
"114 42 LINE",
"126 87 LINE",
"40 64 LINE",
"40 0 LINE",
"279 0 LINE",
"279 64 LINE",
"192 87 LINE",
"202 42 LINE",
"202 670 LINE",
"181 646 LINE",
"261 646 LINE",
"204 704 LINE"
);
},
{
closed = 1;
nodes = (
"535 112 LINE",
"535 185 LINE",
"460 185 LINE",
"460 112 LINE"
);
}
);
width = 986;
}
);
unicode = 004D;
},
{
glyphname = N;
layers = (
{
background = {
paths = (
{
closed = 1;
nodes = (
"511 676 LINE",
"639 651 LINE",
"620 686 LINE",
"620 65 LINE",
"636 37 LINE",
"284 740 LINE",
"40 740 LINE",
"40 676 LINE",
"143 648 LINE",
"114 690 LINE",
"114 65 LINE",
"148 93 LINE",
"40 64 LINE",
"40 0 LINE",
"303 0 LINE",
"303 64 LINE",
"171 95 LINE",
"201 57 LINE",
"201 698 LINE",
"190 701 LINE",
"540 0 LINE",
"707 0 LINE",
"707 693 LINE",
"673 647 LINE",
"781 676 LINE",
"781 740 LINE",
"511 741 LINE"
);
},
{
closed = 1;
nodes = (
"249 641 LINE",
"249 721 LINE",
"159 721 LINE",
"159 641 LINE"
);
},
{
closed = 1;
nodes = (
"659 11 LINE",
"659 101 LINE",
"569 101 LINE",
"569 11 LINE"
);
}
);
};
guideLines = (
{
position = "{0, 676}";
},
{
position = "{0, 656}";
},
{
position = "{0, 84}";
}
);
layerId = master01;
paths = (
{
closed = 1;
nodes = (
"511 676 LINE",
"639 651 LINE",
"620 686 LINE",
"620 65 LINE",
"636 37 LINE",
"284 740 LINE",
"40 740 LINE",
"40 676 LINE",
"143 648 LINE",
"114 690 LINE",
"114 65 LINE",
"148 93 LINE",
"40 64 LINE",
"40 0 LINE",
"303 0 LINE",
"303 64 LINE",
"171 95 LINE",
"201 57 LINE",
"201 698 LINE",
"190 701 LINE",
"540 0 LINE",
"707 0 LINE",
"707 693 LINE",
"673 647 LINE",
"781 676 LINE",
"781 740 LINE",
"511 741 LINE"
);
},
{
closed = 1;
nodes = (
"249 641 LINE",
"249 721 LINE",
"159 721 LINE",
"159 641 LINE"
);
},
{
closed = 1;
nodes = (
"659 11 LINE",
"659 101 LINE",
"569 101 LINE",
"569 11 LINE"
);
}
);
width = 821;
},
{
associatedMasterId = master01;
guideLines = (
{
position = "{0, 676}";
},
{
position = "{0, 656}";
},
{
position = "{0, 84}";
}
);
layerId = "EECD23BE-059A-417F-B775-3850D55794AB";
name = foreground;
paths = (
{
closed = 1;
nodes = (
"511 676 LINE",
"639 651 LINE",
"620 686 LINE",
"620 65 LINE",
"636 37 LINE",
"284 740 LINE",
"40 740 LINE",
"40 676 LINE",
"143 648 LINE",
"114 690 LINE",
"114 65 LINE",
"148 93 LINE",
"40 64 LINE",
"40 0 LINE",
"303 0 LINE",
"303 64 LINE",
"171 95 LINE",
"201 57 LINE",
"201 698 LINE",
"190 701 LINE",
"540 0 LINE",
"707 0 LINE",
"707 693 LINE",
"673 647 LINE",
"781 676 LINE",
"781 740 LINE",
"511 741 LINE"
);
},
{
closed = 1;
nodes = (
"249 641 LINE",
"249 721 LINE",
"159 721 LINE",
"159 641 LINE"
);
},
{
closed = 1;
nodes = (
"659 11 LINE",
"659 101 LINE",
"569 101 LINE",
"569 11 LINE"
);
}
);
width = 821;
}
);
unicode = 004E;
},
{
glyphname = Ntilde;
layers = (
{
background = {
components = (
{
name = N;
}
);
paths = (
{
closed = 1;
nodes = (
"420 895 OFFCURVE",
"334 898 CURVE SMOOTH",
"283 899 OFFCURVE",
"261 880 OFFCURVE",
"260 838 CURVE",
"197 838 LINE",
"201 941 OFFCURVE",
"222 983 OFFCURVE",
"337 980 CURVE SMOOTH",
"440 978 OFFCURVE",
"451 918 OFFCURVE",
"527 918 CURVE SMOOTH",
"578 918 OFFCURVE",
"597 931 OFFCURVE",
"598 974 CURVE",
"661 974 LINE",
"657 871 OFFCURVE",
"639 831 OFFCURVE",
"531 831 CURVE SMOOTH",
"431 831 OFFCURVE"
);
}
);
};
components = (
{
name = N;
}
);
layerId = master01;
paths = (
{
closed = 1;
nodes = (
"420 895 OFFCURVE",
"334 898 CURVE SMOOTH",
"283 899 OFFCURVE",
"261 880 OFFCURVE",
"260 838 CURVE",
"197 838 LINE",
"201 941 OFFCURVE",
"222 983 OFFCURVE",
"337 980 CURVE SMOOTH",
"440 978 OFFCURVE",
"451 918 OFFCURVE",
"527 918 CURVE SMOOTH",
"578 918 OFFCURVE",
"597 931 OFFCURVE",
"598 974 CURVE",
"661 974 LINE",
"657 871 OFFCURVE",
"639 831 OFFCURVE",
"531 831 CURVE SMOOTH",
"431 831 OFFCURVE"
);
}
);
width = 801;
},
{
associatedMasterId = master01;
components = (
{
name = N;
}
);
layerId = "2BD5DF9D-936E-4A3A-929D-EA00B3251F96";
name = foreground;
paths = (
{
closed = 1;
nodes = (
"420 895 OFFCURVE",
"334 898 CURVE SMOOTH",
"283 899 OFFCURVE",
"261 880 OFFCURVE",
"260 838 CURVE",
"197 838 LINE",
"201 941 OFFCURVE",
"222 983 OFFCURVE",
"337 980 CURVE SMOOTH",
"440 978 OFFCURVE",
"451 918 OFFCURVE",
"527 918 CURVE SMOOTH",
"578 918 OFFCURVE",
"597 931 OFFCURVE",
"598 974 CURVE",
"661 974 LINE",
"657 871 OFFCURVE",
"639 831 OFFCURVE",
"531 831 CURVE SMOOTH",
"431 831 OFFCURVE"
);
}
);
width = 801;
}
);
unicode = 00D1;
},
{
glyphname = O;
layers = (
{
background = {
paths = (
{
closed = 1;
nodes = (
"151 -18 OFFCURVE",
"56 96 OFFCURVE",
"56 370 CURVE SMOOTH",
"56 645 OFFCURVE",
"151 758 OFFCURVE",
"379 758 CURVE SMOOTH",
"607 758 OFFCURVE",
"702 645 OFFCURVE",
"702 370 CURVE SMOOTH",
"702 96 OFFCURVE",
"607 -18 OFFCURVE",
"379 -18 CURVE SMOOTH"
);
},
{
closed = 1;
nodes = (
"540 69 OFFCURVE",
"607 147 OFFCURVE",
"607 370 CURVE SMOOTH",
"607 594 OFFCURVE",
"540 671 OFFCURVE",
"379 671 CURVE SMOOTH",
"218 671 OFFCURVE",
"151 594 OFFCURVE",
"151 370 CURVE SMOOTH",
"151 147 OFFCURVE",
"218 69 OFFCURVE",
"379 69 CURVE SMOOTH"
);
}
);
};
layerId = master01;
paths = (
{
closed = 1;
nodes = (
"151 -18 OFFCURVE",
"56 96 OFFCURVE",
"56 370 CURVE SMOOTH",
"56 645 OFFCURVE",
"151 758 OFFCURVE",
"379 758 CURVE SMOOTH",
"607 758 OFFCURVE",
"702 645 OFFCURVE",
"702 370 CURVE SMOOTH",
"702 96 OFFCURVE",
"607 -18 OFFCURVE",
"379 -18 CURVE SMOOTH"
);
},
{
closed = 1;
nodes = (
"540 69 OFFCURVE",
"607 146.742 OFFCURVE",
"607 370 CURVE SMOOTH",
"607 594.255 OFFCURVE",
"540 671 OFFCURVE",
"379 671 CURVE SMOOTH",
"218 671 OFFCURVE",
"151 594.255 OFFCURVE",
"151 370 CURVE SMOOTH",
"151 146.742 OFFCURVE",
"218 69 OFFCURVE",
"379 69 CURVE SMOOTH"
);
}
);
userData = {
com.schriftgestaltung.Glyphs.lastChange = "2020-07-16 19:49:03 +0000";
};
width = 758;
},
{
associatedMasterId = master01;
layerId = "1B3EFCDA-41C7-4A19-B25D-BE89A2CF4C9F";
name = foreground;
paths = (
{
closed = 1;
nodes = (
"151 -18 OFFCURVE",
"56 96 OFFCURVE",
"56 370 CURVE SMOOTH",
"56 645 OFFCURVE",
"151 758 OFFCURVE",
"379 758 CURVE SMOOTH",
"607 758 OFFCURVE",
"702 645 OFFCURVE",
"702 370 CURVE SMOOTH",
"702 96 OFFCURVE",
"607 -18 OFFCURVE",
"379 -18 CURVE SMOOTH"
);
},
{
closed = 1;
nodes = (
"540 69 OFFCURVE",
"607 146.742 OFFCURVE",
"607 370 CURVE SMOOTH",
"607 594.255 OFFCURVE",
"540 671 OFFCURVE",
"379 671 CURVE SMOOTH",
"218 671 OFFCURVE",
"151 594.255 OFFCURVE",
"151 370 CURVE SMOOTH",
"151 146.742 OFFCURVE",
"218 69 OFFCURVE",
"379 69 CURVE SMOOTH"
);
}
);
userData = {
com.schriftgestaltung.Glyphs.lastChange = "2020-07-16 19:49:03 +0000";
};
width = 758;
}
);
unicode = 004F;
},
{
glyphname = P;
layers = (
{
background = {
paths = (
{
closed = 1;
nodes = (
"391 0 LINE",
"391 66 LINE",
"182 94 LINE",
"212 60 LINE",
"212 275 LINE",
"182 244 LINE",
"378 244 LINE SMOOTH",
"541 244 OFFCURVE",
"634 328 OFFCURVE",
"634 496 CURVE SMOOTH",
"634 668 OFFCURVE",
"565 740 OFFCURVE",
"401 740 CURVE SMOOTH",
"40 740 LINE",
"40 676 LINE",
"143 648 LINE",
"114 686 LINE",
"114 54 LINE",
"143 92 LINE",
"40 64 LINE",
"40 0 LINE"
);
},
{
closed = 1;
nodes = (
"212 692 LINE",
"183 657 LINE",
"394 657 LINE SMOOTH",
"497 657 OFFCURVE",
"538 618 OFFCURVE",
"538 495 CURVE SMOOTH",
"538 376 OFFCURVE",
"492 327 OFFCURVE",
"374 327 CURVE SMOOTH",
"182 327 LINE",
"212 299 LINE"
);
}
);
};
layerId = master01;
paths = (
{
closed = 1;
nodes = (
"391 0 LINE",
"391 66 LINE",
"182 94 LINE",
"212 60 LINE",
"212 275 LINE",
"182 244 LINE",
"378 244 LINE SMOOTH",
"541 244 OFFCURVE",
"634 328 OFFCURVE",
"634 496 CURVE SMOOTH",
"634 668 OFFCURVE",
"565 740 OFFCURVE",
"401 740 CURVE SMOOTH",
"40 740 LINE",
"40 676 LINE",
"143 648 LINE",
"114 686 LINE",
"114 54 LINE",
"143 92 LINE",
"40 64 LINE",
"40 0 LINE"
);
},
{
closed = 1;
nodes = (
"212 692 LINE",
"183 657 LINE",
"394 657 LINE SMOOTH",
"497 657 OFFCURVE",
"538 618 OFFCURVE",
"538 495 CURVE SMOOTH",
"538 376 OFFCURVE",
"492 327 OFFCURVE",
"374 327 CURVE SMOOTH",
"182 327 LINE",
"212 299 LINE"
);
}
);
width = 672;
},
{
associatedMasterId = master01;
layerId = "4C1EE8CF-6791-4C64-A29C-721CBE2C4C91";
name = foreground;
paths = (
{
closed = 1;
nodes = (
"391 0 LINE",
"391 66 LINE",
"182 94 LINE",
"212 60 LINE",
"212 275 LINE",
"182 244 LINE",
"378 244 LINE SMOOTH",
"541 244 OFFCURVE",
"634 328 OFFCURVE",
"634 496 CURVE SMOOTH",
"634 668 OFFCURVE",
"565 740 OFFCURVE",
"401 740 CURVE SMOOTH",
"40 740 LINE",
"40 676 LINE",
"143 648 LINE",
"114 686 LINE",
"114 54 LINE",
"143 92 LINE",
"40 64 LINE",
"40 0 LINE"
);
},
{
closed = 1;
nodes = (
"212 692 LINE",
"183 657 LINE",
"394 657 LINE SMOOTH",
"497 657 OFFCURVE",
"538 618 OFFCURVE",
"538 495 CURVE SMOOTH",
"538 376 OFFCURVE",
"492 327 OFFCURVE",
"374 327 CURVE SMOOTH",
"182 327 LINE",
"212 299 LINE"
);
}
);
width = 672;
}
);
unicode = 0050;
},
{
glyphname = Q;
layers = (
{
background = {
components = (
{
name = O;
transform = "{1, 0, 0, 1, 9, 2}";
}
);
paths = (
{
closed = 1;
nodes = (
"715 -129 LINE",
"660 -168 LINE",
"472 45 LINE",
"581 103 LINE"
);
}
);
};
components = (
{
name = O;
transform = "{1, 0, 0, 1, 9, 2}";
}
);
layerId = master01;
paths = (
{
closed = 1;
nodes = (
"715 -129 LINE",
"660 -168 LINE",
"472 45 LINE",
"581 103 LINE"
);
}
);
width = 758;
},
{
associatedMasterId = master01;
components = (
{
name = O;
transform = "{1, 0, 0, 1, 9, 2}";
}
);
layerId = "677DB1ED-95F2-4D89-8C77-766BF0F77DC6";
name = foreground;
paths = (
{
closed = 1;
nodes = (
"715 -129 LINE",
"660 -168 LINE",
"472 45 LINE",
"581 103 LINE"
);
}
);
width = 758;
}
);
unicode = 0051;
},
{
glyphname = R;
layers = (
{
background = {
paths = (
{
closed = 1;
nodes = (
"369 262 LINE SMOOTH",
"405 262 OFFCURVE",
"414 258 OFFCURVE",
"429 231 CURVE",
"514 56 LINE",
"530 89 LINE",
"441 64 LINE",
"441 0 LINE",
"691 0 LINE",
"691 64 LINE",
"581 93 LINE",
"623 58 LINE",
"547 219 LINE SMOOTH",
"514 289 OFFCURVE",
"488 282 OFFCURVE",
"419 284 CURVE SMOOTH",
"390 285 LINE",
"461 256 LINE",
"461 338 LINE",
"355 295 LINE",
"419 297 LINE SMOOTH",
"557 301 OFFCURVE",
"634 391 OFFCURVE",
"634 537 CURVE SMOOTH",
"634 689 OFFCURVE",
"578 740 OFFCURVE",
"411 740 CURVE SMOOTH",
"40 740 LINE",
"40 676 LINE",
"143 648 LINE",
"114 686 LINE",
"114 84 LINE",
"40 64 LINE",
"40 0 LINE",
"299 0 LINE",
"299 64 LINE",
"212 84 LINE",
"212 687 LINE",
"182 658 LINE",
"404 658 LINE SMOOTH",
"500 658 OFFCURVE",
"538 630 OFFCURVE",
"538 516 CURVE SMOOTH",
"538 400 OFFCURVE",
"487 343 OFFCURVE",
"384 343 CURVE SMOOTH",
"162 343 LINE",
"162 262 LINE"
);
}
);
};
layerId = master01;
paths = (
{
closed = 1;
nodes = (
"369 262 LINE SMOOTH",
"405 262 OFFCURVE",
"414 258 OFFCURVE",
"429 231 CURVE",
"514 56 LINE",
"530 89 LINE",
"441 64 LINE",
"441 0 LINE",
"691 0 LINE",
"691 64 LINE",
"581 93 LINE",
"623 58 LINE",
"547 219 LINE SMOOTH",
"514 289 OFFCURVE",
"488.481 281.604 OFFCURVE",
"419 284 CURVE SMOOTH",
"390 285 LINE",
"461 256 LINE",
"461 338 LINE",
"355 295 LINE",
"419 297 LINE SMOOTH",
"557.022 301.313 OFFCURVE",
"634 391 OFFCURVE",
"634 537 CURVE SMOOTH",
"634 689 OFFCURVE",
"577.532 740 OFFCURVE",
"411 740 CURVE SMOOTH",
"40 740 LINE",
"40 676 LINE",
"143 648 LINE",
"114 686 LINE",
"114 84 LINE",
"40 64 LINE",
"40 0 LINE",
"299 0 LINE",
"299 64 LINE",
"212 84 LINE",
"212 687 LINE",
"182 658 LINE",
"404 658 LINE SMOOTH",
"499.847 658 OFFCURVE",
"538 630 OFFCURVE",
"538 516 CURVE SMOOTH",
"538 400 OFFCURVE",
"487 343 OFFCURVE",
"384 343 CURVE SMOOTH",
"162 343 LINE",
"162 262 LINE"
);
}
);
width = 701;
},
{
associatedMasterId = master01;
layerId = "98BD5B9F-C305-497F-968F-27C10DBD5DFF";
name = foreground;
paths = (
{
closed = 1;
nodes = (
"369 262 LINE SMOOTH",
"405 262 OFFCURVE",
"414 258 OFFCURVE",
"429 231 CURVE",
"514 56 LINE",
"530 89 LINE",
"441 64 LINE",
"441 0 LINE",
"691 0 LINE",
"691 64 LINE",
"581 93 LINE",
"623 58 LINE",
"547 219 LINE SMOOTH",
"514 289 OFFCURVE",
"488.481 281.604 OFFCURVE",
"419 284 CURVE SMOOTH",
"390 285 LINE",
"461 256 LINE",
"461 338 LINE",
"355 295 LINE",
"419 297 LINE SMOOTH",
"557.022 301.313 OFFCURVE",
"634 391 OFFCURVE",
"634 537 CURVE SMOOTH",
"634 689 OFFCURVE",
"577.532 740 OFFCURVE",
"411 740 CURVE SMOOTH",
"40 740 LINE",
"40 676 LINE",
"143 648 LINE",
"114 686 LINE",
"114 84 LINE",
"40 64 LINE",
"40 0 LINE",
"299 0 LINE",
"299 64 LINE",
"212 84 LINE",
"212 687 LINE",
"182 658 LINE",
"404 658 LINE SMOOTH",
"499.847 658 OFFCURVE",
"538 630 OFFCURVE",
"538 516 CURVE SMOOTH",
"538 400 OFFCURVE",
"487 343 OFFCURVE",
"384 343 CURVE SMOOTH",
"162 343 LINE",
"162 262 LINE"
);
}
);
width = 701;
}
);
unicode = 0052;
},
{
glyphname = S;
layers = (
{
background = {
paths = (
{
closed = 1;
nodes = (
"573 720 LINE",
"514 738 OFFCURVE",
"434 759 OFFCURVE",
"324 758 CURVE SMOOTH",
"133 757 OFFCURVE",
"57 689 OFFCURVE",
"57 550 CURVE SMOOTH",
"55 411 OFFCURVE",
"127 345 OFFCURVE",
"301 326 CURVE SMOOTH",
"321 324 LINE SMOOTH",
"444 312 OFFCURVE",
"497 267 OFFCURVE",
"495 187 CURVE SMOOTH",
"495 97 OFFCURVE",
"448 69 OFFCURVE",
"312 72 CURVE SMOOTH",
"217 73 OFFCURVE",
"168 90 OFFCURVE",
"90 119 CURVE",
"133 82 LINE",
"144 225 LINE",
"74 237 LINE",
"27 44 LINE",
"128 7 OFFCURVE",
"197 -12 OFFCURVE",
"304 -15 CURVE SMOOTH",
"503 -21 OFFCURVE",
"594 50 OFFCURVE",
"594 203 CURVE SMOOTH",
"596 334 OFFCURVE",
"525 398 OFFCURVE",
"355 414 CURVE SMOOTH",
"334 416 LINE SMOOTH",
"197 430 OFFCURVE",
"155 463 OFFCURVE",
"157 562 CURVE",
"157 644 OFFCURVE",
"201 673 OFFCURVE",
"321 675 CURVE",
"405 676 OFFCURVE",
"448 662 OFFCURVE",
"525 637 CURVE",
"466 677 LINE",
"474 529 LINE",
"548 525 LINE"
);
}
);
};
layerId = master01;
paths = (
{
closed = 1;
nodes = (
"573 720 LINE",
"514 738 OFFCURVE",
"434 759 OFFCURVE",
"324 758 CURVE SMOOTH",
"133 757 OFFCURVE",
"57 689 OFFCURVE",
"57 550 CURVE SMOOTH",
"55 411 OFFCURVE",
"127 345 OFFCURVE",
"301 326 CURVE SMOOTH",
"321 324 LINE SMOOTH",
"444 312 OFFCURVE",
"497 267 OFFCURVE",
"495 187 CURVE SMOOTH",
"495 97 OFFCURVE",
"448 69 OFFCURVE",
"312 72 CURVE SMOOTH",
"217 73 OFFCURVE",
"168 90 OFFCURVE",
"90 119 CURVE",
"133 82 LINE",
"144 225 LINE",
"74 237 LINE",
"27 44 LINE",
"128 7 OFFCURVE",
"197 -12 OFFCURVE",
"304 -15 CURVE SMOOTH",
"503 -21 OFFCURVE",
"594 50 OFFCURVE",
"594 203 CURVE SMOOTH",
"596 334 OFFCURVE",
"525 398 OFFCURVE",
"355 414 CURVE SMOOTH",
"334 416 LINE SMOOTH",
"197 430 OFFCURVE",
"155 463 OFFCURVE",
"157 562 CURVE",
"157 644 OFFCURVE",
"201 673 OFFCURVE",
"321 675 CURVE",
"405 676 OFFCURVE",
"448 662 OFFCURVE",
"525 637 CURVE",
"466 677 LINE",
"474 529 LINE",
"548 525 LINE"
);
}
);
width = 628;
},
{
associatedMasterId = master01;
layerId = "6298C125-818A-4FD8-9041-3F5390831321";
name = foreground;
paths = (
{
closed = 1;
nodes = (
"573 720 LINE",
"514 738 OFFCURVE",
"434 759 OFFCURVE",
"324 758 CURVE SMOOTH",
"133 757 OFFCURVE",
"57 689 OFFCURVE",
"57 550 CURVE SMOOTH",
"55 411 OFFCURVE",
"127 345 OFFCURVE",
"301 326 CURVE SMOOTH",
"321 324 LINE SMOOTH",
"444 312 OFFCURVE",
"497 267 OFFCURVE",
"495 187 CURVE SMOOTH",
"495 97 OFFCURVE",
"448 69 OFFCURVE",
"312 72 CURVE SMOOTH",
"217 73 OFFCURVE",
"168 90 OFFCURVE",
"90 119 CURVE",
"133 82 LINE",
"144 225 LINE",
"74 237 LINE",
"27 44 LINE",
"128 7 OFFCURVE",
"197 -12 OFFCURVE",
"304 -15 CURVE SMOOTH",
"503 -21 OFFCURVE",
"594 50 OFFCURVE",
"594 203 CURVE SMOOTH",
"596 334 OFFCURVE",
"525 398 OFFCURVE",
"355 414 CURVE SMOOTH",
"334 416 LINE SMOOTH",
"197 430 OFFCURVE",
"155 463 OFFCURVE",
"157 562 CURVE",
"157 644 OFFCURVE",
"201 673 OFFCURVE",
"321 675 CURVE",
"405 676 OFFCURVE",
"448 662 OFFCURVE",
"525 637 CURVE",
"466 677 LINE",
"474 529 LINE",
"548 525 LINE"
);
}
);
width = 628;
}
);
unicode = 0053;
},
{
glyphname = T;
layers = (
{
background = {
paths = (
{
closed = 1;
nodes = (
"595 685 LINE",
"613 444 LINE",
"680 444 LINE",
"695 740 LINE",
"17 740 LINE",
"32 444 LINE",
"99 444 LINE",
"117 685 LINE",
"76 655 LINE",
"636 655 LINE"
);
},
{
closed = 1;
nodes = (
"307 694 LINE",
"307 56 LINE",
"328 95 LINE",
"160 63 LINE",
"160 0 LINE",
"555 0 LINE",
"555 63 LINE",
"382 96 LINE",
"405 57 LINE",
"405 694 LINE"
);
}
);
};
guideLines = (
{
position = "{0, 516}";
}
);
layerId = master01;
paths = (
{
closed = 1;
nodes = (
"595 685 LINE",
"613 444 LINE",
"680 444 LINE",
"695 740 LINE",
"17 740 LINE",
"32 444 LINE",
"99 444 LINE",
"117 685 LINE",
"76 655 LINE",
"636 655 LINE"
);
},
{
closed = 1;
nodes = (
"307 694 LINE",
"307 56 LINE",
"328 95 LINE",
"160 63 LINE",
"160 0 LINE",
"555 0 LINE",
"555 63 LINE",
"382 96 LINE",
"405 57 LINE",
"405 694 LINE"
);
}
);
width = 712;
},
{
associatedMasterId = master01;
guideLines = (
{
position = "{0, 516}";
}
);
layerId = "F8316ACB-A9D4-4AA1-ACFB-93825D398C42";
name = foreground;
paths = (
{
closed = 1;
nodes = (
"595 685 LINE",
"613 444 LINE",
"680 444 LINE",
"695 740 LINE",
"17 740 LINE",
"32 444 LINE",
"99 444 LINE",
"117 685 LINE",
"76 655 LINE",
"636 655 LINE"
);
},
{
closed = 1;
nodes = (
"307 694 LINE",
"307 56 LINE",
"328 95 LINE",
"160 63 LINE",
"160 0 LINE",
"555 0 LINE",
"555 63 LINE",
"382 96 LINE",
"405 57 LINE",
"405 694 LINE"
);
}
);
width = 712;
}
);
unicode = 0054;
},
{
glyphname = U;
layers = (
{
background = {
paths = (
{
closed = 1;
nodes = (
"641 141 LINE",
"616 180 LINE",
"557 116 OFFCURVE",
"474 76 OFFCURVE",
"370 76 CURVE SMOOTH",
"250 76 OFFCURVE",
"204 120 OFFCURVE",
"204 231 CURVE SMOOTH",
"204 683 LINE",
"168 645 LINE",
"290 676 LINE",
"290 740 LINE",
"32 740 LINE",
"32 676 LINE",
"136 648 LINE",
"106 684 LINE",
"106 219 LINE SMOOTH",
"106 51 OFFCURVE",
"177 -18 OFFCURVE",
"349 -18 CURVE SMOOTH",
"471 -18 OFFCURVE",
"535 22 OFFCURVE",
"560 113 CURVE",
"523 77 LINE",
"626 77 LINE"
);
},
{
closed = 1;
nodes = (
"638 93 LINE",
"671 56 LINE",
"671 686 LINE",
"636 647 LINE",
"745 676 LINE",
"745 740 LINE",
"486 740 LINE",
"486 676 LINE",
"610 654 LINE",
"580 684 LINE",
"580 0 LINE",
"745 0 LINE",
"745 64 LINE"
);
}
);
};
layerId = master01;
paths = (
{
closed = 1;
nodes = (
"641 141 LINE",
"616 180 LINE",
"557 116 OFFCURVE",
"474 76 OFFCURVE",
"370 76 CURVE SMOOTH",
"250 76 OFFCURVE",
"204 120 OFFCURVE",
"204 231 CURVE SMOOTH",
"204 683 LINE",
"168 645 LINE",
"290 676 LINE",
"290 740 LINE",
"32 740 LINE",
"32 676 LINE",
"136 648 LINE",
"106 684 LINE",
"106 219 LINE SMOOTH",
"106 51 OFFCURVE",
"177 -18 OFFCURVE",
"349 -18 CURVE SMOOTH",
"470.845 -18 OFFCURVE",
"535.016 22.06 OFFCURVE",
"560 113 CURVE",
"523 77 LINE",
"626 77 LINE"
);
},
{
closed = 1;
nodes = (
"638 93 LINE",
"671 56 LINE",
"671 686 LINE",
"636 647 LINE",
"745 676 LINE",
"745 740 LINE",
"486 740 LINE",
"486 676 LINE",
"610 654 LINE",
"580 684 LINE",
"580 0 LINE",
"745 0 LINE",
"745 64 LINE"
);
}
);
width = 785;
},
{
associatedMasterId = master01;
layerId = "0300EDD7-B8BC-4259-97A6-E6FBF7E0E991";
name = foreground;
paths = (
{
closed = 1;
nodes = (
"641 141 LINE",
"616 180 LINE",
"557 116 OFFCURVE",
"474 76 OFFCURVE",
"370 76 CURVE SMOOTH",
"250 76 OFFCURVE",
"204 120 OFFCURVE",
"204 231 CURVE SMOOTH",
"204 683 LINE",
"168 645 LINE",
"290 676 LINE",
"290 740 LINE",
"32 740 LINE",
"32 676 LINE",
"136 648 LINE",
"106 684 LINE",
"106 219 LINE SMOOTH",
"106 51 OFFCURVE",
"177 -18 OFFCURVE",
"349 -18 CURVE SMOOTH",
"470.845 -18 OFFCURVE",
"535.016 22.06 OFFCURVE",
"560 113 CURVE",
"523 77 LINE",
"626 77 LINE"
);
},
{
closed = 1;
nodes = (
"638 93 LINE",
"671 56 LINE",
"671 686 LINE",
"636 647 LINE",
"745 676 LINE",
"745 740 LINE",
"486 740 LINE",
"486 676 LINE",
"610 654 LINE",
"580 684 LINE",
"580 0 LINE",
"745 0 LINE",
"745 64 LINE"
);
}
);
width = 785;
}
);
unicode = 0055;
},
{
glyphname = Udieresis;
layers = (
{
background = {
components = (
{
name = U;
}
);
paths = (
{
closed = 1;
nodes = (
"292 838 OFFCURVE",
"313 859 OFFCURVE",
"313 909 CURVE SMOOTH",
"313 964 OFFCURVE",
"292 979 OFFCURVE",
"247 979 CURVE",
"198 979 OFFCURVE",
"179 964 OFFCURVE",
"179 909 CURVE SMOOTH",
"179 859 OFFCURVE",
"198 838 OFFCURVE",
"247 838 CURVE"
);
},
{
closed = 1;
nodes = (
"560 838 OFFCURVE",
"581 859 OFFCURVE",
"581 909 CURVE SMOOTH",
"581 964 OFFCURVE",
"560 979 OFFCURVE",
"518 979 CURVE",
"467 979 OFFCURVE",
"447 964 OFFCURVE",
"447 909 CURVE SMOOTH",
"447 859 OFFCURVE",
"467 838 OFFCURVE",
"518 838 CURVE"
);
}
);
};
components = (
{
name = U;
}
);
layerId = master01;
paths = (
{
closed = 1;
nodes = (
"292 838 OFFCURVE",
"313 859 OFFCURVE",
"313 909 CURVE SMOOTH",
"313 964 OFFCURVE",
"292 979 OFFCURVE",
"247 979 CURVE",
"198 979 OFFCURVE",
"179 964 OFFCURVE",
"179 909 CURVE SMOOTH",
"179 859 OFFCURVE",
"198 838 OFFCURVE",
"247 838 CURVE"
);
},
{
closed = 1;
nodes = (
"560 838 OFFCURVE",
"581 859 OFFCURVE",
"581 909 CURVE SMOOTH",
"581 964 OFFCURVE",
"560 979 OFFCURVE",
"518 979 CURVE",
"467 979 OFFCURVE",
"447 964 OFFCURVE",
"447 909 CURVE SMOOTH",
"447 859 OFFCURVE",
"467 838 OFFCURVE",
"518 838 CURVE"
);
}
);
width = 785;
},
{
associatedMasterId = master01;
components = (
{
name = U;
}
);
layerId = "64A867B2-FE30-49DC-9A72-CEF7743940F0";
name = foreground;
paths = (
{
closed = 1;
nodes = (
"292 838 OFFCURVE",
"313 859 OFFCURVE",
"313 909 CURVE SMOOTH",
"313 964 OFFCURVE",
"292 979 OFFCURVE",
"247 979 CURVE",
"198 979 OFFCURVE",
"179 964 OFFCURVE",
"179 909 CURVE SMOOTH",
"179 859 OFFCURVE",
"198 838 OFFCURVE",
"247 838 CURVE"
);
},
{
closed = 1;
nodes = (
"560 838 OFFCURVE",
"581 859 OFFCURVE",
"581 909 CURVE SMOOTH",
"581 964 OFFCURVE",
"560 979 OFFCURVE",
"518 979 CURVE",
"467 979 OFFCURVE",
"447 964 OFFCURVE",
"447 909 CURVE SMOOTH",
"447 859 OFFCURVE",
"467 838 OFFCURVE",
"518 838 CURVE"
);
}
);
width = 785;
}
);
unicode = 00DC;
},
{
glyphname = V;
layers = (
{
background = {
paths = (
{
closed = 1;
nodes = (
"759 740 LINE",
"485 740 LINE",
"485 676 LINE",
"619 648 LINE",
"600 682 LINE",
"379 56 LINE",
"419 88 LINE",
"335 88 LINE",
"374 56 LINE",
"168 688 LINE",
"148 654 LINE",
"254 676 LINE",
"254 740 LINE",
"-20 740 LINE",
"-20 676 LINE",
"103 642 LINE",
"64 678 LINE",
"290 0 LINE",
"451 0 LINE",
"690 683 LINE",
"651 647 LINE",
"759 676 LINE"
);
}
);
};
layerId = master01;
paths = (
{
closed = 1;
nodes = (
"759 740 LINE",
"485 740 LINE",
"485 676 LINE",
"619 648 LINE",
"600 682 LINE",
"379 56 LINE",
"419 88 LINE",
"335 88 LINE",
"374 56 LINE",
"168 688 LINE",
"148 654 LINE",
"254 676 LINE",
"254 740 LINE",
"-20 740 LINE",
"-20 676 LINE",
"103 642 LINE",
"64 678 LINE",
"290 0 LINE",
"451 0 LINE",
"690 683 LINE",
"651 647 LINE",
"759 676 LINE"
);
}
);
width = 739;
},
{
associatedMasterId = master01;
layerId = "76564BED-9ABC-4CF2-8F3A-117E673FD2DC";
name = foreground;
paths = (
{
closed = 1;
nodes = (
"759 740 LINE",
"485 740 LINE",
"485 676 LINE",
"619 648 LINE",
"600 682 LINE",
"379 56 LINE",
"419 88 LINE",
"335 88 LINE",
"374 56 LINE",
"168 688 LINE",
"148 654 LINE",
"254 676 LINE",
"254 740 LINE",
"-20 740 LINE",
"-20 676 LINE",
"103 642 LINE",
"64 678 LINE",
"290 0 LINE",
"451 0 LINE",
"690 683 LINE",
"651 647 LINE",
"759 676 LINE"
);
}
);
width = 739;
}
);
unicode = 0056;
},
{
glyphname = W;
layers = (
{
background = {
paths = (
{
closed = 1;
nodes = (
"510 676 LINE",
"683 0 LINE",
"844 0 LINE",
"1000 683 LINE",
"961 647 LINE",
"1069 676 LINE",
"1069 740 LINE",
"795 740 LINE",
"795 676 LINE",
"929 648 LINE",
"912 682 LINE",
"774 56 LINE",
"812 88 LINE",
"728 88 LINE",
"769 56 LINE",
"600 691 LINE",
"492 691 LINE",
"319 56 LINE",
"362 88 LINE",
"278 88 LINE",
"315 56 LINE",
"186 688 LINE",
"168 654 LINE",
"274 676 LINE",
"274 740 LINE",
"0 740 LINE",
"0 676 LINE",
"123 642 LINE",
"84 678 LINE",
"233 0 LINE",
"387 0 LINE",
"569 682 LINE"
);
},
{
closed = 1;
nodes = (
"590 551 LINE",
"587 657 LINE",
"496 657 LINE",
"499 551 LINE"
);
}
);
};
layerId = master01;
paths = (
{
closed = 1;
nodes = (
"510 676 LINE",
"683 0 LINE",
"844 0 LINE",
"1000 683 LINE",
"961 647 LINE",
"1069 676 LINE",
"1069 740 LINE",
"795 740 LINE",
"795 676 LINE",
"929 648 LINE",
"912 682 LINE",
"774 56 LINE",
"812 88 LINE",
"728 88 LINE",
"769 56 LINE",
"600 691 LINE",
"492 691 LINE",
"319 56 LINE",
"362 88 LINE",
"278 88 LINE",
"315 56 LINE",
"186 688 LINE",
"168 654 LINE",
"274 676 LINE",
"274 740 LINE",
"0 740 LINE",
"0 676 LINE",
"123 642 LINE",
"84 678 LINE",
"233 0 LINE",
"387 0 LINE",
"569 682 LINE"
);
},
{
closed = 1;
nodes = (
"590 551 LINE",
"587 657 LINE",
"496 657 LINE",
"499 551 LINE"
);
}
);
width = 1069;
},
{
associatedMasterId = master01;
layerId = "DAC4165F-5466-47BF-933D-2BC1DA79D224";
name = foreground;
paths = (
{
closed = 1;
nodes = (
"510 676 LINE",
"683 0 LINE",
"844 0 LINE",
"1000 683 LINE",
"961 647 LINE",
"1069 676 LINE",
"1069 740 LINE",
"795 740 LINE",
"795 676 LINE",
"929 648 LINE",
"912 682 LINE",
"774 56 LINE",
"812 88 LINE",
"728 88 LINE",
"769 56 LINE",
"600 691 LINE",
"492 691 LINE",
"319 56 LINE",
"362 88 LINE",
"278 88 LINE",
"315 56 LINE",
"186 688 LINE",
"168 654 LINE",
"274 676 LINE",
"274 740 LINE",
"0 740 LINE",
"0 676 LINE",
"123 642 LINE",
"84 678 LINE",
"233 0 LINE",
"387 0 LINE",
"569 682 LINE"
);
},
{
closed = 1;
nodes = (
"590 551 LINE",
"587 657 LINE",
"496 657 LINE",
"499 551 LINE"
);
}
);
width = 1069;
}
);
unicode = 0057;
},
{
glyphname = X;
layers = (
{
background = {
paths = (
{
closed = 1;
nodes = (
"122 94 LINE",
"-8 64 LINE",
"-8 4 LINE",
"319 4 LINE",
"319 64 LINE",
"170 87 LINE",
"160 48 LINE",
"679 708 LINE",
"580 651 LINE",
"725 688 LINE",
"725 740 LINE",
"398 740 LINE",
"398 688 LINE",
"565 663 LINE",
"563 699 LINE",
"53 49 LINE"
);
},
{
closed = 1;
nodes = (
"143 726 LINE",
"152 650 LINE",
"323 688 LINE",
"323 740 LINE",
"-21 740 LINE",
"-21 688 LINE",
"124 644 LINE",
"54 702 LINE",
"562 30 LINE",
"561 94 LINE",
"421 64 LINE",
"421 4 LINE",
"765 4 LINE",
"765 64 LINE",
"619 90 LINE",
"659 50 LINE"
);
}
);
};
layerId = master01;
paths = (
{
closed = 1;
nodes = (
"122 94 LINE",
"-8 64 LINE",
"-8 4 LINE",
"319 4 LINE",
"319 64 LINE",
"170 87 LINE",
"160 48 LINE",
"679 708 LINE",
"580 651 LINE",
"725 688 LINE",
"725 740 LINE",
"398 740 LINE",
"398 688 LINE",
"565 663 LINE",
"563 699 LINE",
"53 49 LINE"
);
},
{
closed = 1;
nodes = (
"143 726 LINE",
"152 650 LINE",
"323 688 LINE",
"323 740 LINE",
"-21 740 LINE",
"-21 688 LINE",
"124 644 LINE",
"54 702 LINE",
"562 30 LINE",
"561 94 LINE",
"421 64 LINE",
"421 4 LINE",
"765 4 LINE",
"765 64 LINE",
"619 90 LINE",
"659 50 LINE"
);
}
);
width = 740;
},
{
associatedMasterId = master01;
layerId = "C233A2F2-7213-4EBD-919B-445C7B6A4CCF";
name = foreground;
paths = (
{
closed = 1;
nodes = (
"122 94 LINE",
"-8 64 LINE",
"-8 4 LINE",
"319 4 LINE",
"319 64 LINE",
"170 87 LINE",
"160 48 LINE",
"679 708 LINE",
"580 651 LINE",
"725 688 LINE",
"725 740 LINE",
"398 740 LINE",
"398 688 LINE",
"565 663 LINE",
"563 699 LINE",
"53 49 LINE"
);
},
{
closed = 1;
nodes = (
"143 726 LINE",
"152 650 LINE",
"323 688 LINE",
"323 740 LINE",
"-21 740 LINE",
"-21 688 LINE",
"124 644 LINE",
"54 702 LINE",
"562 30 LINE",
"561 94 LINE",
"421 64 LINE",
"421 4 LINE",
"765 4 LINE",
"765 64 LINE",
"619 90 LINE",
"659 50 LINE"
);
}
);
width = 740;
}
);
unicode = 0058;
},
{
glyphname = Y;
layers = (
{
background = {
paths = (
{
closed = 1;
nodes = (
"319 294 LINE",
"319 56 LINE",
"340 95 LINE",
"172 63 LINE",
"172 0 LINE",
"567 0 LINE",
"567 63 LINE",
"394 96 LINE",
"417 57 LINE",
"417 294 LINE"
);
},
{
closed = 1;
nodes = (
"759 740 LINE",
"485 740 LINE",
"485 676 LINE",
"619 648 LINE",
"600 682 LINE",
"359 302 LINE",
"389 302 LINE",
"168 688 LINE",
"148 654 LINE",
"254 676 LINE",
"254 740 LINE",
"-20 740 LINE",
"-20 676 LINE",
"103 642 LINE",
"64 678 LINE",
"320 240 LINE",
"415 240 LINE",
"690 683 LINE",
"651 647 LINE",
"759 676 LINE"
);
},
{
closed = 1;
nodes = (
"408 307 LINE",
"408 339 LINE",
"340 339 LINE",
"340 307 LINE"
);
}
);
};
layerId = master01;
paths = (
{
closed = 1;
nodes = (
"319 294 LINE",
"319 56 LINE",
"340 95 LINE",
"172 63 LINE",
"172 0 LINE",
"567 0 LINE",
"567 63 LINE",
"394 96 LINE",
"417 57 LINE",
"417 294 LINE"
);
},
{
closed = 1;
nodes = (
"759 740 LINE",
"485 740 LINE",
"485 676 LINE",
"619 648 LINE",
"600 682 LINE",
"359 302 LINE",
"389 302 LINE",
"168 688 LINE",
"148 654 LINE",
"254 676 LINE",
"254 740 LINE",
"-20 740 LINE",
"-20 676 LINE",
"103 642 LINE",
"64 678 LINE",
"320 240 LINE",
"415 240 LINE",
"690 683 LINE",
"651 647 LINE",
"759 676 LINE"
);
},
{
closed = 1;
nodes = (
"408 307 LINE",
"408 339 LINE",
"340 339 LINE",
"340 307 LINE"
);
}
);
width = 712;
},
{
associatedMasterId = master01;
layerId = "76E66132-72F6-4B38-85A3-704C1FB437E9";
name = foreground;
paths = (
{
closed = 1;
nodes = (
"319 294 LINE",
"319 56 LINE",
"340 95 LINE",
"172 63 LINE",
"172 0 LINE",
"567 0 LINE",
"567 63 LINE",
"394 96 LINE",
"417 57 LINE",
"417 294 LINE"
);
},
{
closed = 1;
nodes = (
"759 740 LINE",
"485 740 LINE",
"485 676 LINE",
"619 648 LINE",
"600 682 LINE",
"359 302 LINE",
"389 302 LINE",
"168 688 LINE",
"148 654 LINE",
"254 676 LINE",
"254 740 LINE",
"-20 740 LINE",
"-20 676 LINE",
"103 642 LINE",
"64 678 LINE",
"320 240 LINE",
"415 240 LINE",
"690 683 LINE",
"651 647 LINE",
"759 676 LINE"
);
},
{
closed = 1;
nodes = (
"408 307 LINE",
"408 339 LINE",
"340 339 LINE",
"340 307 LINE"
);
}
);
width = 712;
}
);
unicode = 0059;
},
{
glyphname = Z;
layers = (
{
background = {
paths = (
{
closed = 1;
nodes = (
"61 495 LINE",
"137 495 LINE",
"157 674 LINE",
"130 658 LINE",
"550 658 LINE",
"532 680 LINE",
"56 100 LINE",
"56 0 LINE",
"656 0 LINE",
"651 263 LINE",
"569 263 LINE",
"551 40 LINE",
"611 82 LINE",
"139 82 LINE",
"144 48 LINE",
"619 636 LINE",
"619 740 LINE",
"53 740 LINE"
);
},
{
closed = 1;
nodes = (
"181 24 LINE",
"181 112 LINE",
"119 112 LINE",
"119 24 LINE"
);
},
{
closed = 1;
nodes = (
"576 634 LINE",
"576 707 LINE",
"503 707 LINE",
"503 634 LINE"
);
}
);
};
layerId = master01;
paths = (
{
closed = 1;
nodes = (
"61 495 LINE",
"137 495 LINE",
"157 674 LINE",
"130 658 LINE",
"550 658 LINE",
"532 680 LINE",
"56 100 LINE",
"56 0 LINE",
"656 0 LINE",
"651 263 LINE",
"569 263 LINE",
"551 40 LINE",
"611 82 LINE",
"139 82 LINE",
"144 48 LINE",
"619 636 LINE",
"619 740 LINE",
"53 740 LINE"
);
},
{
closed = 1;
nodes = (
"181 24 LINE",
"181 112 LINE",
"119 112 LINE",
"119 24 LINE"
);
},
{
closed = 1;
nodes = (
"576 634 LINE",
"576 707 LINE",
"503 707 LINE",
"503 634 LINE"
);
}
);
width = 709;
},
{
associatedMasterId = master01;
layerId = "53ADBF06-E221-47CD-8FDD-E61012219F1D";
name = foreground;
paths = (
{
closed = 1;
nodes = (
"61 495 LINE",
"137 495 LINE",
"157 674 LINE",
"130 658 LINE",
"550 658 LINE",
"532 680 LINE",
"56 100 LINE",
"56 0 LINE",
"656 0 LINE",
"651 263 LINE",
"569 263 LINE",
"551 40 LINE",
"611 82 LINE",
"139 82 LINE",
"144 48 LINE",
"619 636 LINE",
"619 740 LINE",
"53 740 LINE"
);
},
{
closed = 1;
nodes = (
"181 24 LINE",
"181 112 LINE",
"119 112 LINE",
"119 24 LINE"
);
},
{
closed = 1;
nodes = (
"576 634 LINE",
"576 707 LINE",
"503 707 LINE",
"503 634 LINE"
);
}
);
width = 709;
}
);
unicode = 005A;
},
{
glyphname = a;
layers = (
{
background = {
paths = (
{
closed = 1;
nodes = (
"404 327 LINE",
"404 429 OFFCURVE",
"377 472 OFFCURVE",
"270 472 CURVE SMOOTH",
"218 472 OFFCURVE",
"171 462 OFFCURVE",
"107 436 CURVE",
"79 517 LINE",
"156 546 OFFCURVE",
"213 560 OFFCURVE",
"280 560 CURVE SMOOTH",
"438 560 OFFCURVE",
"492 499 OFFCURVE",
"492 324 CURVE SMOOTH",
"492 45 LINE",
"462 80 LINE",
"556 64 LINE",
"556 0 LINE",
"404 0 LINE"
);
},
{
closed = 1;
nodes = (
"103 -15 OFFCURVE",
"46 37 OFFCURVE",
"46 155 CURVE SMOOTH",
"46 279 OFFCURVE",
"108 334 OFFCURVE",
"246 334 CURVE SMOOTH",
"309 334 OFFCURVE",
"375 327 OFFCURVE",
"421 253 CURVE",
"424 199 LINE",
"383 239 OFFCURVE",
"341 252 OFFCURVE",
"246 252 CURVE SMOOTH",
"163 252 OFFCURVE",
"135 221 OFFCURVE",
"135 156 CURVE SMOOTH",
"135 97 OFFCURVE",
"162 73 OFFCURVE",
"246 73 CURVE SMOOTH",
"332 73 OFFCURVE",
"388 98 OFFCURVE",
"419 136 CURVE",
"434 65 LINE",
"344 61 LINE",
"386 88 LINE",
"353 -6 OFFCURVE",
"299 -15 OFFCURVE",
"226 -15 CURVE SMOOTH"
);
}
);
};
layerId = master01;
paths = (
{
closed = 1;
nodes = (
"404 327 LINE",
"404 429 OFFCURVE",
"377 472 OFFCURVE",
"270 472 CURVE SMOOTH",
"218 472 OFFCURVE",
"171 462 OFFCURVE",
"107 436 CURVE",
"79 517 LINE",
"156 546 OFFCURVE",
"213 560 OFFCURVE",
"280 560 CURVE SMOOTH",
"438 560 OFFCURVE",
"492 499 OFFCURVE",
"492 324 CURVE SMOOTH",
"492 45 LINE",
"462 80 LINE",
"556 64 LINE",
"556 0 LINE",
"404 0 LINE"
);
},
{
closed = 1;
nodes = (
"103 -15 OFFCURVE",
"46 37 OFFCURVE",
"46 155 CURVE SMOOTH",
"46 279 OFFCURVE",
"108 334 OFFCURVE",
"246 334 CURVE SMOOTH",
"309 334 OFFCURVE",
"375 327 OFFCURVE",
"421 253 CURVE",
"424 199 LINE",
"383 239 OFFCURVE",
"341 252 OFFCURVE",
"246 252 CURVE SMOOTH",
"163 252 OFFCURVE",
"135 221 OFFCURVE",
"135 156 CURVE SMOOTH",
"135 97 OFFCURVE",
"162 73 OFFCURVE",
"246 73 CURVE SMOOTH",
"332 73 OFFCURVE",
"388 98 OFFCURVE",
"419 136 CURVE",
"434 65 LINE",
"344 61 LINE",
"386 88 LINE",
"353 -6 OFFCURVE",
"299 -15 OFFCURVE",
"226 -15 CURVE SMOOTH"
);
}
);
width = 607;
},
{
associatedMasterId = master01;
layerId = "A0FE3463-B2BD-4959-AAD2-315989473678";
name = foreground;
paths = (
{
closed = 1;
nodes = (
"404 327 LINE",
"404 429 OFFCURVE",
"377 472 OFFCURVE",
"270 472 CURVE SMOOTH",
"218 472 OFFCURVE",
"171 462 OFFCURVE",
"107 436 CURVE",
"79 517 LINE",
"156 546 OFFCURVE",
"213 560 OFFCURVE",
"280 560 CURVE SMOOTH",
"438 560 OFFCURVE",
"492 499 OFFCURVE",
"492 324 CURVE SMOOTH",
"492 45 LINE",
"462 80 LINE",
"556 64 LINE",
"556 0 LINE",
"404 0 LINE"
);
},
{
closed = 1;
nodes = (
"103 -15 OFFCURVE",
"46 37 OFFCURVE",
"46 155 CURVE SMOOTH",
"46 279 OFFCURVE",
"108 334 OFFCURVE",
"246 334 CURVE SMOOTH",
"309 334 OFFCURVE",
"375 327 OFFCURVE",
"421 253 CURVE",
"424 199 LINE",
"383 239 OFFCURVE",
"341 252 OFFCURVE",
"246 252 CURVE SMOOTH",
"163 252 OFFCURVE",
"135 221 OFFCURVE",
"135 156 CURVE SMOOTH",
"135 97 OFFCURVE",
"162 73 OFFCURVE",
"246 73 CURVE SMOOTH",
"332 73 OFFCURVE",
"388 98 OFFCURVE",
"419 136 CURVE",
"434 65 LINE",
"344 61 LINE",
"386 88 LINE",
"353 -6 OFFCURVE",
"299 -15 OFFCURVE",
"226 -15 CURVE SMOOTH"
);
}
);
width = 607;
}
);
unicode = 0061;
},
{
glyphname = b;
layers = (
{
background = {
paths = (
{
closed = 1;
nodes = (
"126 0 LINE",
"161 94 LINE",
"161 760 LINE",
"0 760 LINE",
"0 700 LINE",
"101 665 LINE",
"72 705 LINE",
"72 0 LINE"
);
},
{
closed = 1;
nodes = (
"542 462 OFFCURVE",
"492 558 OFFCURVE",
"357 558 CURVE SMOOTH",
"253 558 OFFCURVE",
"214 533 OFFCURVE",
"178 443 CURVE",
"221 470 LINE",
"140 470 LINE",
"160 407 LINE",
"185 440 OFFCURVE",
"231 472 OFFCURVE",
"312 472 CURVE SMOOTH",
"414 472 OFFCURVE",
"449 422 OFFCURVE",
"449 276 CURVE SMOOTH",
"449 117 OFFCURVE",
"423 70 OFFCURVE",
"310 70 CURVE SMOOTH",
"237 70 OFFCURVE",
"195 88 OFFCURVE",
"156 137 CURVE",
"142 92 LINE",
"196 17 OFFCURVE",
"245 -11 OFFCURVE",
"321 -11 CURVE SMOOTH",
"482 -11 OFFCURVE",
"542 69 OFFCURVE",
"542 280 CURVE SMOOTH"
);
}
);
};
layerId = master01;
paths = (
{
closed = 1;
nodes = (
"126 0 LINE",
"161 94 LINE",
"161 760 LINE",
"0 760 LINE",
"0 700 LINE",
"101 665 LINE",
"72 705 LINE",
"72 0 LINE"
);
},
{
closed = 1;
nodes = (
"542 462 OFFCURVE",
"492 558 OFFCURVE",
"357 558 CURVE SMOOTH",
"253 558 OFFCURVE",
"214 533 OFFCURVE",
"178 443 CURVE",
"221 470 LINE",
"140 470 LINE",
"160 407 LINE",
"185 440 OFFCURVE",
"231 472 OFFCURVE",
"312 472 CURVE SMOOTH",
"414 472 OFFCURVE",
"449 422 OFFCURVE",
"449 276 CURVE SMOOTH",
"449 117 OFFCURVE",
"423 70 OFFCURVE",
"310 70 CURVE SMOOTH",
"237 70 OFFCURVE",
"195 88 OFFCURVE",
"156 137 CURVE",
"142 92 LINE",
"196 17 OFFCURVE",
"245 -11 OFFCURVE",
"321 -11 CURVE SMOOTH",
"482 -11 OFFCURVE",
"542 69 OFFCURVE",
"542 280 CURVE SMOOTH"
);
}
);
width = 582;
},
{
associatedMasterId = master01;
layerId = "514A053B-0F76-4E0C-B4FB-9E698A4BB1CC";
name = foreground;
paths = (
{
closed = 1;
nodes = (
"126 0 LINE",
"161 94 LINE",
"161 760 LINE",
"0 760 LINE",
"0 700 LINE",
"101 665 LINE",
"72 705 LINE",
"72 0 LINE"
);
},
{
closed = 1;
nodes = (
"542 462 OFFCURVE",
"492 558 OFFCURVE",
"357 558 CURVE SMOOTH",
"253 558 OFFCURVE",
"214 533 OFFCURVE",
"178 443 CURVE",
"221 470 LINE",
"140 470 LINE",
"160 407 LINE",
"185 440 OFFCURVE",
"231 472 OFFCURVE",
"312 472 CURVE SMOOTH",
"414 472 OFFCURVE",
"449 422 OFFCURVE",
"449 276 CURVE SMOOTH",
"449 117 OFFCURVE",
"423 70 OFFCURVE",
"310 70 CURVE SMOOTH",
"237 70 OFFCURVE",
"195 88 OFFCURVE",
"156 137 CURVE",
"142 92 LINE",
"196 17 OFFCURVE",
"245 -11 OFFCURVE",
"321 -11 CURVE SMOOTH",
"482 -11 OFFCURVE",
"542 69 OFFCURVE",
"542 280 CURVE SMOOTH"
);
}
);
width = 582;
}
);
unicode = 0062;
},
{
glyphname = c;
layers = (
{
background = {
paths = (
{
closed = 1;
nodes = (
"446 132 LINE",
"399 87 OFFCURVE",
"354 70 OFFCURVE",
"284 70 CURVE SMOOTH",
"179 70 OFFCURVE",
"139 126 OFFCURVE",
"139 270 CURVE SMOOTH",
"139 418 OFFCURVE",
"175 480 OFFCURVE",
"276 480 CURVE SMOOTH",
"373 480 OFFCURVE",
"401 449 OFFCURVE",
"396 348 CURVE",
"483 348 LINE",
"496 506 OFFCURVE",
"439 560 OFFCURVE",
"276 560 CURVE SMOOTH",
"109 560 OFFCURVE",
"45 472 OFFCURVE",
"45 270 CURVE SMOOTH",
"45 77 OFFCURVE",
"120 -12 OFFCURVE",
"286 -12 CURVE SMOOTH",
"367 -12 OFFCURVE",
"428 10 OFFCURVE",
"491 66 CURVE"
);
}
);
};
layerId = master01;
paths = (
{
closed = 1;
nodes = (
"446 132 LINE",
"399 87 OFFCURVE",
"354 70 OFFCURVE",
"284 70 CURVE SMOOTH",
"179 70 OFFCURVE",
"139 126 OFFCURVE",
"139 270 CURVE SMOOTH",
"139 418 OFFCURVE",
"175 480 OFFCURVE",
"276 480 CURVE SMOOTH",
"373 480 OFFCURVE",
"401 449 OFFCURVE",
"396 348 CURVE",
"483 348 LINE",
"496 506 OFFCURVE",
"439 560 OFFCURVE",
"276 560 CURVE SMOOTH",
"109 560 OFFCURVE",
"45 472 OFFCURVE",
"45 270 CURVE SMOOTH",
"45 77 OFFCURVE",
"120 -12 OFFCURVE",
"286 -12 CURVE SMOOTH",
"367 -12 OFFCURVE",
"428 10 OFFCURVE",
"491 66 CURVE"
);
}
);
width = 530;
},
{
associatedMasterId = master01;
layerId = "D4DAD08F-55AD-4192-9FDE-6C20744405B2";
name = foreground;
paths = (
{
closed = 1;
nodes = (
"446 132 LINE",
"399 87 OFFCURVE",
"354 70 OFFCURVE",
"284 70 CURVE SMOOTH",
"179 70 OFFCURVE",
"139 126 OFFCURVE",
"139 270 CURVE SMOOTH",
"139 418 OFFCURVE",
"175 480 OFFCURVE",
"276 480 CURVE SMOOTH",
"373 480 OFFCURVE",
"401 449 OFFCURVE",
"396 348 CURVE",
"483 348 LINE",
"496 506 OFFCURVE",
"439 560 OFFCURVE",
"276 560 CURVE SMOOTH",
"109 560 OFFCURVE",
"45 472 OFFCURVE",
"45 270 CURVE SMOOTH",
"45 77 OFFCURVE",
"120 -12 OFFCURVE",
"286 -12 CURVE SMOOTH",
"367 -12 OFFCURVE",
"428 10 OFFCURVE",
"491 66 CURVE"
);
}
);
width = 530;
}
);
unicode = 0063;
},
{
glyphname = d;
layers = (
{
background = {
paths = (
{
closed = 1;
nodes = (
"511 85 LINE",
"571 60 LINE",
"571 0 LINE",
"423 0 LINE",
"423 674 LINE",
"303 700 LINE",
"303 760 LINE",
"511 760 LINE"
);
},
{
closed = 1;
nodes = (
"345 551 OFFCURVE",
"400 517 OFFCURVE",
"436 444 CURVE",
"434 377 LINE",
"401 441 OFFCURVE",
"350 470 OFFCURVE",
"271 470 CURVE SMOOTH",
"166 470 OFFCURVE",
"133 433 OFFCURVE",
"133 270 CURVE SMOOTH",
"133 125 OFFCURVE",
"169 68 OFFCURVE",
"267 68 CURVE SMOOTH",
"344 68 OFFCURVE",
"406 100 OFFCURVE",
"436 169 CURVE",
"464 83 LINE",
"373 83 LINE",
"401 109 LINE",
"395 39 OFFCURVE",
"346 -15 OFFCURVE",
"245 -15 CURVE SMOOTH",
"110 -15 OFFCURVE",
"40 54 OFFCURVE",
"40 272 CURVE SMOOTH",
"40 477 OFFCURVE",
"99 551 OFFCURVE",
"254 551 CURVE SMOOTH"
);
}
);
};
layerId = master01;
paths = (
{
closed = 1;
nodes = (
"511 85 LINE",
"571 60 LINE",
"571 0 LINE",
"423 0 LINE",
"423 674 LINE",
"303 700 LINE",
"303 760 LINE",
"511 760 LINE"
);
},
{
closed = 1;
nodes = (
"345 551 OFFCURVE",
"400 517 OFFCURVE",
"436 444 CURVE",
"434 377 LINE",
"401 441 OFFCURVE",
"350 470 OFFCURVE",
"271 470 CURVE SMOOTH",
"166 470 OFFCURVE",
"133 433 OFFCURVE",
"133 270 CURVE SMOOTH",
"133 125 OFFCURVE",
"168.661 68 OFFCURVE",
"267 68 CURVE SMOOTH",
"344.419 68 OFFCURVE",
"406.013 100.321 OFFCURVE",
"436 169 CURVE",
"464 83 LINE",
"373 83 LINE",
"401 109 LINE",
"395 39 OFFCURVE",
"346 -15 OFFCURVE",
"245 -15 CURVE SMOOTH",
"110 -15 OFFCURVE",
"40 54 OFFCURVE",
"40 272 CURVE SMOOTH",
"40 477 OFFCURVE",
"99 551 OFFCURVE",
"254 551 CURVE SMOOTH"
);
}
);
width = 600;
},
{
associatedMasterId = master01;
layerId = "92BE6D9A-92C4-4650-82C5-0D5F06AE300E";
name = foreground;
paths = (
{
closed = 1;
nodes = (
"511 85 LINE",
"571 60 LINE",
"571 0 LINE",
"423 0 LINE",
"423 674 LINE",
"303 700 LINE",
"303 760 LINE",
"511 760 LINE"
);
},
{
closed = 1;
nodes = (
"345 551 OFFCURVE",
"400 517 OFFCURVE",
"436 444 CURVE",
"434 377 LINE",
"401 441 OFFCURVE",
"350 470 OFFCURVE",
"271 470 CURVE SMOOTH",
"166 470 OFFCURVE",
"133 433 OFFCURVE",
"133 270 CURVE SMOOTH",
"133 125 OFFCURVE",
"168.661 68 OFFCURVE",
"267 68 CURVE SMOOTH",
"344.419 68 OFFCURVE",
"406.013 100.321 OFFCURVE",
"436 169 CURVE",
"464 83 LINE",
"373 83 LINE",
"401 109 LINE",
"395 39 OFFCURVE",
"346 -15 OFFCURVE",
"245 -15 CURVE SMOOTH",
"110 -15 OFFCURVE",
"40 54 OFFCURVE",
"40 272 CURVE SMOOTH",
"40 477 OFFCURVE",
"99 551 OFFCURVE",
"254 551 CURVE SMOOTH"
);
}
);
width = 600;
}
);
unicode = 0064;
},
{
glyphname = e;
layers = (
{
background = {
paths = (
{
closed = 1;
nodes = (
"104 558 OFFCURVE",
"40 471 OFFCURVE",
"40 270 CURVE SMOOTH",
"40 77 OFFCURVE",
"115 -12 OFFCURVE",
"281 -12 CURVE SMOOTH",
"362 -12 OFFCURVE",
"423 10 OFFCURVE",
"486 66 CURVE",
"441 132 LINE",
"394 87 OFFCURVE",
"349 70 OFFCURVE",
"279 70 CURVE SMOOTH",
"174 70 OFFCURVE",
"134 126 OFFCURVE",
"134 270 CURVE SMOOTH",
"134 418 OFFCURVE",
"170 480 OFFCURVE",
"272 480 CURVE SMOOTH",
"375 480 OFFCURVE",
"408 448 OFFCURVE",
"395 276 CURVE",
"429 306 LINE",
"215 308 LINE SMOOTH",
"177 308 OFFCURVE",
"170 301 OFFCURVE",
"154 250 CURVE",
"187 269 LINE",
"110 269 LINE",
"104 237 LINE",
"479 237 LINE",
"503 479 OFFCURVE",
"452 558 OFFCURVE",
"271 558 CURVE SMOOTH"
);
}
);
};
layerId = master01;
paths = (
{
closed = 1;
nodes = (
"104 558 OFFCURVE",
"40 471 OFFCURVE",
"40 270 CURVE SMOOTH",
"40 77 OFFCURVE",
"115 -12 OFFCURVE",
"281 -12 CURVE SMOOTH",
"362 -12 OFFCURVE",
"423 10 OFFCURVE",
"486 66 CURVE",
"441 132 LINE",
"394 87 OFFCURVE",
"349 70 OFFCURVE",
"279 70 CURVE SMOOTH",
"174 70 OFFCURVE",
"134 126 OFFCURVE",
"134 270 CURVE SMOOTH",
"134 418 OFFCURVE",
"170 480 OFFCURVE",
"272 480 CURVE SMOOTH",
"375 480 OFFCURVE",
"408 448 OFFCURVE",
"395 276 CURVE",
"429 306 LINE",
"215 308 LINE SMOOTH",
"177 308 OFFCURVE",
"170 301 OFFCURVE",
"154 250 CURVE",
"187 269 LINE",
"110 269 LINE",
"104 237 LINE",
"479 237 LINE",
"503 479 OFFCURVE",
"452 558 OFFCURVE",
"271 558 CURVE SMOOTH"
);
}
);
width = 535;
},
{
associatedMasterId = master01;
layerId = "5E38E7FA-7181-4CE5-B47C-7D8D93139D44";
name = foreground;
paths = (
{
closed = 1;
nodes = (
"104 558 OFFCURVE",
"40 471 OFFCURVE",
"40 270 CURVE SMOOTH",
"40 77 OFFCURVE",
"115 -12 OFFCURVE",
"281 -12 CURVE SMOOTH",
"362 -12 OFFCURVE",
"423 10 OFFCURVE",
"486 66 CURVE",
"441 132 LINE",
"394 87 OFFCURVE",
"349 70 OFFCURVE",
"279 70 CURVE SMOOTH",
"174 70 OFFCURVE",
"134 126 OFFCURVE",
"134 270 CURVE SMOOTH",
"134 418 OFFCURVE",
"170 480 OFFCURVE",
"272 480 CURVE SMOOTH",
"375 480 OFFCURVE",
"408 448 OFFCURVE",
"395 276 CURVE",
"429 306 LINE",
"215 308 LINE SMOOTH",
"177 308 OFFCURVE",
"170 301 OFFCURVE",
"154 250 CURVE",
"187 269 LINE",
"110 269 LINE",
"104 237 LINE",
"479 237 LINE",
"503 479 OFFCURVE",
"452 558 OFFCURVE",
"271 558 CURVE SMOOTH"
);
}
);
width = 535;
}
);
unicode = 0065;
},
{
glyphname = f;
layers = (
{
background = {
paths = (
{
closed = 1;
nodes = (
"28 462 LINE",
"137 452 LINE",
"182 452 LINE",
"390 462 LINE",
"390 526 LINE",
"174 538 LINE",
"136 537 LINE",
"28 525 LINE"
);
},
{
closed = 1;
nodes = (
"204 664 OFFCURVE",
"226 679 OFFCURVE",
"298 679 CURVE SMOOTH",
"336 679 OFFCURVE",
"376 673 OFFCURVE",
"408 659 CURVE",
"433 732 LINE",
"388 750 OFFCURVE",
"337 760 OFFCURVE",
"291 760 CURVE SMOOTH",
"153 760 OFFCURVE",
"114 694 OFFCURVE",
"114 525 CURVE SMOOTH",
"114 55 LINE",
"145 94 LINE",
"37 60 LINE",
"37 0 LINE",
"337 0 LINE",
"337 60 LINE",
"174 96 LINE",
"204 55 LINE",
"204 551 LINE SMOOTH"
);
}
);
};
layerId = master01;
paths = (
{
closed = 1;
nodes = (
"28 462 LINE",
"137 452 LINE",
"182 452 LINE",
"390 462 LINE",
"390 526 LINE",
"174 538 LINE",
"136 537 LINE",
"28 525 LINE"
);
},
{
closed = 1;
nodes = (
"204 664 OFFCURVE",
"226 679 OFFCURVE",
"298 679 CURVE SMOOTH",
"336 679 OFFCURVE",
"376 673 OFFCURVE",
"408 659 CURVE",
"433 732 LINE",
"388 750 OFFCURVE",
"337 760 OFFCURVE",
"291 760 CURVE SMOOTH",
"153 760 OFFCURVE",
"114 694 OFFCURVE",
"114 525 CURVE SMOOTH",
"114 55 LINE",
"145 94 LINE",
"37 60 LINE",
"37 0 LINE",
"337 0 LINE",
"337 60 LINE",
"174 96 LINE",
"204 55 LINE",
"204 551 LINE SMOOTH"
);
}
);
width = 412;
},
{
associatedMasterId = master01;
layerId = "EC85344E-D73E-412A-BC01-2056DC45F132";
name = foreground;
paths = (
{
closed = 1;
nodes = (
"28 462 LINE",
"137 452 LINE",
"182 452 LINE",
"390 462 LINE",
"390 526 LINE",
"174 538 LINE",
"136 537 LINE",
"28 525 LINE"
);
},
{
closed = 1;
nodes = (
"204 664 OFFCURVE",
"226 679 OFFCURVE",
"298 679 CURVE SMOOTH",
"336 679 OFFCURVE",
"376 673 OFFCURVE",
"408 659 CURVE",
"433 732 LINE",
"388 750 OFFCURVE",
"337 760 OFFCURVE",
"291 760 CURVE SMOOTH",
"153 760 OFFCURVE",
"114 694 OFFCURVE",
"114 525 CURVE SMOOTH",
"114 55 LINE",
"145 94 LINE",
"37 60 LINE",
"37 0 LINE",
"337 0 LINE",
"337 60 LINE",
"174 96 LINE",
"204 55 LINE",
"204 551 LINE SMOOTH"
);
}
);
width = 412;
}
);
unicode = 0066;
},
{
glyphname = g;
layers = (
{
background = {
paths = (
{
closed = 1;
nodes = (
"124 -191 OFFCURVE",
"196 -210 OFFCURVE",
"271 -210 CURVE SMOOTH",
"454 -210 OFFCURVE",
"515 -149 OFFCURVE",
"515 25 CURVE SMOOTH",
"515 495 LINE",
"486 443 LINE",
"579 480 LINE",
"579 540 LINE",
"427 540 LINE",
"427 59 LINE SMOOTH",
"427 -77 OFFCURVE",
"413 -131 OFFCURVE",
"272 -131 CURVE SMOOTH",
"197 -131 OFFCURVE",
"143 -100 OFFCURVE",
"88 -73 CURVE",
"49 -153 LINE"
);
},
{
closed = 1;
nodes = (
"45 88 OFFCURVE",
"95 -4 OFFCURVE",
"230 -4 CURVE SMOOTH",
"332 -4 OFFCURVE",
"376 21 OFFCURVE",
"406 110 CURVE",
"366 79 LINE",
"447 79 LINE",
"427 147 LINE",
"402 114 OFFCURVE",
"356 82 OFFCURVE",
"275 82 CURVE SMOOTH",
"173 82 OFFCURVE",
"138 129 OFFCURVE",
"138 267 CURVE SMOOTH",
"138 426 OFFCURVE",
"164 473 OFFCURVE",
"277 473 CURVE SMOOTH",
"350 473 OFFCURVE",
"392 455 OFFCURVE",
"431 406 CURVE",
"445 451 LINE",
"391 526 OFFCURVE",
"342 554 OFFCURVE",
"266 554 CURVE SMOOTH",
"105 554 OFFCURVE",
"45 474 OFFCURVE",
"45 263 CURVE SMOOTH"
);
}
);
};
layerId = master01;
paths = (
{
closed = 1;
nodes = (
"124 -191 OFFCURVE",
"196 -210 OFFCURVE",
"271 -210 CURVE SMOOTH",
"454 -210 OFFCURVE",
"515 -149 OFFCURVE",
"515 25 CURVE SMOOTH",
"515 495 LINE",
"486 443 LINE",
"579 480 LINE",
"579 540 LINE",
"427 540 LINE",
"427 59 LINE SMOOTH",
"427 -77 OFFCURVE",
"413 -131 OFFCURVE",
"272 -131 CURVE SMOOTH",
"197 -131 OFFCURVE",
"143 -100 OFFCURVE",
"88 -73 CURVE",
"49 -153 LINE"
);
},
{
closed = 1;
nodes = (
"45 88 OFFCURVE",
"95 -4 OFFCURVE",
"230 -4 CURVE SMOOTH",
"332 -4 OFFCURVE",
"376 21 OFFCURVE",
"406 110 CURVE",
"366 79 LINE",
"447 79 LINE",
"427 147 LINE",
"402 114 OFFCURVE",
"356 82 OFFCURVE",
"275 82 CURVE SMOOTH",
"173 82 OFFCURVE",
"138 129 OFFCURVE",
"138 267 CURVE SMOOTH",
"138 426 OFFCURVE",
"164 473 OFFCURVE",
"277 473 CURVE SMOOTH",
"350 473 OFFCURVE",
"392 455 OFFCURVE",
"431 406 CURVE",
"445 451 LINE",
"391 526 OFFCURVE",
"342 554 OFFCURVE",
"266 554 CURVE SMOOTH",
"105 554 OFFCURVE",
"45 474 OFFCURVE",
"45 263 CURVE SMOOTH"
);
}
);
width = 612;
},
{
associatedMasterId = master01;
layerId = "284C1E54-4A9F-4364-81B7-EABB405DFD8D";
name = foreground;
paths = (
{
closed = 1;
nodes = (
"124 -191 OFFCURVE",
"196 -210 OFFCURVE",
"271 -210 CURVE SMOOTH",
"454 -210 OFFCURVE",
"515 -149 OFFCURVE",
"515 25 CURVE SMOOTH",
"515 495 LINE",
"486 443 LINE",
"579 480 LINE",
"579 540 LINE",
"427 540 LINE",
"427 59 LINE SMOOTH",
"427 -77 OFFCURVE",
"413 -131 OFFCURVE",
"272 -131 CURVE SMOOTH",
"197 -131 OFFCURVE",
"143 -100 OFFCURVE",
"88 -73 CURVE",
"49 -153 LINE"
);
},
{
closed = 1;
nodes = (
"45 88 OFFCURVE",
"95 -4 OFFCURVE",
"230 -4 CURVE SMOOTH",
"332 -4 OFFCURVE",
"376 21 OFFCURVE",
"406 110 CURVE",
"366 79 LINE",
"447 79 LINE",
"427 147 LINE",
"402 114 OFFCURVE",
"356 82 OFFCURVE",
"275 82 CURVE SMOOTH",
"173 82 OFFCURVE",
"138 129 OFFCURVE",
"138 267 CURVE SMOOTH",
"138 426 OFFCURVE",
"164 473 OFFCURVE",
"277 473 CURVE SMOOTH",
"350 473 OFFCURVE",
"392 455 OFFCURVE",
"431 406 CURVE",
"445 451 LINE",
"391 526 OFFCURVE",
"342 554 OFFCURVE",
"266 554 CURVE SMOOTH",
"105 554 OFFCURVE",
"45 474 OFFCURVE",
"45 263 CURVE SMOOTH"
);
}
);
width = 612;
}
);
unicode = 0067;
},
{
glyphname = h;
layers = (
{
background = {
paths = (
{
closed = 1;
nodes = (
"46 760 LINE",
"46 700 LINE",
"134 663 LINE",
"106 705 LINE",
"106 86 LINE",
"46 60 LINE",
"46 0 LINE",
"267 0 LINE",
"267 60 LINE",
"194 86 LINE",
"194 760 LINE"
);
},
{
closed = 1;
nodes = (
"219 440 OFFCURVE",
"267 470 OFFCURVE",
"339 470 CURVE SMOOTH",
"428 470 OFFCURVE",
"454 436 OFFCURVE",
"454 335 CURVE SMOOTH",
"454 56 LINE",
"482 96 LINE",
"381 60 LINE",
"381 0 LINE",
"596 0 LINE",
"596 60 LINE",
"515 99 LINE",
"542 56 LINE",
"542 359 LINE SMOOTH",
"542 494 OFFCURVE",
"502 558 OFFCURVE",
"377 558 CURVE SMOOTH",
"287 558 OFFCURVE",
"250 529 OFFCURVE",
"215 444 CURVE",
"254 470 LINE",
"164 470 LINE",
"176 383 LINE"
);
}
);
};
layerId = master01;
paths = (
{
closed = 1;
nodes = (
"46 760 LINE",
"46 700 LINE",
"134 663 LINE",
"106 705 LINE",
"106 86 LINE",
"46 60 LINE",
"46 0 LINE",
"267 0 LINE",
"267 60 LINE",
"194 86 LINE",
"194 760 LINE"
);
},
{
closed = 1;
nodes = (
"219 440 OFFCURVE",
"267 470 OFFCURVE",
"339 470 CURVE SMOOTH",
"428 470 OFFCURVE",
"454 436 OFFCURVE",
"454 335 CURVE SMOOTH",
"454 56 LINE",
"482 96 LINE",
"381 60 LINE",
"381 0 LINE",
"596 0 LINE",
"596 60 LINE",
"515 99 LINE",
"542 56 LINE",
"542 359 LINE SMOOTH",
"542 494 OFFCURVE",
"502 558 OFFCURVE",
"377 558 CURVE SMOOTH",
"287 558 OFFCURVE",
"250 529 OFFCURVE",
"215 444 CURVE",
"254 470 LINE",
"164 470 LINE",
"176 383 LINE"
);
}
);
width = 636;
},
{
associatedMasterId = master01;
layerId = "D65AD4B7-F323-4559-AB01-DB744F567DDA";
name = foreground;
paths = (
{
closed = 1;
nodes = (
"46 760 LINE",
"46 700 LINE",
"134 663 LINE",
"106 705 LINE",
"106 86 LINE",
"46 60 LINE",
"46 0 LINE",
"267 0 LINE",
"267 60 LINE",
"194 86 LINE",
"194 760 LINE"
);
},
{
closed = 1;
nodes = (
"219 440 OFFCURVE",
"267 470 OFFCURVE",
"339 470 CURVE SMOOTH",
"428 470 OFFCURVE",
"454 436 OFFCURVE",
"454 335 CURVE SMOOTH",
"454 56 LINE",
"482 96 LINE",
"381 60 LINE",
"381 0 LINE",
"596 0 LINE",
"596 60 LINE",
"515 99 LINE",
"542 56 LINE",
"542 359 LINE SMOOTH",
"542 494 OFFCURVE",
"502 558 OFFCURVE",
"377 558 CURVE SMOOTH",
"287 558 OFFCURVE",
"250 529 OFFCURVE",
"215 444 CURVE",
"254 470 LINE",
"164 470 LINE",
"176 383 LINE"
);
}
);
width = 636;
}
);
unicode = 0068;
},
{
glyphname = i;
layers = (
{
background = {
paths = (
{
closed = 1;
nodes = (
"286 0 LINE",
"286 60 LINE",
"184 95 LINE",
"212 56 LINE",
"212 540 LINE",
"50 540 LINE",
"50 480 LINE",
"153 443 LINE",
"124 485 LINE",
"124 56 LINE",
"152 95 LINE",
"50 60 LINE",
"50 0 LINE"
);
},
{
closed = 1;
nodes = (
"201 637 OFFCURVE",
"214 650 OFFCURVE",
"214 699 CURVE SMOOTH",
"214 748 OFFCURVE",
"201 761 OFFCURVE",
"151 761 CURVE SMOOTH",
"101 761 OFFCURVE",
"88 748 OFFCURVE",
"88 699 CURVE SMOOTH",
"88 650 OFFCURVE",
"101 637 OFFCURVE",
"151 637 CURVE SMOOTH"
);
}
);
};
layerId = master01;
paths = (
{
closed = 1;
nodes = (
"286 0 LINE",
"286 60 LINE",
"184 95 LINE",
"212 56 LINE",
"212 540 LINE",
"50 540 LINE",
"50 480 LINE",
"153 443 LINE",
"124 485 LINE",
"124 56 LINE",
"152 95 LINE",
"50 60 LINE",
"50 0 LINE"
);
},
{
closed = 1;
nodes = (
"201 637 OFFCURVE",
"214 650 OFFCURVE",
"214 699 CURVE SMOOTH",
"214 748 OFFCURVE",
"201 761 OFFCURVE",
"151 761 CURVE SMOOTH",
"101 761 OFFCURVE",
"88 748 OFFCURVE",
"88 699 CURVE SMOOTH",
"88 650 OFFCURVE",
"101 637 OFFCURVE",
"151 637 CURVE SMOOTH"
);
}
);
width = 322;
},
{
associatedMasterId = master01;
layerId = "1DD3C421-823A-407F-A7BC-9800B95D1EA4";
name = foreground;
paths = (
{
closed = 1;
nodes = (
"286 0 LINE",
"286 60 LINE",
"184 95 LINE",
"212 56 LINE",
"212 540 LINE",
"50 540 LINE",
"50 480 LINE",
"153 443 LINE",
"124 485 LINE",
"124 56 LINE",
"152 95 LINE",
"50 60 LINE",
"50 0 LINE"
);
},
{
closed = 1;
nodes = (
"201 637 OFFCURVE",
"214 650 OFFCURVE",
"214 699 CURVE SMOOTH",
"214 748 OFFCURVE",
"201 761 OFFCURVE",
"151 761 CURVE SMOOTH",
"101 761 OFFCURVE",
"88 748 OFFCURVE",
"88 699 CURVE SMOOTH",
"88 650 OFFCURVE",
"101 637 OFFCURVE",
"151 637 CURVE SMOOTH"
);
}
);
width = 322;
}
);
unicode = 0069;
},
{
glyphname = j;
lastChange = "2020-08-02 21:44:09 +0000";
layers = (
{
background = {
paths = (
{
closed = 1;
nodes = (
"209 643 OFFCURVE",
"230 660 OFFCURVE",
"230 709 CURVE SMOOTH",
"230 760 OFFCURVE",
"209 774 OFFCURVE",
"169 774 CURVE",
"121 774 OFFCURVE",
"102 760 OFFCURVE",
"102 709 CURVE SMOOTH",
"102 660 OFFCURVE",
"121 643 OFFCURVE",
"169 643 CURVE"
);
},
{
closed = 1;
nodes = (
"152 -124 OFFCURVE",
"130 -139 OFFCURVE",
"58 -139 CURVE SMOOTH",
"20 -139 OFFCURVE",
"-20 -133 OFFCURVE",
"-52 -119 CURVE",
"-77 -192 LINE",
"-32 -210 OFFCURVE",
"19 -220 OFFCURVE",
"69 -220 CURVE SMOOTH",
"198 -220 OFFCURVE",
"240 -162 OFFCURVE",
"240 15 CURVE SMOOTH",
"240 540 LINE",
"19 540 LINE",
"19 466 LINE",
"185 447 LINE",
"152 485 LINE",
"152 -11 LINE SMOOTH"
);
}
);
};
layerId = master01;
paths = (
{
closed = 1;
nodes = (
"209 643 OFFCURVE",
"230 660 OFFCURVE",
"230 709 CURVE SMOOTH",
"230 760 OFFCURVE",
"209 774 OFFCURVE",
"169 774 CURVE",
"121 774 OFFCURVE",
"102 760 OFFCURVE",
"102 709 CURVE SMOOTH",
"102 660 OFFCURVE",
"121 643 OFFCURVE",
"169 643 CURVE"
);
},
{
closed = 1;
nodes = (
"152 -124 OFFCURVE",
"130 -139 OFFCURVE",
"58 -139 CURVE SMOOTH",
"20 -139 OFFCURVE",
"-20 -133 OFFCURVE",
"-52 -119 CURVE",
"-77 -192 LINE",
"-32 -210 OFFCURVE",
"19 -220 OFFCURVE",
"69 -220 CURVE SMOOTH",
"198 -220 OFFCURVE",
"240 -162 OFFCURVE",
"240 15 CURVE SMOOTH",
"240 540 LINE",
"19 540 LINE",
"19 466 LINE",
"185 447 LINE",
"152 485 LINE",
"152 -11 LINE SMOOTH"
);
}
);
width = 328;
},
{
associatedMasterId = master01;
layerId = "4AB80AB7-BD35-423D-8773-001401F26553";
name = foreground;
paths = (
{
closed = 1;
nodes = (
"209 643 OFFCURVE",
"230 660 OFFCURVE",
"230 709 CURVE SMOOTH",
"230 760 OFFCURVE",
"209 774 OFFCURVE",
"169 774 CURVE",
"121 774 OFFCURVE",
"102 760 OFFCURVE",
"102 709 CURVE SMOOTH",
"102 660 OFFCURVE",
"121 643 OFFCURVE",
"169 643 CURVE"
);
},
{
closed = 1;
nodes = (
"152 -124 OFFCURVE",
"130 -139 OFFCURVE",
"58 -139 CURVE SMOOTH",
"20 -139 OFFCURVE",
"-20 -133 OFFCURVE",
"-52 -119 CURVE",
"-77 -192 LINE",
"-32 -210 OFFCURVE",
"19 -220 OFFCURVE",
"69 -220 CURVE SMOOTH",
"198 -220 OFFCURVE",
"240 -162 OFFCURVE",
"240 15 CURVE SMOOTH",
"240 540 LINE",
"19 540 LINE",
"19 466 LINE",
"185 447 LINE",
"152 485 LINE",
"152 -11 LINE SMOOTH"
);
}
);
width = 328;
}
);
unicode = 006A;
changeCount = 4;
},
{
glyphname = k;
layers = (
{
background = {
paths = (
{
closed = 1;
nodes = (
"254 0 LINE",
"254 64 LINE",
"166 97 LINE",
"194 55 LINE",
"194 760 LINE",
"46 760 LINE",
"46 700 LINE",
"134 661 LINE",
"106 705 LINE",
"106 55 LINE",
"134 97 LINE",
"46 64 LINE",
"46 0 LINE"
);
},
{
closed = 1;
nodes = (
"451 0 LINE",
"589 0 LINE",
"589 64 LINE",
"466 96 LINE",
"522 61 LINE",
"357 317 LINE",
"341 260 LINE",
"509 488 LINE",
"413 442 LINE",
"585 480 LINE",
"585 540 LINE",
"314 540 LINE",
"314 480 LINE",
"414 451 LINE",
"423 502 LINE",
"253 272 LINE",
"329 322 LINE",
"136 322 LINE",
"156 244 LINE",
"340 244 LINE",
"280 266 LINE"
);
}
);
};
layerId = master01;
paths = (
{
closed = 1;
nodes = (
"254 0 LINE",
"254 64 LINE",
"166 97 LINE",
"194 55 LINE",
"194 760 LINE",
"46 760 LINE",
"46 700 LINE",
"134 661 LINE",
"106 705 LINE",
"106 55 LINE",
"134 97 LINE",
"46 64 LINE",
"46 0 LINE"
);
},
{
closed = 1;
nodes = (
"451 0 LINE",
"589 0 LINE",
"589 64 LINE",
"466 96 LINE",
"522 61 LINE",
"357 317 LINE",
"341 260 LINE",
"509 488 LINE",
"413 442 LINE",
"585 480 LINE",
"585 540 LINE",
"314 540 LINE",
"314 480 LINE",
"414 451 LINE",
"423 502 LINE",
"253 272 LINE",
"329 322 LINE",
"136 322 LINE",
"156 244 LINE",
"340 244 LINE",
"280 266 LINE"
);
}
);
width = 597;
},
{
associatedMasterId = master01;
layerId = "03B4BC3D-5DF7-4CE6-BD77-58F0CF3638CE";
name = foreground;
paths = (
{
closed = 1;
nodes = (
"254 0 LINE",
"254 64 LINE",
"166 97 LINE",
"194 55 LINE",
"194 760 LINE",
"46 760 LINE",
"46 700 LINE",
"134 661 LINE",
"106 705 LINE",
"106 55 LINE",
"134 97 LINE",
"46 64 LINE",
"46 0 LINE"
);
},
{
closed = 1;
nodes = (
"451 0 LINE",
"589 0 LINE",
"589 64 LINE",
"466 96 LINE",
"522 61 LINE",
"357 317 LINE",
"341 260 LINE",
"509 488 LINE",
"413 442 LINE",
"585 480 LINE",
"585 540 LINE",
"314 540 LINE",
"314 480 LINE",
"414 451 LINE",
"423 502 LINE",
"253 272 LINE",
"329 322 LINE",
"136 322 LINE",
"156 244 LINE",
"340 244 LINE",
"280 266 LINE"
);
}
);
width = 597;
}
);
unicode = 006B;
},
{
glyphname = l;
layers = (
{
background = {
paths = (
{
closed = 1;
nodes = (
"282 0 LINE",
"282 60 LINE",
"180 95 LINE",
"208 56 LINE",
"208 760 LINE",
"46 760 LINE",
"46 700 LINE",
"149 663 LINE",
"120 705 LINE",
"120 56 LINE",
"148 95 LINE",
"46 60 LINE",
"46 0 LINE"
);
}
);
};
layerId = master01;
paths = (
{
closed = 1;
nodes = (
"282 0 LINE",
"282 60 LINE",
"180 95 LINE",
"208 56 LINE",
"208 760 LINE",
"46 760 LINE",
"46 700 LINE",
"149 663 LINE",
"120 705 LINE",
"120 56 LINE",
"148 95 LINE",
"46 60 LINE",
"46 0 LINE"
);
}
);
width = 318;
},
{
associatedMasterId = master01;
layerId = "4661EE9B-D61E-4A98-9265-69C0A191405D";
name = foreground;
paths = (
{
closed = 1;
nodes = (
"282 0 LINE",
"282 60 LINE",
"180 95 LINE",
"208 56 LINE",
"208 760 LINE",
"46 760 LINE",
"46 700 LINE",
"149 663 LINE",
"120 705 LINE",
"120 56 LINE",
"148 95 LINE",
"46 60 LINE",
"46 0 LINE"
);
}
);
width = 318;
}
);
unicode = 006C;
},
{
glyphname = m;
layers = (
{
background = {
paths = (
{
closed = 1;
nodes = (
"50 540 LINE",
"50 480 LINE",
"138 443 LINE",
"110 485 LINE",
"110 56 LINE",
"138 98 LINE",
"50 60 LINE",
"50 0 LINE",
"271 0 LINE",
"271 60 LINE",
"170 96 LINE",
"198 56 LINE",
"198 540 LINE"
);
},
{
closed = 1;
nodes = (
"223 440 OFFCURVE",
"261 470 OFFCURVE",
"340 470 CURVE SMOOTH",
"403 470 OFFCURVE",
"433 436 OFFCURVE",
"433 335 CURVE SMOOTH",
"433 56 LINE",
"461 96 LINE",
"360 60 LINE",
"360 0 LINE",
"575 0 LINE",
"575 60 LINE",
"494 99 LINE",
"521 56 LINE",
"521 359 LINE SMOOTH",
"521 494 OFFCURVE",
"477 558 OFFCURVE",
"372 558 CURVE SMOOTH",
"281 558 OFFCURVE",
"254 529 OFFCURVE",
"219 444 CURVE",
"258 470 LINE",
"168 470 LINE",
"180 383 LINE"
);
},
{
closed = 1;
nodes = (
"546 440 OFFCURVE",
"584 470 OFFCURVE",
"663 470 CURVE SMOOTH",
"726 470 OFFCURVE",
"756 436 OFFCURVE",
"756 335 CURVE SMOOTH",
"756 56 LINE",
"784 96 LINE",
"683 60 LINE",
"683 0 LINE",
"898 0 LINE",
"898 60 LINE",
"817 99 LINE",
"844 56 LINE",
"844 359 LINE SMOOTH",
"844 494 OFFCURVE",
"800 558 OFFCURVE",
"695 558 CURVE SMOOTH",
"604 558 OFFCURVE",
"577 529 OFFCURVE",
"542 444 CURVE",
"581 470 LINE",
"491 470 LINE",
"503 383 LINE"
);
}
);
};
layerId = master01;
paths = (
{
closed = 1;
nodes = (
"50 540 LINE",
"50 480 LINE",
"138 443 LINE",
"110 485 LINE",
"110 56 LINE",
"138 98 LINE",
"50 60 LINE",
"50 0 LINE",
"271 0 LINE",
"271 60 LINE",
"170 96 LINE",
"198 56 LINE",
"198 540 LINE"
);
},
{
closed = 1;
nodes = (
"223 440 OFFCURVE",
"261 470 OFFCURVE",
"340 470 CURVE SMOOTH",
"403 470 OFFCURVE",
"433 436 OFFCURVE",
"433 335 CURVE SMOOTH",
"433 56 LINE",
"461 96 LINE",
"360 60 LINE",
"360 0 LINE",
"575 0 LINE",
"575 60 LINE",
"494 99 LINE",
"521 56 LINE",
"521 359 LINE SMOOTH",
"521 494 OFFCURVE",
"477 558 OFFCURVE",
"372 558 CURVE SMOOTH",
"281 558 OFFCURVE",
"254 529 OFFCURVE",
"219 444 CURVE",
"258 470 LINE",
"168 470 LINE",
"180 383 LINE"
);
},
{
closed = 1;
nodes = (
"546 440 OFFCURVE",
"584 470 OFFCURVE",
"663 470 CURVE SMOOTH",
"726 470 OFFCURVE",
"756 436 OFFCURVE",
"756 335 CURVE SMOOTH",
"756 56 LINE",
"784 96 LINE",
"683 60 LINE",
"683 0 LINE",
"898 0 LINE",
"898 60 LINE",
"817 99 LINE",
"844 56 LINE",
"844 359 LINE SMOOTH",
"844 494 OFFCURVE",
"800 558 OFFCURVE",
"695 558 CURVE SMOOTH",
"604 558 OFFCURVE",
"577 529 OFFCURVE",
"542 444 CURVE",
"581 470 LINE",
"491 470 LINE",
"503 383 LINE"
);
}
);
width = 938;
},
{
associatedMasterId = master01;
layerId = "14D8DEC6-8EB6-47F5-AAD5-2F06774B8DBF";
name = foreground;
paths = (
{
closed = 1;
nodes = (
"50 540 LINE",
"50 480 LINE",
"138 443 LINE",
"110 485 LINE",
"110 56 LINE",
"138 98 LINE",
"50 60 LINE",
"50 0 LINE",
"271 0 LINE",
"271 60 LINE",
"170 96 LINE",
"198 56 LINE",
"198 540 LINE"
);
},
{
closed = 1;
nodes = (
"223 440 OFFCURVE",
"261 470 OFFCURVE",
"340 470 CURVE SMOOTH",
"403 470 OFFCURVE",
"433 436 OFFCURVE",
"433 335 CURVE SMOOTH",
"433 56 LINE",
"461 96 LINE",
"360 60 LINE",
"360 0 LINE",
"575 0 LINE",
"575 60 LINE",
"494 99 LINE",
"521 56 LINE",
"521 359 LINE SMOOTH",
"521 494 OFFCURVE",
"477 558 OFFCURVE",
"372 558 CURVE SMOOTH",
"281 558 OFFCURVE",
"254 529 OFFCURVE",
"219 444 CURVE",
"258 470 LINE",
"168 470 LINE",
"180 383 LINE"
);
},
{
closed = 1;
nodes = (
"546 440 OFFCURVE",
"584 470 OFFCURVE",
"663 470 CURVE SMOOTH",
"726 470 OFFCURVE",
"756 436 OFFCURVE",
"756 335 CURVE SMOOTH",
"756 56 LINE",
"784 96 LINE",
"683 60 LINE",
"683 0 LINE",
"898 0 LINE",
"898 60 LINE",
"817 99 LINE",
"844 56 LINE",
"844 359 LINE SMOOTH",
"844 494 OFFCURVE",
"800 558 OFFCURVE",
"695 558 CURVE SMOOTH",
"604 558 OFFCURVE",
"577 529 OFFCURVE",
"542 444 CURVE",
"581 470 LINE",
"491 470 LINE",
"503 383 LINE"
);
}
);
width = 938;
}
);
unicode = 006D;
},
{
glyphname = n;
layers = (
{
background = {
paths = (
{
closed = 1;
nodes = (
"50 540 LINE",
"50 480 LINE",
"138 443 LINE",
"110 485 LINE",
"110 56 LINE",
"138 98 LINE",
"50 60 LINE",
"50 0 LINE",
"271 0 LINE",
"271 60 LINE",
"170 96 LINE",
"198 56 LINE",
"198 540 LINE"
);
},
{
closed = 1;
nodes = (
"223 440 OFFCURVE",
"271 470 OFFCURVE",
"343 470 CURVE SMOOTH",
"432 470 OFFCURVE",
"458 436 OFFCURVE",
"458 335 CURVE SMOOTH",
"458 56 LINE",
"486 96 LINE",
"385 60 LINE",
"385 0 LINE",
"600 0 LINE",
"600 60 LINE",
"519 99 LINE",
"546 56 LINE",
"546 359 LINE SMOOTH",
"546 494 OFFCURVE",
"506 558 OFFCURVE",
"381 558 CURVE SMOOTH",
"291 558 OFFCURVE",
"254 529 OFFCURVE",
"219 444 CURVE",
"258 470 LINE",
"168 470 LINE",
"180 383 LINE"
);
}
);
};
layerId = master01;
paths = (
{
closed = 1;
nodes = (
"50 540 LINE",
"50 480 LINE",
"138 443 LINE",
"110 485 LINE",
"110 56 LINE",
"138 98 LINE",
"50 60 LINE",
"50 0 LINE",
"271 0 LINE",
"271 60 LINE",
"170 96 LINE",
"198 56 LINE",
"198 540 LINE"
);
},
{
closed = 1;
nodes = (
"223 440 OFFCURVE",
"271 470 OFFCURVE",
"343 470 CURVE SMOOTH",
"432 470 OFFCURVE",
"458 436 OFFCURVE",
"458 335 CURVE SMOOTH",
"458 56 LINE",
"486 96 LINE",
"385 60 LINE",
"385 0 LINE",
"600 0 LINE",
"600 60 LINE",
"519 99 LINE",
"546 56 LINE",
"546 359 LINE SMOOTH",
"546 494 OFFCURVE",
"506 558 OFFCURVE",
"381 558 CURVE SMOOTH",
"291 558 OFFCURVE",
"254 529 OFFCURVE",
"219 444 CURVE",
"258 470 LINE",
"168 470 LINE",
"180 383 LINE"
);
}
);
width = 640;
},
{
associatedMasterId = master01;
layerId = "AF866FEE-68DF-4C92-93C8-091FD9C1169A";
name = foreground;
paths = (
{
closed = 1;
nodes = (
"50 540 LINE",
"50 480 LINE",
"138 443 LINE",
"110 485 LINE",
"110 56 LINE",
"138 98 LINE",
"50 60 LINE",
"50 0 LINE",
"271 0 LINE",
"271 60 LINE",
"170 96 LINE",
"198 56 LINE",
"198 540 LINE"
);
},
{
closed = 1;
nodes = (
"223 440 OFFCURVE",
"271 470 OFFCURVE",
"343 470 CURVE SMOOTH",
"432 470 OFFCURVE",
"458 436 OFFCURVE",
"458 335 CURVE SMOOTH",
"458 56 LINE",
"486 96 LINE",
"385 60 LINE",
"385 0 LINE",
"600 0 LINE",
"600 60 LINE",
"519 99 LINE",
"546 56 LINE",
"546 359 LINE SMOOTH",
"546 494 OFFCURVE",
"506 558 OFFCURVE",
"381 558 CURVE SMOOTH",
"291 558 OFFCURVE",
"254 529 OFFCURVE",
"219 444 CURVE",
"258 470 LINE",
"168 470 LINE",
"180 383 LINE"
);
}
);
width = 640;
}
);
unicode = 006E;
},
{
glyphname = ntilde;
layers = (
{
background = {
components = (
{
name = n;
transform = "{1, 0, 0, 1, 30, 0}";
}
);
paths = (
{
closed = 1;
nodes = (
"331 697 OFFCURVE",
"281 699 CURVE SMOOTH",
"244 700 OFFCURVE",
"235 686 OFFCURVE",
"234 643 CURVE",
"173 643 LINE",
"176 741 OFFCURVE",
"188 781 OFFCURVE",
"275 779 CURVE SMOOTH",
"351 777 OFFCURVE",
"361 720 OFFCURVE",
"409 718 CURVE SMOOTH",
"446 717 OFFCURVE",
"455 731 OFFCURVE",
"456 773 CURVE",
"517 773 LINE",
"514 676 OFFCURVE",
"502 636 OFFCURVE",
"415 638 CURVE SMOOTH",
"342 640 OFFCURVE"
);
}
);
};
components = (
{
name = n;
transform = "{1, 0, 0, 1, 30, 0}";
}
);
layerId = master01;
paths = (
{
closed = 1;
nodes = (
"331 697 OFFCURVE",
"281 699 CURVE SMOOTH",
"244 700 OFFCURVE",
"235 686 OFFCURVE",
"234 643 CURVE",
"173 643 LINE",
"176 741 OFFCURVE",
"188 781 OFFCURVE",
"275 779 CURVE SMOOTH",
"351 777 OFFCURVE",
"361 720 OFFCURVE",
"409 718 CURVE SMOOTH",
"446 717 OFFCURVE",
"455 731 OFFCURVE",
"456 773 CURVE",
"517 773 LINE",
"514 676 OFFCURVE",
"502 636 OFFCURVE",
"415 638 CURVE SMOOTH",
"342 640 OFFCURVE"
);
}
);
width = 656;
},
{
associatedMasterId = master01;
components = (
{
name = n;
transform = "{1, 0, 0, 1, 30, 0}";
}
);
layerId = "1CE8B797-42FC-425F-89A7-7E715C46098D";
name = foreground;
paths = (
{
closed = 1;
nodes = (
"331 697 OFFCURVE",
"281 699 CURVE SMOOTH",
"244 700 OFFCURVE",
"235 686 OFFCURVE",
"234 643 CURVE",
"173 643 LINE",
"176 741 OFFCURVE",
"188 781 OFFCURVE",
"275 779 CURVE SMOOTH",
"351 777 OFFCURVE",
"361 720 OFFCURVE",
"409 718 CURVE SMOOTH",
"446 717 OFFCURVE",
"455 731 OFFCURVE",
"456 773 CURVE",
"517 773 LINE",
"514 676 OFFCURVE",
"502 636 OFFCURVE",
"415 638 CURVE SMOOTH",
"342 640 OFFCURVE"
);
}
);
width = 656;
}
);
unicode = 00F1;
},
{
glyphname = o;
layers = (
{
background = {
paths = (
{
closed = 1;
nodes = (
"108 -10 OFFCURVE",
"45 71 OFFCURVE",
"45 273 CURVE SMOOTH",
"45 475 OFFCURVE",
"108 560 OFFCURVE",
"283 560 CURVE SMOOTH",
"458 560 OFFCURVE",
"521 475 OFFCURVE",
"521 273 CURVE SMOOTH",
"521 71 OFFCURVE",
"458 -10 OFFCURVE",
"283 -10 CURVE SMOOTH"
);
},
{
closed = 1;
nodes = (
"394 70 OFFCURVE",
"428 124 OFFCURVE",
"428 273 CURVE SMOOTH",
"428 422 OFFCURVE",
"394 480 OFFCURVE",
"283 480 CURVE SMOOTH",
"172 480 OFFCURVE",
"138 422 OFFCURVE",
"138 273 CURVE SMOOTH",
"138 124 OFFCURVE",
"172 70 OFFCURVE",
"283 70 CURVE SMOOTH"
);
}
);
};
layerId = master01;
paths = (
{
closed = 1;
nodes = (
"108 -10 OFFCURVE",
"45 71 OFFCURVE",
"45 273 CURVE SMOOTH",
"45 475 OFFCURVE",
"108 560 OFFCURVE",
"283 560 CURVE SMOOTH",
"458 560 OFFCURVE",
"521 475 OFFCURVE",
"521 273 CURVE SMOOTH",
"521 71 OFFCURVE",
"458 -10 OFFCURVE",
"283 -10 CURVE SMOOTH"
);
},
{
closed = 1;
nodes = (
"394 70 OFFCURVE",
"428 124 OFFCURVE",
"428 273 CURVE SMOOTH",
"428 422 OFFCURVE",
"394 480 OFFCURVE",
"283 480 CURVE SMOOTH",
"172 480 OFFCURVE",
"138 422 OFFCURVE",
"138 273 CURVE SMOOTH",
"138 124 OFFCURVE",
"172 70 OFFCURVE",
"283 70 CURVE SMOOTH"
);
}
);
width = 566;
},
{
associatedMasterId = master01;
layerId = "37D2B006-77A3-41FC-B74B-BDD4A9042A0F";
name = foreground;
paths = (
{
closed = 1;
nodes = (
"108 -10 OFFCURVE",
"45 71 OFFCURVE",
"45 273 CURVE SMOOTH",
"45 475 OFFCURVE",
"108 560 OFFCURVE",
"283 560 CURVE SMOOTH",
"458 560 OFFCURVE",
"521 475 OFFCURVE",
"521 273 CURVE SMOOTH",
"521 71 OFFCURVE",
"458 -10 OFFCURVE",
"283 -10 CURVE SMOOTH"
);
},
{
closed = 1;
nodes = (
"394 70 OFFCURVE",
"428 124 OFFCURVE",
"428 273 CURVE SMOOTH",
"428 422 OFFCURVE",
"394 480 OFFCURVE",
"283 480 CURVE SMOOTH",
"172 480 OFFCURVE",
"138 422 OFFCURVE",
"138 273 CURVE SMOOTH",
"138 124 OFFCURVE",
"172 70 OFFCURVE",
"283 70 CURVE SMOOTH"
);
}
);
width = 566;
}
);
unicode = 006F;
},
{
glyphname = p;
layers = (
{
background = {
components = (
{
name = space;
}
);
paths = (
{
closed = 1;
nodes = (
"50 -150 LINE",
"110 -124 LINE",
"110 455 LINE",
"50 480 LINE",
"50 540 LINE",
"198 540 LINE",
"198 -124 LINE",
"348 -150 LINE",
"348 -210 LINE",
"50 -210 LINE"
);
},
{
closed = 1;
nodes = (
"488 424 OFFCURVE",
"451 472 OFFCURVE",
"349 472 CURVE SMOOTH",
"268 472 OFFCURVE",
"222 440 OFFCURVE",
"197 407 CURVE",
"177 470 LINE",
"258 470 LINE",
"215 443 LINE",
"251 533 OFFCURVE",
"290 558 OFFCURVE",
"394 558 CURVE SMOOTH",
"529 558 OFFCURVE",
"581 461 OFFCURVE",
"581 279 CURVE SMOOTH",
"581 17 OFFCURVE",
"463 -10 OFFCURVE",
"352 -10 CURVE SMOOTH",
"269 -10 OFFCURVE",
"214 33 OFFCURVE",
"190 81 CURVE",
"193 171 LINE",
"226 108 OFFCURVE",
"268 70 OFFCURVE",
"350 70 CURVE SMOOTH",
"455 70 OFFCURVE",
"488 123 OFFCURVE",
"488 278 CURVE SMOOTH"
);
},
{
closed = 0;
nodes = (
"198 94 LINE"
);
}
);
};
components = (
{
name = space;
}
);
layerId = master01;
paths = (
{
closed = 1;
nodes = (
"50 -150 LINE",
"110 -124 LINE",
"110 455 LINE",
"50 480 LINE",
"50 540 LINE",
"198 540 LINE",
"198 -124 LINE",
"348 -150 LINE",
"348 -210 LINE",
"50 -210 LINE"
);
},
{
closed = 1;
nodes = (
"488 424 OFFCURVE",
"451 472 OFFCURVE",
"349 472 CURVE SMOOTH",
"268 472 OFFCURVE",
"222 440 OFFCURVE",
"197 407 CURVE",
"177 470 LINE",
"258 470 LINE",
"215 443 LINE",
"251 533 OFFCURVE",
"290 558 OFFCURVE",
"394 558 CURVE SMOOTH",
"529 558 OFFCURVE",
"581 461 OFFCURVE",
"581 279 CURVE SMOOTH",
"581 17 OFFCURVE",
"463 -10 OFFCURVE",
"352 -10 CURVE SMOOTH",
"269 -10 OFFCURVE",
"214 33 OFFCURVE",
"190 81 CURVE",
"193 171 LINE",
"226 108 OFFCURVE",
"268 70 OFFCURVE",
"350 70 CURVE SMOOTH",
"455 70 OFFCURVE",
"488 123 OFFCURVE",
"488 278 CURVE SMOOTH"
);
},
{
closed = 0;
nodes = (
"198 94 LINE"
);
}
);
width = 621;
},
{
associatedMasterId = master01;
components = (
{
name = space;
}
);
layerId = "5609E06F-6388-423D-961D-32F5F05D5C81";
name = foreground;
paths = (
{
closed = 1;
nodes = (
"50 -150 LINE",
"110 -124 LINE",
"110 455 LINE",
"50 480 LINE",
"50 540 LINE",
"198 540 LINE",
"198 -124 LINE",
"348 -150 LINE",
"348 -210 LINE",
"50 -210 LINE"
);
},
{
closed = 1;
nodes = (
"488 424 OFFCURVE",
"451 472 OFFCURVE",
"349 472 CURVE SMOOTH",
"268 472 OFFCURVE",
"222 440 OFFCURVE",
"197 407 CURVE",
"177 470 LINE",
"258 470 LINE",
"215 443 LINE",
"251 533 OFFCURVE",
"290 558 OFFCURVE",
"394 558 CURVE SMOOTH",
"529 558 OFFCURVE",
"581 461 OFFCURVE",
"581 279 CURVE SMOOTH",
"581 17 OFFCURVE",
"463 -10 OFFCURVE",
"352 -10 CURVE SMOOTH",
"269 -10 OFFCURVE",
"214 33 OFFCURVE",
"190 81 CURVE",
"193 171 LINE",
"226 108 OFFCURVE",
"268 70 OFFCURVE",
"350 70 CURVE SMOOTH",
"455 70 OFFCURVE",
"488 123 OFFCURVE",
"488 278 CURVE SMOOTH"
);
},
{
closed = 0;
nodes = (
"198 94 LINE"
);
}
);
width = 621;
}
);
unicode = 0070;
},
{
glyphname = q;
layers = (
{
background = {
paths = (
{
closed = 1;
nodes = (
"45 81 OFFCURVE",
"95 -15 OFFCURVE",
"230 -15 CURVE SMOOTH",
"332 -15 OFFCURVE",
"376 10 OFFCURVE",
"406 99 CURVE",
"366 68 LINE",
"447 68 LINE",
"427 136 LINE",
"402 103 OFFCURVE",
"356 71 OFFCURVE",
"275 71 CURVE SMOOTH",
"173 71 OFFCURVE",
"138 121 OFFCURVE",
"138 267 CURVE SMOOTH",
"138 426 OFFCURVE",
"164 473 OFFCURVE",
"277 473 CURVE SMOOTH",
"350 473 OFFCURVE",
"392 455 OFFCURVE",
"431 406 CURVE",
"445 451 LINE",
"391 526 OFFCURVE",
"342 554 OFFCURVE",
"266 554 CURVE SMOOTH",
"105 554 OFFCURVE",
"45 474 OFFCURVE",
"45 263 CURVE SMOOTH"
);
},
{
closed = 1;
nodes = (
"455 -110 LINE",
"286 -150 LINE",
"286 -210 LINE",
"588 -210 LINE",
"583 -207 LINE",
"587 -207 LINE",
"587 -147 LINE",
"487 -112 LINE",
"515 -152 LINE",
"515 543 LINE",
"461 543 LINE",
"426 449 LINE",
"426 -145 LINE"
);
}
);
};
layerId = master01;
paths = (
{
closed = 1;
nodes = (
"45 81 OFFCURVE",
"95 -15 OFFCURVE",
"230 -15 CURVE SMOOTH",
"332 -15 OFFCURVE",
"376 10 OFFCURVE",
"406 99 CURVE",
"366 68 LINE",
"447 68 LINE",
"427 136 LINE",
"402 103 OFFCURVE",
"356 71 OFFCURVE",
"275 71 CURVE SMOOTH",
"173 71 OFFCURVE",
"138 121 OFFCURVE",
"138 267 CURVE SMOOTH",
"138 426 OFFCURVE",
"164 473 OFFCURVE",
"277 473 CURVE SMOOTH",
"350 473 OFFCURVE",
"392 455 OFFCURVE",
"431 406 CURVE",
"445 451 LINE",
"391 526 OFFCURVE",
"342 554 OFFCURVE",
"266 554 CURVE SMOOTH",
"105 554 OFFCURVE",
"45 474 OFFCURVE",
"45 263 CURVE SMOOTH"
);
},
{
closed = 1;
nodes = (
"455 -110 LINE",
"286 -150 LINE",
"286 -210 LINE",
"588 -210 LINE",
"583 -207 LINE",
"587 -207 LINE",
"587 -147 LINE",
"487 -112 LINE",
"515 -152 LINE",
"515 543 LINE",
"461 543 LINE",
"426 449 LINE",
"426 -145 LINE"
);
}
);
width = 582;
},
{
associatedMasterId = master01;
layerId = "A381A1EE-82E6-4C2A-B355-EC29C447890C";
name = foreground;
paths = (
{
closed = 1;
nodes = (
"45 81 OFFCURVE",
"95 -15 OFFCURVE",
"230 -15 CURVE SMOOTH",
"332 -15 OFFCURVE",
"376 10 OFFCURVE",
"406 99 CURVE",
"366 68 LINE",
"447 68 LINE",
"427 136 LINE",
"402 103 OFFCURVE",
"356 71 OFFCURVE",
"275 71 CURVE SMOOTH",
"173 71 OFFCURVE",
"138 121 OFFCURVE",
"138 267 CURVE SMOOTH",
"138 426 OFFCURVE",
"164 473 OFFCURVE",
"277 473 CURVE SMOOTH",
"350 473 OFFCURVE",
"392 455 OFFCURVE",
"431 406 CURVE",
"445 451 LINE",
"391 526 OFFCURVE",
"342 554 OFFCURVE",
"266 554 CURVE SMOOTH",
"105 554 OFFCURVE",
"45 474 OFFCURVE",
"45 263 CURVE SMOOTH"
);
},
{
closed = 1;
nodes = (
"455 -110 LINE",
"286 -150 LINE",
"286 -210 LINE",
"588 -210 LINE",
"583 -207 LINE",
"587 -207 LINE",
"587 -147 LINE",
"487 -112 LINE",
"515 -152 LINE",
"515 543 LINE",
"461 543 LINE",
"426 449 LINE",
"426 -145 LINE"
);
}
);
width = 582;
}
);
unicode = 0071;
},
{
glyphname = r;
layers = (
{
background = {
paths = (
{
closed = 1;
nodes = (
"481 509 OFFCURVE",
"444 556 OFFCURVE",
"360 556 CURVE SMOOTH",
"292 556 OFFCURVE",
"246 532 OFFCURVE",
"238 460 CURVE",
"268 480 LINE",
"184 480 LINE",
"194 401 LINE",
"218 438 OFFCURVE",
"262 463 OFFCURVE",
"308 463 CURVE SMOOTH",
"370 463 OFFCURVE",
"389 452 OFFCURVE",
"389 364 CURVE",
"459 364 LINE"
);
},
{
closed = 1;
nodes = (
"47 540 LINE",
"47 480 LINE",
"145 443 LINE",
"117 485 LINE",
"117 56 LINE",
"145 98 LINE",
"47 60 LINE",
"47 0 LINE",
"338 0 LINE",
"338 60 LINE",
"177 100 LINE",
"205 56 LINE",
"205 540 LINE"
);
}
);
};
layerId = master01;
paths = (
{
closed = 1;
nodes = (
"481 509 OFFCURVE",
"444 556 OFFCURVE",
"360 556 CURVE SMOOTH",
"292 556 OFFCURVE",
"246 532 OFFCURVE",
"238 460 CURVE",
"268 480 LINE",
"184 480 LINE",
"194 401 LINE",
"218.003 438.004 OFFCURVE",
"262 463 OFFCURVE",
"308 463 CURVE SMOOTH",
"369.519 463 OFFCURVE",
"389 452 OFFCURVE",
"389 364 CURVE",
"459 364 LINE"
);
},
{
closed = 1;
nodes = (
"47 540 LINE",
"47 480 LINE",
"145 443 LINE",
"117 485 LINE",
"117 56 LINE",
"145 98 LINE",
"47 60 LINE",
"47 0 LINE",
"338 0 LINE",
"338 60 LINE",
"177 100 LINE",
"205 56 LINE",
"205 540 LINE"
);
}
);
width = 484;
},
{
associatedMasterId = master01;
layerId = "B69DE95C-20D8-4A49-AB0D-85119D9A9708";
name = foreground;
paths = (
{
closed = 1;
nodes = (
"481 509 OFFCURVE",
"444 556 OFFCURVE",
"360 556 CURVE SMOOTH",
"292 556 OFFCURVE",
"246 532 OFFCURVE",
"238 460 CURVE",
"268 480 LINE",
"184 480 LINE",
"194 401 LINE",
"218.003 438.004 OFFCURVE",
"262 463 OFFCURVE",
"308 463 CURVE SMOOTH",
"369.519 463 OFFCURVE",
"389 452 OFFCURVE",
"389 364 CURVE",
"459 364 LINE"
);
},
{
closed = 1;
nodes = (
"47 540 LINE",
"47 480 LINE",
"145 443 LINE",
"117 485 LINE",
"117 56 LINE",
"145 98 LINE",
"47 60 LINE",
"47 0 LINE",
"338 0 LINE",
"338 60 LINE",
"177 100 LINE",
"205 56 LINE",
"205 540 LINE"
);
}
);
width = 484;
}
);
unicode = 0072;
},
{
glyphname = s;
layers = (
{
background = {
paths = (
{
closed = 1;
nodes = (
"461 533 LINE",
"416 547 OFFCURVE",
"354 561 OFFCURVE",
"271 560 CURVE SMOOTH",
"130 558 OFFCURVE",
"67 510 OFFCURVE",
"69 395 CURVE SMOOTH",
"71 295 OFFCURVE",
"124 250 OFFCURVE",
"261 230 CURVE SMOOTH",
"268 229 LINE SMOOTH",
"355 218 OFFCURVE",
"393 193 OFFCURVE",
"393 146 CURVE SMOOTH",
"394 82 OFFCURVE",
"354 65 OFFCURVE",
"267 67 CURVE SMOOTH",
"198 68 OFFCURVE",
"163 78 OFFCURVE",
"106 99 CURVE",
"137 66 LINE",
"143 162 LINE",
"85 171 LINE",
"52 27 LINE",
"128 -1 OFFCURVE",
"181 -13 OFFCURVE",
"261 -15 CURVE SMOOTH",
"409 -18 OFFCURVE",
"484 38 OFFCURVE",
"482 149 CURVE SMOOTH",
"481 253 OFFCURVE",
"427 294 OFFCURVE",
"293 311 CURVE SMOOTH",
"286 312 LINE SMOOTH",
"193 325 OFFCURVE",
"158 351 OFFCURVE",
"157 407 CURVE SMOOTH",
"156 464 OFFCURVE",
"186 483 OFFCURVE",
"269 484 CURVE SMOOTH",
"330 485 OFFCURVE",
"362 477 OFFCURVE",
"420 460 CURVE",
"380 501 LINE",
"386 391 LINE",
"441 388 LINE"
);
}
);
};
layerId = master01;
paths = (
{
closed = 1;
nodes = (
"461 533 LINE",
"416 547 OFFCURVE",
"354 561 OFFCURVE",
"271 560 CURVE SMOOTH",
"130 558 OFFCURVE",
"66.95 509.782 OFFCURVE",
"69 395 CURVE SMOOTH",
"70.953 295.413 OFFCURVE",
"124.181 249.546 OFFCURVE",
"261 230 CURVE SMOOTH",
"268 229 LINE SMOOTH",
"355 218 OFFCURVE",
"393 193 OFFCURVE",
"393 146 CURVE SMOOTH",
"394 82 OFFCURVE",
"354 65 OFFCURVE",
"267 67 CURVE SMOOTH",
"198 68 OFFCURVE",
"163 78 OFFCURVE",
"106 99 CURVE",
"137 66 LINE",
"143 162 LINE",
"85 171 LINE",
"52 27 LINE",
"128 -1 OFFCURVE",
"181 -13 OFFCURVE",
"261 -15 CURVE SMOOTH",
"409 -18 OFFCURVE",
"484 38 OFFCURVE",
"482 149 CURVE SMOOTH",
"481 253 OFFCURVE",
"427 294 OFFCURVE",
"293 311 CURVE SMOOTH",
"286 312 LINE SMOOTH",
"193.097 325.272 OFFCURVE",
"158.021 350.818 OFFCURVE",
"157 407 CURVE SMOOTH",
"156.025 463.532 OFFCURVE",
"186 483 OFFCURVE",
"269 484 CURVE SMOOTH",
"330 485 OFFCURVE",
"362 477 OFFCURVE",
"420 460 CURVE",
"380 501 LINE",
"386 391 LINE",
"441 388 LINE"
);
}
);
width = 522;
},
{
associatedMasterId = master01;
layerId = "E3877DC5-3F50-4DDE-860C-C3BD32448DF1";
name = foreground;
paths = (
{
closed = 1;
nodes = (
"461 533 LINE",
"416 547 OFFCURVE",
"354 561 OFFCURVE",
"271 560 CURVE SMOOTH",
"130 558 OFFCURVE",
"66.95 509.782 OFFCURVE",
"69 395 CURVE SMOOTH",
"70.953 295.413 OFFCURVE",
"124.181 249.546 OFFCURVE",
"261 230 CURVE SMOOTH",
"268 229 LINE SMOOTH",
"355 218 OFFCURVE",
"393 193 OFFCURVE",
"393 146 CURVE SMOOTH",
"394 82 OFFCURVE",
"354 65 OFFCURVE",
"267 67 CURVE SMOOTH",
"198 68 OFFCURVE",
"163 78 OFFCURVE",
"106 99 CURVE",
"137 66 LINE",
"143 162 LINE",
"85 171 LINE",
"52 27 LINE",
"128 -1 OFFCURVE",
"181 -13 OFFCURVE",
"261 -15 CURVE SMOOTH",
"409 -18 OFFCURVE",
"484 38 OFFCURVE",
"482 149 CURVE SMOOTH",
"481 253 OFFCURVE",
"427 294 OFFCURVE",
"293 311 CURVE SMOOTH",
"286 312 LINE SMOOTH",
"193.097 325.272 OFFCURVE",
"158.021 350.818 OFFCURVE",
"157 407 CURVE SMOOTH",
"156.025 463.532 OFFCURVE",
"186 483 OFFCURVE",
"269 484 CURVE SMOOTH",
"330 485 OFFCURVE",
"362 477 OFFCURVE",
"420 460 CURVE",
"380 501 LINE",
"386 391 LINE",
"441 388 LINE"
);
}
);
width = 522;
}
);
unicode = 0073;
},
{
glyphname = t;
layers = (
{
background = {
paths = (
{
closed = 1;
nodes = (
"107 135 LINE SMOOTH",
"107 39 OFFCURVE",
"144 -18 OFFCURVE",
"268 -18 CURVE SMOOTH",
"323 -18 OFFCURVE",
"371 -6 OFFCURVE",
"430 39 CURVE",
"389 102 LINE",
"344 72 OFFCURVE",
"312 64 OFFCURVE",
"277 64 CURVE",
"208 64 OFFCURVE",
"195 96 OFFCURVE",
"195 172 CURVE SMOOTH",
"195 640 LINE",
"107 640 LINE",
"107 281 LINE"
);
},
{
closed = 1;
nodes = (
"21 465 LINE",
"130 455 LINE",
"175 455 LINE",
"383 465 LINE",
"383 529 LINE",
"167 541 LINE",
"129 540 LINE",
"21 528 LINE"
);
}
);
};
layerId = master01;
paths = (
{
closed = 1;
nodes = (
"107 135 LINE SMOOTH",
"107 39 OFFCURVE",
"144 -18 OFFCURVE",
"268 -18 CURVE SMOOTH",
"323 -18 OFFCURVE",
"371 -6 OFFCURVE",
"430 39 CURVE",
"389 102 LINE",
"344 72 OFFCURVE",
"312 64 OFFCURVE",
"277 64 CURVE",
"208 64 OFFCURVE",
"195 96 OFFCURVE",
"195 172 CURVE SMOOTH",
"195 640 LINE",
"107 640 LINE",
"107 281 LINE"
);
},
{
closed = 1;
nodes = (
"21 465 LINE",
"130 455 LINE",
"175 455 LINE",
"383 465 LINE",
"383 529 LINE",
"167 541 LINE",
"129 540 LINE",
"21 528 LINE"
);
}
);
width = 440;
},
{
associatedMasterId = master01;
layerId = "6332F884-7AE5-4867-A063-3A9916180D51";
name = foreground;
paths = (
{
closed = 1;
nodes = (
"107 135 LINE SMOOTH",
"107 39 OFFCURVE",
"144 -18 OFFCURVE",
"268 -18 CURVE SMOOTH",
"323 -18 OFFCURVE",
"371 -6 OFFCURVE",
"430 39 CURVE",
"389 102 LINE",
"344 72 OFFCURVE",
"312 64 OFFCURVE",
"277 64 CURVE",
"208 64 OFFCURVE",
"195 96 OFFCURVE",
"195 172 CURVE SMOOTH",
"195 640 LINE",
"107 640 LINE",
"107 281 LINE"
);
},
{
closed = 1;
nodes = (
"21 465 LINE",
"130 455 LINE",
"175 455 LINE",
"383 465 LINE",
"383 529 LINE",
"167 541 LINE",
"129 540 LINE",
"21 528 LINE"
);
}
);
width = 440;
}
);
unicode = 0074;
},
{
glyphname = u;
layers = (
{
background = {
components = (
{
name = space;
transform = "{1, 0, 0, 1, -100, 0}";
}
);
paths = (
{
closed = 1;
nodes = (
"101 181 LINE SMOOTH",
"101 46 OFFCURVE",
"141 -18 OFFCURVE",
"266 -18 CURVE SMOOTH",
"356 -18 OFFCURVE",
"393 11 OFFCURVE",
"428 96 CURVE",
"389 70 LINE",
"479 70 LINE",
"467 157 LINE",
"424 100 OFFCURVE",
"376 70 OFFCURVE",
"304 70 CURVE SMOOTH",
"215 70 OFFCURVE",
"189 104 OFFCURVE",
"189 205 CURVE SMOOTH",
"189 540 LINE",
"40 540 LINE",
"40 480 LINE",
"141 448 LINE",
"101 502 LINE"
);
},
{
closed = 1;
nodes = (
"449 0 LINE",
"597 0 LINE",
"597 60 LINE",
"509 97 LINE",
"537 55 LINE",
"537 540 LINE",
"353 540 LINE",
"353 480 LINE",
"487 454 LINE",
"449 502 LINE"
);
}
);
};
components = (
{
name = space;
transform = "{1, 0, 0, 1, -100, 0}";
}
);
layerId = master01;
paths = (
{
closed = 1;
nodes = (
"101 181 LINE SMOOTH",
"101 46 OFFCURVE",
"141 -18 OFFCURVE",
"266 -18 CURVE SMOOTH",
"356 -18 OFFCURVE",
"393 11 OFFCURVE",
"428 96 CURVE",
"389 70 LINE",
"479 70 LINE",
"467 157 LINE",
"424 100 OFFCURVE",
"376 70 OFFCURVE",
"304 70 CURVE SMOOTH",
"215 70 OFFCURVE",
"189 104 OFFCURVE",
"189 205 CURVE SMOOTH",
"189 540 LINE",
"40 540 LINE",
"40 480 LINE",
"141 448 LINE",
"101 502 LINE"
);
},
{
closed = 1;
nodes = (
"449 0 LINE",
"597 0 LINE",
"597 60 LINE",
"509 97 LINE",
"537 55 LINE",
"537 540 LINE",
"353 540 LINE",
"353 480 LINE",
"487 454 LINE",
"449 502 LINE"
);
}
);
width = 650;
},
{
associatedMasterId = master01;
components = (
{
name = space;
transform = "{1, 0, 0, 1, -100, 0}";
}
);
layerId = "6BD10F6A-E499-4E1B-A2D3-08FBDD0C044D";
name = foreground;
paths = (
{
closed = 1;
nodes = (
"101 181 LINE SMOOTH",
"101 46 OFFCURVE",
"141 -18 OFFCURVE",
"266 -18 CURVE SMOOTH",
"356 -18 OFFCURVE",
"393 11 OFFCURVE",
"428 96 CURVE",
"389 70 LINE",
"479 70 LINE",
"467 157 LINE",
"424 100 OFFCURVE",
"376 70 OFFCURVE",
"304 70 CURVE SMOOTH",
"215 70 OFFCURVE",
"189 104 OFFCURVE",
"189 205 CURVE SMOOTH",
"189 540 LINE",
"40 540 LINE",
"40 480 LINE",
"141 448 LINE",
"101 502 LINE"
);
},
{
closed = 1;
nodes = (
"449 0 LINE",
"597 0 LINE",
"597 60 LINE",
"509 97 LINE",
"537 55 LINE",
"537 540 LINE",
"353 540 LINE",
"353 480 LINE",
"487 454 LINE",
"449 502 LINE"
);
}
);
width = 650;
}
);
unicode = 0075;
},
{
glyphname = udieresis;
layers = (
{
background = {
components = (
{
name = u;
}
);
paths = (
{
closed = 1;
nodes = (
"253 647 OFFCURVE",
"269 664 OFFCURVE",
"269 709 CURVE SMOOTH",
"269 754 OFFCURVE",
"253 771 OFFCURVE",
"206 771 CURVE SMOOTH",
"159 771 OFFCURVE",
"143 754 OFFCURVE",
"143 709 CURVE SMOOTH",
"143 664 OFFCURVE",
"159 647 OFFCURVE",
"206 647 CURVE SMOOTH"
);
},
{
closed = 1;
nodes = (
"473 647 OFFCURVE",
"489 664 OFFCURVE",
"489 709 CURVE SMOOTH",
"489 754 OFFCURVE",
"473 771 OFFCURVE",
"426 771 CURVE SMOOTH",
"379 771 OFFCURVE",
"363 754 OFFCURVE",
"363 709 CURVE SMOOTH",
"363 664 OFFCURVE",
"379 647 OFFCURVE",
"426 647 CURVE SMOOTH"
);
}
);
};
components = (
{
name = u;
}
);
layerId = master01;
paths = (
{
closed = 1;
nodes = (
"253 647 OFFCURVE",
"269 664 OFFCURVE",
"269 709 CURVE SMOOTH",
"269 754 OFFCURVE",
"253 771 OFFCURVE",
"206 771 CURVE SMOOTH",
"159 771 OFFCURVE",
"143 754 OFFCURVE",
"143 709 CURVE SMOOTH",
"143 664 OFFCURVE",
"159 647 OFFCURVE",
"206 647 CURVE SMOOTH"
);
},
{
closed = 1;
nodes = (
"473 647 OFFCURVE",
"489 664 OFFCURVE",
"489 709 CURVE SMOOTH",
"489 754 OFFCURVE",
"473 771 OFFCURVE",
"426 771 CURVE SMOOTH",
"379 771 OFFCURVE",
"363 754 OFFCURVE",
"363 709 CURVE SMOOTH",
"363 664 OFFCURVE",
"379 647 OFFCURVE",
"426 647 CURVE SMOOTH"
);
}
);
width = 650;
},
{
associatedMasterId = master01;
components = (
{
name = u;
}
);
layerId = "A9301F4F-1DCE-406D-A8AA-8689BA519744";
name = foreground;
paths = (
{
closed = 1;
nodes = (
"253 647 OFFCURVE",
"269 664 OFFCURVE",
"269 709 CURVE SMOOTH",
"269 754 OFFCURVE",
"253 771 OFFCURVE",
"206 771 CURVE SMOOTH",
"159 771 OFFCURVE",
"143 754 OFFCURVE",
"143 709 CURVE SMOOTH",
"143 664 OFFCURVE",
"159 647 OFFCURVE",
"206 647 CURVE SMOOTH"
);
},
{
closed = 1;
nodes = (
"473 647 OFFCURVE",
"489 664 OFFCURVE",
"489 709 CURVE SMOOTH",
"489 754 OFFCURVE",
"473 771 OFFCURVE",
"426 771 CURVE SMOOTH",
"379 771 OFFCURVE",
"363 754 OFFCURVE",
"363 709 CURVE SMOOTH",
"363 664 OFFCURVE",
"379 647 OFFCURVE",
"426 647 CURVE SMOOTH"
);
}
);
width = 650;
}
);
unicode = 00FC;
},
{
glyphname = v;
layers = (
{
background = {
paths = (
{
closed = 1;
nodes = (
"504 454 LINE",
"600 480 LINE",
"600 540 LINE",
"358 540 LINE",
"358 480 LINE",
"461 459 LINE",
"455 483 LINE",
"289 59 LINE",
"327 100 LINE",
"240 100 LINE",
"296 68 LINE",
"138 483 LINE",
"126 459 LINE",
"230 480 LINE",
"230 540 LINE",
"-25 540 LINE",
"-25 480 LINE",
"83 454 LINE",
"34 483 LINE",
"223 -1 LINE",
"345 -1 LINE",
"535 480 LINE"
);
}
);
};
layerId = master01;
paths = (
{
closed = 1;
nodes = (
"504 454 LINE",
"600 480 LINE",
"600 540 LINE",
"358 540 LINE",
"358 480 LINE",
"461 459 LINE",
"455 483 LINE",
"289 59 LINE",
"327 100 LINE",
"240 100 LINE",
"296 68 LINE",
"138 483 LINE",
"126 459 LINE",
"230 480 LINE",
"230 540 LINE",
"-25 540 LINE",
"-25 480 LINE",
"83 454 LINE",
"34 483 LINE",
"223 -1 LINE",
"345 -1 LINE",
"535 480 LINE"
);
}
);
width = 590;
},
{
associatedMasterId = master01;
layerId = "E65F016C-8245-4C24-B0BF-D2293E0AB438";
name = foreground;
paths = (
{
closed = 1;
nodes = (
"504 454 LINE",
"600 480 LINE",
"600 540 LINE",
"358 540 LINE",
"358 480 LINE",
"461 459 LINE",
"455 483 LINE",
"289 59 LINE",
"327 100 LINE",
"240 100 LINE",
"296 68 LINE",
"138 483 LINE",
"126 459 LINE",
"230 480 LINE",
"230 540 LINE",
"-25 540 LINE",
"-25 480 LINE",
"83 454 LINE",
"34 483 LINE",
"223 -1 LINE",
"345 -1 LINE",
"535 480 LINE"
);
}
);
width = 590;
}
);
unicode = 0076;
},
{
glyphname = w;
layers = (
{
background = {
paths = (
{
closed = 1;
nodes = (
"492 454 LINE",
"588 480 LINE",
"588 540 LINE",
"346 540 LINE",
"346 480 LINE",
"449 459 LINE",
"443 483 LINE",
"287 59 LINE",
"325 100 LINE",
"238 100 LINE",
"294 68 LINE",
"156 483 LINE",
"144 459 LINE",
"248 480 LINE",
"248 540 LINE",
"-7 540 LINE",
"-7 480 LINE",
"101 454 LINE",
"52 483 LINE",
"221 -1 LINE",
"343 -1 LINE",
"523 480 LINE"
);
},
{
closed = 1;
nodes = (
"842 454 LINE",
"938 480 LINE",
"938 540 LINE",
"696 540 LINE",
"696 480 LINE",
"799 459 LINE",
"793 483 LINE",
"647 59 LINE",
"685 100 LINE",
"598 100 LINE",
"654 68 LINE",
"506 483 LINE",
"494 459 LINE",
"598 480 LINE",
"598 540 LINE",
"343 540 LINE",
"343 480 LINE",
"451 454 LINE",
"402 483 LINE",
"581 -1 LINE",
"703 -1 LINE",
"873 480 LINE"
);
}
);
};
layerId = master01;
paths = (
{
closed = 1;
nodes = (
"492 454 LINE",
"588 480 LINE",
"588 540 LINE",
"346 540 LINE",
"346 480 LINE",
"449 459 LINE",
"443 483 LINE",
"287 59 LINE",
"325 100 LINE",
"238 100 LINE",
"294 68 LINE",
"156 483 LINE",
"144 459 LINE",
"248 480 LINE",
"248 540 LINE",
"-7 540 LINE",
"-7 480 LINE",
"101 454 LINE",
"52 483 LINE",
"221 -1 LINE",
"343 -1 LINE",
"523 480 LINE"
);
},
{
closed = 1;
nodes = (
"842 454 LINE",
"938 480 LINE",
"938 540 LINE",
"696 540 LINE",
"696 480 LINE",
"799 459 LINE",
"793 483 LINE",
"647 59 LINE",
"685 100 LINE",
"598 100 LINE",
"654 68 LINE",
"506 483 LINE",
"494 459 LINE",
"598 480 LINE",
"598 540 LINE",
"343 540 LINE",
"343 480 LINE",
"451 454 LINE",
"402 483 LINE",
"581 -1 LINE",
"703 -1 LINE",
"873 480 LINE"
);
}
);
width = 918;
},
{
associatedMasterId = master01;
layerId = "4DE8A89C-0AEC-4C4F-B502-3F0750402769";
name = foreground;
paths = (
{
closed = 1;
nodes = (
"492 454 LINE",
"588 480 LINE",
"588 540 LINE",
"346 540 LINE",
"346 480 LINE",
"449 459 LINE",
"443 483 LINE",
"287 59 LINE",
"325 100 LINE",
"238 100 LINE",
"294 68 LINE",
"156 483 LINE",
"144 459 LINE",
"248 480 LINE",
"248 540 LINE",
"-7 540 LINE",
"-7 480 LINE",
"101 454 LINE",
"52 483 LINE",
"221 -1 LINE",
"343 -1 LINE",
"523 480 LINE"
);
},
{
closed = 1;
nodes = (
"842 454 LINE",
"938 480 LINE",
"938 540 LINE",
"696 540 LINE",
"696 480 LINE",
"799 459 LINE",
"793 483 LINE",
"647 59 LINE",
"685 100 LINE",
"598 100 LINE",
"654 68 LINE",
"506 483 LINE",
"494 459 LINE",
"598 480 LINE",
"598 540 LINE",
"343 540 LINE",
"343 480 LINE",
"451 454 LINE",
"402 483 LINE",
"581 -1 LINE",
"703 -1 LINE",
"873 480 LINE"
);
}
);
width = 918;
}
);
unicode = 0077;
},
{
glyphname = x;
layers = (
{
background = {
paths = (
{
closed = 1;
nodes = (
"99 90 LINE",
"3 64 LINE",
"3 4 LINE",
"245 4 LINE",
"245 64 LINE",
"142 85 LINE",
"148 61 LINE",
"503 480 LINE",
"472 454 LINE",
"568 480 LINE",
"568 540 LINE",
"326 540 LINE",
"326 480 LINE",
"429 459 LINE",
"403 483 LINE",
"48 64 LINE"
);
},
{
closed = 1;
nodes = (
"166 483 LINE",
"144 459 LINE",
"248 480 LINE",
"248 540 LINE",
"-7 540 LINE",
"-7 480 LINE",
"101 454 LINE",
"42 490 LINE",
"415 62 LINE",
"447 85 LINE",
"343 64 LINE",
"343 4 LINE",
"598 4 LINE",
"598 64 LINE",
"490 90 LINE",
"542 55 LINE"
);
}
);
};
layerId = master01;
paths = (
{
closed = 1;
nodes = (
"99 90 LINE",
"3 64 LINE",
"3 4 LINE",
"245 4 LINE",
"245 64 LINE",
"142 85 LINE",
"148 61 LINE",
"503 480 LINE",
"472 454 LINE",
"568 480 LINE",
"568 540 LINE",
"326 540 LINE",
"326 480 LINE",
"429 459 LINE",
"403 483 LINE",
"48 64 LINE"
);
},
{
closed = 1;
nodes = (
"166 483 LINE",
"144 459 LINE",
"248 480 LINE",
"248 540 LINE",
"-7 540 LINE",
"-7 480 LINE",
"101 454 LINE",
"42 490 LINE",
"415 62 LINE",
"447 85 LINE",
"343 64 LINE",
"343 4 LINE",
"598 4 LINE",
"598 64 LINE",
"490 90 LINE",
"542 55 LINE"
);
}
);
width = 590;
},
{
associatedMasterId = master01;
layerId = "F13F4F1C-5C0A-479D-B369-83A32194E1A7";
name = foreground;
paths = (
{
closed = 1;
nodes = (
"99 90 LINE",
"3 64 LINE",
"3 4 LINE",
"245 4 LINE",
"245 64 LINE",
"142 85 LINE",
"148 61 LINE",
"503 480 LINE",
"472 454 LINE",
"568 480 LINE",
"568 540 LINE",
"326 540 LINE",
"326 480 LINE",
"429 459 LINE",
"403 483 LINE",
"48 64 LINE"
);
},
{
closed = 1;
nodes = (
"166 483 LINE",
"144 459 LINE",
"248 480 LINE",
"248 540 LINE",
"-7 540 LINE",
"-7 480 LINE",
"101 454 LINE",
"42 490 LINE",
"415 62 LINE",
"447 85 LINE",
"343 64 LINE",
"343 4 LINE",
"598 4 LINE",
"598 64 LINE",
"490 90 LINE",
"542 55 LINE"
);
}
);
width = 590;
}
);
unicode = 0078;
},
{
glyphname = y;
layers = (
{
background = {
paths = (
{
closed = 1;
nodes = (
"262 -11 LINE SMOOTH",
"228 -112 OFFCURVE",
"220 -139 OFFCURVE",
"148 -139 CURVE SMOOTH",
"110 -139 OFFCURVE",
"70 -133 OFFCURVE",
"38 -119 CURVE",
"13 -192 LINE",
"58 -210 OFFCURVE",
"109 -220 OFFCURVE",
"159 -220 CURVE SMOOTH",
"288 -220 OFFCURVE",
"290 -147 OFFCURVE",
"353 15 CURVE SMOOTH",
"533 480 LINE",
"502 454 LINE",
"598 480 LINE",
"598 540 LINE",
"356 540 LINE",
"356 480 LINE",
"459 459 LINE",
"441 483 LINE",
"276 31 LINE"
);
},
{
closed = 1;
nodes = (
"136 483 LINE",
"124 459 LINE",
"228 480 LINE",
"228 540 LINE",
"-27 540 LINE",
"-27 480 LINE",
"81 454 LINE",
"32 483 LINE",
"221 -1 LINE",
"319 -1 LINE"
);
},
{
closed = 1;
nodes = (
"330 52 LINE",
"330 107 LINE",
"248 107 LINE",
"248 52 LINE"
);
}
);
};
layerId = master01;
paths = (
{
closed = 1;
nodes = (
"262 -11 LINE SMOOTH",
"228 -112 OFFCURVE",
"220 -139 OFFCURVE",
"148 -139 CURVE SMOOTH",
"110 -139 OFFCURVE",
"70 -133 OFFCURVE",
"38 -119 CURVE",
"13 -192 LINE",
"58 -210 OFFCURVE",
"109 -220 OFFCURVE",
"159 -220 CURVE SMOOTH",
"288 -220 OFFCURVE",
"290 -147 OFFCURVE",
"353 15 CURVE SMOOTH",
"533 480 LINE",
"502 454 LINE",
"598 480 LINE",
"598 540 LINE",
"356 540 LINE",
"356 480 LINE",
"459 459 LINE",
"441 483 LINE",
"276 31 LINE"
);
},
{
closed = 1;
nodes = (
"136 483 LINE",
"124 459 LINE",
"228 480 LINE",
"228 540 LINE",
"-27 540 LINE",
"-27 480 LINE",
"81 454 LINE",
"32 483 LINE",
"221 -1 LINE",
"319 -1 LINE"
);
},
{
closed = 1;
nodes = (
"330 52 LINE",
"330 107 LINE",
"248 107 LINE",
"248 52 LINE"
);
}
);
width = 590;
},
{
associatedMasterId = master01;
layerId = "2D25FE24-E450-4116-A7A5-6234BAC080A1";
name = foreground;
paths = (
{
closed = 1;
nodes = (
"262 -11 LINE SMOOTH",
"228 -112 OFFCURVE",
"220 -139 OFFCURVE",
"148 -139 CURVE SMOOTH",
"110 -139 OFFCURVE",
"70 -133 OFFCURVE",
"38 -119 CURVE",
"13 -192 LINE",
"58 -210 OFFCURVE",
"109 -220 OFFCURVE",
"159 -220 CURVE SMOOTH",
"288 -220 OFFCURVE",
"290 -147 OFFCURVE",
"353 15 CURVE SMOOTH",
"533 480 LINE",
"502 454 LINE",
"598 480 LINE",
"598 540 LINE",
"356 540 LINE",
"356 480 LINE",
"459 459 LINE",
"441 483 LINE",
"276 31 LINE"
);
},
{
closed = 1;
nodes = (
"136 483 LINE",
"124 459 LINE",
"228 480 LINE",
"228 540 LINE",
"-27 540 LINE",
"-27 480 LINE",
"81 454 LINE",
"32 483 LINE",
"221 -1 LINE",
"319 -1 LINE"
);
},
{
closed = 1;
nodes = (
"330 52 LINE",
"330 107 LINE",
"248 107 LINE",
"248 52 LINE"
);
}
);
width = 590;
}
);
unicode = 0079;
},
{
glyphname = z;
layers = (
{
background = {
paths = (
{
closed = 1;
nodes = (
"42 331 LINE",
"108 331 LINE",
"129 498 LINE",
"107 478 LINE",
"110 466 LINE",
"411 466 LINE",
"373 483 LINE",
"44 79 LINE",
"44 0 LINE",
"503 0 LINE",
"499 213 LINE",
"428 214 LINE",
"417 56 LINE",
"463 81 LINE",
"156 81 LINE",
"146 61 LINE",
"460 457 LINE",
"462 540 LINE",
"42 540 LINE"
);
}
);
};
layerId = master01;
paths = (
{
closed = 1;
nodes = (
"42 331 LINE",
"108 331 LINE",
"129 498 LINE",
"107 478 LINE",
"110 466 LINE",
"411 466 LINE",
"373 483 LINE",
"44 79 LINE",
"44 0 LINE",
"503 0 LINE",
"499 213 LINE",
"428 214 LINE",
"417 56 LINE",
"463 81 LINE",
"156 81 LINE",
"146 61 LINE",
"460 457 LINE",
"462 540 LINE",
"42 540 LINE"
);
}
);
width = 550;
},
{
associatedMasterId = master01;
layerId = "A59D7558-6A51-49D8-B221-EEB9C178D2A8";
name = foreground;
paths = (
{
closed = 1;
nodes = (
"42 331 LINE",
"108 331 LINE",
"129 498 LINE",
"107 478 LINE",
"110 466 LINE",
"411 466 LINE",
"373 483 LINE",
"44 79 LINE",
"44 0 LINE",
"503 0 LINE",
"499 213 LINE",
"428 214 LINE",
"417 56 LINE",
"463 81 LINE",
"156 81 LINE",
"146 61 LINE",
"460 457 LINE",
"462 540 LINE",
"42 540 LINE"
);
}
);
width = 550;
}
);
unicode = 007A;
},
{
glyphname = zero;
layers = (
{
background = {
paths = (
{
closed = 1;
nodes = (
"151 -18 OFFCURVE",
"65 96 OFFCURVE",
"65 370 CURVE SMOOTH",
"65 645 OFFCURVE",
"151 758 OFFCURVE",
"359 758 CURVE SMOOTH",
"567 758 OFFCURVE",
"653 645 OFFCURVE",
"653 370 CURVE SMOOTH",
"653 96 OFFCURVE",
"567 -18 OFFCURVE",
"359 -18 CURVE SMOOTH"
);
},
{
closed = 1;
nodes = (
"499 68 OFFCURVE",
"557 156 OFFCURVE",
"557 370 CURVE SMOOTH",
"557 585 OFFCURVE",
"499 672 OFFCURVE",
"359 672 CURVE SMOOTH",
"219 672 OFFCURVE",
"161 585 OFFCURVE",
"161 370 CURVE SMOOTH",
"161 156 OFFCURVE",
"219 68 OFFCURVE",
"359 68 CURVE SMOOTH"
);
}
);
};
layerId = master01;
paths = (
{
closed = 1;
nodes = (
"151 -18 OFFCURVE",
"65 96 OFFCURVE",
"65 370 CURVE SMOOTH",
"65 645 OFFCURVE",
"151 758 OFFCURVE",
"359 758 CURVE SMOOTH",
"567 758 OFFCURVE",
"653 645 OFFCURVE",
"653 370 CURVE SMOOTH",
"653 96 OFFCURVE",
"567 -18 OFFCURVE",
"359 -18 CURVE SMOOTH"
);
},
{
closed = 1;
nodes = (
"499 68 OFFCURVE",
"557 156 OFFCURVE",
"557 370 CURVE SMOOTH",
"557 585 OFFCURVE",
"499 672 OFFCURVE",
"359 672 CURVE SMOOTH",
"219 672 OFFCURVE",
"161 585 OFFCURVE",
"161 370 CURVE SMOOTH",
"161 156 OFFCURVE",
"219 68 OFFCURVE",
"359 68 CURVE SMOOTH"
);
}
);
width = 718;
},
{
associatedMasterId = master01;
layerId = "240287D6-26F0-4227-8C5C-CBAF3DDDCE44";
name = foreground;
paths = (
{
closed = 1;
nodes = (
"151 -18 OFFCURVE",
"65 96 OFFCURVE",
"65 370 CURVE SMOOTH",
"65 645 OFFCURVE",
"151 758 OFFCURVE",
"359 758 CURVE SMOOTH",
"567 758 OFFCURVE",
"653 645 OFFCURVE",
"653 370 CURVE SMOOTH",
"653 96 OFFCURVE",
"567 -18 OFFCURVE",
"359 -18 CURVE SMOOTH"
);
},
{
closed = 1;
nodes = (
"499 68 OFFCURVE",
"557 156 OFFCURVE",
"557 370 CURVE SMOOTH",
"557 585 OFFCURVE",
"499 672 OFFCURVE",
"359 672 CURVE SMOOTH",
"219 672 OFFCURVE",
"161 585 OFFCURVE",
"161 370 CURVE SMOOTH",
"161 156 OFFCURVE",
"219 68 OFFCURVE",
"359 68 CURVE SMOOTH"
);
}
);
width = 718;
}
);
unicode = 0030;
},
{
glyphname = one;
layers = (
{
background = {
paths = (
{
closed = 1;
nodes = (
"237 92 LINE",
"277 55 LINE",
"277 740 LINE",
"179 740 LINE",
"14 689 LINE",
"14 635 LINE",
"209 635 LINE",
"179 673 LINE",
"179 55 LINE",
"209 92 LINE",
"10 64 LINE",
"10 0 LINE",
"437 0 LINE",
"437 64 LINE"
);
}
);
};
layerId = master01;
paths = (
{
closed = 1;
nodes = (
"237 92 LINE",
"277 55 LINE",
"277 740 LINE",
"179 740 LINE",
"14 689 LINE",
"14 635 LINE",
"209 635 LINE",
"179 673 LINE",
"179 55 LINE",
"209 92 LINE",
"10 64 LINE",
"10 0 LINE",
"437 0 LINE",
"437 64 LINE"
);
}
);
width = 453;
},
{
associatedMasterId = master01;
layerId = "81A5D27B-9AD1-4943-834F-CDE37C9D152C";
name = foreground;
paths = (
{
closed = 1;
nodes = (
"237 92 LINE",
"277 55 LINE",
"277 740 LINE",
"179 740 LINE",
"14 689 LINE",
"14 635 LINE",
"209 635 LINE",
"179 673 LINE",
"179 55 LINE",
"209 92 LINE",
"10 64 LINE",
"10 0 LINE",
"437 0 LINE",
"437 64 LINE"
);
}
);
width = 453;
}
);
unicode = 0031;
},
{
glyphname = two;
layers = (
{
background = {
paths = (
{
closed = 1;
nodes = (
"48 0 LINE",
"48 123 LINE",
"145 153 LINE SMOOTH",
"391 230 OFFCURVE",
"436 363 OFFCURVE",
"436 500 CURVE SMOOTH",
"436 680 OFFCURVE",
"371 676 OFFCURVE",
"267 676 CURVE",
"208 676 OFFCURVE",
"147 664 OFFCURVE",
"85 637 CURVE",
"144 685 LINE",
"126 507 LINE",
"60 507 LINE",
"50 715 LINE",
"106 742 OFFCURVE",
"167 757 OFFCURVE",
"278 757 CURVE",
"419 757 OFFCURVE",
"519 722 OFFCURVE",
"519 505 CURVE SMOOTH",
"519 319 OFFCURVE",
"475 197 OFFCURVE",
"187 104 CURVE SMOOTH",
"94 74 LINE",
"121 121 LINE",
"121 15 LINE",
"77 63 LINE",
"494 63 LINE",
"458 41 LINE",
"475 161 LINE",
"525 161 LINE",
"523 0 LINE"
);
}
);
};
layerId = master01;
paths = (
{
closed = 1;
nodes = (
"48 0 LINE",
"48 123 LINE",
"145 153 LINE SMOOTH",
"391 230 OFFCURVE",
"436 363 OFFCURVE",
"436 500 CURVE SMOOTH",
"436 680 OFFCURVE",
"371 676 OFFCURVE",
"267 676 CURVE",
"208 676 OFFCURVE",
"147 664 OFFCURVE",
"85 637 CURVE",
"144 685 LINE",
"126 507 LINE",
"60 507 LINE",
"50 715 LINE",
"106 742 OFFCURVE",
"167 757 OFFCURVE",
"278 757 CURVE",
"419 757 OFFCURVE",
"519 722 OFFCURVE",
"519 505 CURVE SMOOTH",
"519 319 OFFCURVE",
"475 197 OFFCURVE",
"187 104 CURVE SMOOTH",
"94 74 LINE",
"121 121 LINE",
"121 15 LINE",
"77 63 LINE",
"494 63 LINE",
"458 41 LINE",
"475 161 LINE",
"525 161 LINE",
"523 0 LINE"
);
}
);
width = 565;
},
{
associatedMasterId = master01;
layerId = "9BA742B1-6636-4C3C-A443-8674341B383C";
name = foreground;
paths = (
{
closed = 1;
nodes = (
"48 0 LINE",
"48 123 LINE",
"145 153 LINE SMOOTH",
"391 230 OFFCURVE",
"436 363 OFFCURVE",
"436 500 CURVE SMOOTH",
"436 680 OFFCURVE",
"371 676 OFFCURVE",
"267 676 CURVE",
"208 676 OFFCURVE",
"147 664 OFFCURVE",
"85 637 CURVE",
"144 685 LINE",
"126 507 LINE",
"60 507 LINE",
"50 715 LINE",
"106 742 OFFCURVE",
"167 757 OFFCURVE",
"278 757 CURVE",
"419 757 OFFCURVE",
"519 722 OFFCURVE",
"519 505 CURVE SMOOTH",
"519 319 OFFCURVE",
"475 197 OFFCURVE",
"187 104 CURVE SMOOTH",
"94 74 LINE",
"121 121 LINE",
"121 15 LINE",
"77 63 LINE",
"494 63 LINE",
"458 41 LINE",
"475 161 LINE",
"525 161 LINE",
"523 0 LINE"
);
}
);
width = 565;
}
);
unicode = 0032;
},
{
glyphname = three;
layers = (
{
background = {
paths = (
{
closed = 1;
nodes = (
"103 77 OFFCURVE",
"161 69 OFFCURVE",
"249 69 CURVE",
"378 69 OFFCURVE",
"431 105 OFFCURVE",
"431 207 CURVE SMOOTH",
"432 280 OFFCURVE",
"420 333 OFFCURVE",
"259 342 CURVE SMOOTH",
"169 347 LINE",
"169 413 LINE",
"259 420 LINE SMOOTH",
"401 431 OFFCURVE",
"415 482 OFFCURVE",
"416 548 CURVE SMOOTH",
"416 638 OFFCURVE",
"371 676 OFFCURVE",
"267 676 CURVE",
"208 676 OFFCURVE",
"147 664 OFFCURVE",
"85 637 CURVE",
"144 685 LINE",
"126 527 LINE",
"60 527 LINE",
"50 715 LINE",
"106 742 OFFCURVE",
"167 757 OFFCURVE",
"278 757 CURVE",
"419 757 OFFCURVE",
"519 702 OFFCURVE",
"519 575 CURVE SMOOTH",
"518 469 OFFCURVE",
"464 398 OFFCURVE",
"372 394 CURVE SMOOTH",
"306 391 LINE",
"373 425 LINE",
"373 362 LINE",
"306 379 LINE",
"373 378 LINE SMOOTH",
"480 376 OFFCURVE",
"530 318 OFFCURVE",
"529 200 CURVE SMOOTH",
"529 48 OFFCURVE",
"438 -19 OFFCURVE",
"254 -18 CURVE",
"161 -18 OFFCURVE",
"102 -8 OFFCURVE",
"25 17 CURVE",
"42 191 LINE",
"105 191 LINE",
"115 70 LINE",
"32 103 LINE"
);
}
);
};
layerId = master01;
paths = (
{
closed = 1;
nodes = (
"103 77 OFFCURVE",
"161 69 OFFCURVE",
"249 69 CURVE",
"378 69 OFFCURVE",
"431 105 OFFCURVE",
"431 207 CURVE SMOOTH",
"432 280 OFFCURVE",
"420 333 OFFCURVE",
"259 342 CURVE SMOOTH",
"169 347 LINE",
"169 413 LINE",
"259 420 LINE SMOOTH",
"401 431 OFFCURVE",
"415 482 OFFCURVE",
"416 548 CURVE SMOOTH",
"416 638 OFFCURVE",
"371 676 OFFCURVE",
"267 676 CURVE",
"208 676 OFFCURVE",
"147 664 OFFCURVE",
"85 637 CURVE",
"144 685 LINE",
"126 527 LINE",
"60 527 LINE",
"50 715 LINE",
"106 742 OFFCURVE",
"167 757 OFFCURVE",
"278 757 CURVE",
"419 757 OFFCURVE",
"519 702 OFFCURVE",
"519 575 CURVE SMOOTH",
"518 469 OFFCURVE",
"464 398 OFFCURVE",
"372 394 CURVE SMOOTH",
"306 391 LINE",
"373 425 LINE",
"373 362 LINE",
"306 379 LINE",
"373 378 LINE SMOOTH",
"480 376 OFFCURVE",
"530 318 OFFCURVE",
"529 200 CURVE SMOOTH",
"529 48 OFFCURVE",
"438 -19 OFFCURVE",
"254 -18 CURVE",
"161 -18 OFFCURVE",
"102 -8 OFFCURVE",
"25 17 CURVE",
"42 191 LINE",
"105 191 LINE",
"115 70 LINE",
"32 103 LINE"
);
}
);
width = 565;
},
{
associatedMasterId = master01;
layerId = "7293DB09-CB7D-43B6-8FF5-C2C61010518A";
name = foreground;
paths = (
{
closed = 1;
nodes = (
"103 77 OFFCURVE",
"161 69 OFFCURVE",
"249 69 CURVE",
"378 69 OFFCURVE",
"431 105 OFFCURVE",
"431 207 CURVE SMOOTH",
"432 280 OFFCURVE",
"420 333 OFFCURVE",
"259 342 CURVE SMOOTH",
"169 347 LINE",
"169 413 LINE",
"259 420 LINE SMOOTH",
"401 431 OFFCURVE",
"415 482 OFFCURVE",
"416 548 CURVE SMOOTH",
"416 638 OFFCURVE",
"371 676 OFFCURVE",
"267 676 CURVE",
"208 676 OFFCURVE",
"147 664 OFFCURVE",
"85 637 CURVE",
"144 685 LINE",
"126 527 LINE",
"60 527 LINE",
"50 715 LINE",
"106 742 OFFCURVE",
"167 757 OFFCURVE",
"278 757 CURVE",
"419 757 OFFCURVE",
"519 702 OFFCURVE",
"519 575 CURVE SMOOTH",
"518 469 OFFCURVE",
"464 398 OFFCURVE",
"372 394 CURVE SMOOTH",
"306 391 LINE",
"373 425 LINE",
"373 362 LINE",
"306 379 LINE",
"373 378 LINE SMOOTH",
"480 376 OFFCURVE",
"530 318 OFFCURVE",
"529 200 CURVE SMOOTH",
"529 48 OFFCURVE",
"438 -19 OFFCURVE",
"254 -18 CURVE",
"161 -18 OFFCURVE",
"102 -8 OFFCURVE",
"25 17 CURVE",
"42 191 LINE",
"105 191 LINE",
"115 70 LINE",
"32 103 LINE"
);
}
);
width = 565;
}
);
unicode = 0033;
},
{
glyphname = four;
layers = (
{
background = {
paths = (
{
closed = 1;
nodes = (
"457 92 LINE",
"497 55 LINE",
"497 740 LINE",
"389 740 LINE",
"30 278 LINE",
"30 194 LINE",
"436 194 LINE",
"442 188 LINE",
"592 204 LINE",
"592 262 LINE",
"447 275 LINE",
"436 272 LINE",
"127 272 LINE",
"127 269 LINE",
"430 666 LINE",
"399 673 LINE",
"399 55 LINE",
"429 83 LINE",
"182 64 LINE",
"182 0 LINE",
"617 0 LINE",
"617 64 LINE"
);
},
{
closed = 1;
nodes = (
"445 602 LINE",
"445 652 LINE",
"364 652 LINE",
"364 602 LINE"
);
},
{
closed = 1;
nodes = (
"136 252 LINE",
"136 299 LINE",
"115 299 LINE",
"115 252 LINE"
);
}
);
};
layerId = master01;
paths = (
{
closed = 1;
nodes = (
"457 92 LINE",
"497 55 LINE",
"497 740 LINE",
"389 740 LINE",
"30 278 LINE",
"30 194 LINE",
"436 194 LINE",
"442 188 LINE",
"592 204 LINE",
"592 262 LINE",
"447 275 LINE",
"436 272 LINE",
"127 272 LINE",
"127 269 LINE",
"430 666 LINE",
"399 673 LINE",
"399 55 LINE",
"429 83 LINE",
"182 64 LINE",
"182 0 LINE",
"617 0 LINE",
"617 64 LINE"
);
},
{
closed = 1;
nodes = (
"445 602 LINE",
"445 652 LINE",
"364 652 LINE",
"364 602 LINE"
);
},
{
closed = 1;
nodes = (
"136 252 LINE",
"136 299 LINE",
"115 299 LINE",
"115 252 LINE"
);
}
);
width = 677;
},
{
associatedMasterId = master01;
layerId = "297132CF-284F-43D0-BBF2-5B62D89AFB08";
name = foreground;
paths = (
{
closed = 1;
nodes = (
"457 92 LINE",
"497 55 LINE",
"497 740 LINE",
"389 740 LINE",
"30 278 LINE",
"30 194 LINE",
"436 194 LINE",
"442 188 LINE",
"592 204 LINE",
"592 262 LINE",
"447 275 LINE",
"436 272 LINE",
"127 272 LINE",
"127 269 LINE",
"430 666 LINE",
"399 673 LINE",
"399 55 LINE",
"429 83 LINE",
"182 64 LINE",
"182 0 LINE",
"617 0 LINE",
"617 64 LINE"
);
},
{
closed = 1;
nodes = (
"445 602 LINE",
"445 652 LINE",
"364 652 LINE",
"364 602 LINE"
);
},
{
closed = 1;
nodes = (
"136 252 LINE",
"136 299 LINE",
"115 299 LINE",
"115 252 LINE"
);
}
);
width = 677;
}
);
unicode = 0034;
},
{
glyphname = five;
layers = (
{
background = {
paths = (
{
closed = 1;
nodes = (
"177 410 LINE",
"197 682 LINE",
"157 659 LINE",
"486 659 LINE",
"447 695 LINE",
"464 540 LINE",
"535 540 LINE",
"544 740 LINE",
"108 740 LINE",
"78 362 LINE",
"415 362 OFFCURVE",
"431 323 OFFCURVE",
"431 207 CURVE SMOOTH",
"431 105 OFFCURVE",
"378 69 OFFCURVE",
"249 69 CURVE",
"204 69 OFFCURVE",
"167 71 OFFCURVE",
"114 81 CURVE",
"105 191 LINE",
"42 191 LINE",
"25 17 LINE",
"102 -8 OFFCURVE",
"161 -18 OFFCURVE",
"254 -18 CURVE",
"438 -19 OFFCURVE",
"529 48 OFFCURVE",
"529 200 CURVE SMOOTH",
"529 418 OFFCURVE",
"418 444 OFFCURVE",
"159 439 CURVE"
);
}
);
};
layerId = master01;
paths = (
{
closed = 1;
nodes = (
"177 410 LINE",
"197 682 LINE",
"157 659 LINE",
"486 659 LINE",
"447 695 LINE",
"464 540 LINE",
"535 540 LINE",
"544 740 LINE",
"108 740 LINE",
"78 362 LINE",
"415 362 OFFCURVE",
"431 323 OFFCURVE",
"431 207 CURVE SMOOTH",
"431 105 OFFCURVE",
"378 69 OFFCURVE",
"249 69 CURVE",
"204 69 OFFCURVE",
"167 71 OFFCURVE",
"114 81 CURVE",
"105 191 LINE",
"42 191 LINE",
"25 17 LINE",
"102 -8 OFFCURVE",
"161 -18 OFFCURVE",
"254 -18 CURVE",
"438 -19 OFFCURVE",
"529 48 OFFCURVE",
"529 200 CURVE SMOOTH",
"529 418 OFFCURVE",
"418 444 OFFCURVE",
"159 439 CURVE"
);
}
);
width = 565;
},
{
associatedMasterId = master01;
layerId = "7E31E719-483F-4F20-BAAA-A073F017286D";
name = foreground;
paths = (
{
closed = 1;
nodes = (
"177 410 LINE",
"197 682 LINE",
"157 659 LINE",
"486 659 LINE",
"447 695 LINE",
"464 540 LINE",
"535 540 LINE",
"544 740 LINE",
"108 740 LINE",
"78 362 LINE",
"415 362 OFFCURVE",
"431 323 OFFCURVE",
"431 207 CURVE SMOOTH",
"431 105 OFFCURVE",
"378 69 OFFCURVE",
"249 69 CURVE",
"204 69 OFFCURVE",
"167 71 OFFCURVE",
"114 81 CURVE",
"105 191 LINE",
"42 191 LINE",
"25 17 LINE",
"102 -8 OFFCURVE",
"161 -18 OFFCURVE",
"254 -18 CURVE",
"438 -19 OFFCURVE",
"529 48 OFFCURVE",
"529 200 CURVE SMOOTH",
"529 418 OFFCURVE",
"418 444 OFFCURVE",
"159 439 CURVE"
);
}
);
width = 565;
}
);
unicode = 0035;
},
{
glyphname = six;
layers = (
{
background = {
paths = (
{
closed = 1;
nodes = (
"139 362 LINE",
"216 362 LINE",
"181 353 LINE",
"204 426 OFFCURVE",
"265 424 OFFCURVE",
"367 424 CURVE SMOOTH",
"522 424 OFFCURVE",
"611 391 OFFCURVE",
"611 225 CURVE SMOOTH",
"611 55 OFFCURVE",
"530 -18 OFFCURVE",
"331 -18 CURVE SMOOTH",
"145 -18 OFFCURVE",
"65 55 OFFCURVE",
"65 369 CURVE SMOOTH",
"65 645 OFFCURVE",
"167 758 OFFCURVE",
"359 758 CURVE SMOOTH",
"478 758 OFFCURVE",
"558 722 OFFCURVE",
"597 685 CURVE",
"579 523 LINE",
"512 523 LINE",
"496 687 LINE",
"556 606 LINE",
"516 644 OFFCURVE",
"456 672 OFFCURVE",
"359 672 CURVE SMOOTH",
"221 672 OFFCURVE",
"159 579 OFFCURVE",
"159 370 CURVE SMOOTH",
"159 115 OFFCURVE",
"220 68 OFFCURVE",
"335 68 CURVE SMOOTH",
"467 68 OFFCURVE",
"519 112 OFFCURVE",
"519 216 CURVE SMOOTH",
"519 316 OFFCURVE",
"491 336 OFFCURVE",
"349 336 CURVE SMOOTH",
"248 336 OFFCURVE",
"186 320 OFFCURVE",
"135 285 CURVE",
"119 330 LINE"
);
}
);
};
layerId = master01;
paths = (
{
closed = 1;
nodes = (
"139 362 LINE",
"216 362 LINE",
"181 353 LINE",
"204 426 OFFCURVE",
"265 424 OFFCURVE",
"367 424 CURVE SMOOTH",
"521.603 424 OFFCURVE",
"611 391 OFFCURVE",
"611 225 CURVE SMOOTH",
"611 55 OFFCURVE",
"529.507 -18 OFFCURVE",
"331 -18 CURVE SMOOTH",
"145 -18 OFFCURVE",
"65 55 OFFCURVE",
"65 369 CURVE SMOOTH",
"65 645 OFFCURVE",
"167 758 OFFCURVE",
"359 758 CURVE SMOOTH",
"478 758 OFFCURVE",
"557.924 722.02 OFFCURVE",
"597 685 CURVE",
"579 523 LINE",
"512 523 LINE",
"496 687 LINE",
"556 606 LINE",
"515.649 644.282 OFFCURVE",
"455.903 672 OFFCURVE",
"359 672 CURVE SMOOTH",
"221 672 OFFCURVE",
"159 579 OFFCURVE",
"159 370 CURVE SMOOTH",
"159 115 OFFCURVE",
"220 68 OFFCURVE",
"335 68 CURVE SMOOTH",
"466.581 68 OFFCURVE",
"519 112 OFFCURVE",
"519 216 CURVE SMOOTH",
"519 316 OFFCURVE",
"491.025 336 OFFCURVE",
"349 336 CURVE SMOOTH",
"248 336 OFFCURVE",
"186 320 OFFCURVE",
"135 285 CURVE",
"119 330 LINE"
);
}
);
width = 663;
},
{
associatedMasterId = master01;
layerId = "A0FA8EFC-F689-4B9E-8E29-CC9EFD0343C7";
name = foreground;
paths = (
{
closed = 1;
nodes = (
"139 362 LINE",
"216 362 LINE",
"181 353 LINE",
"204 426 OFFCURVE",
"265 424 OFFCURVE",
"367 424 CURVE SMOOTH",
"521.603 424 OFFCURVE",
"611 391 OFFCURVE",
"611 225 CURVE SMOOTH",
"611 55 OFFCURVE",
"529.507 -18 OFFCURVE",
"331 -18 CURVE SMOOTH",
"145 -18 OFFCURVE",
"65 55 OFFCURVE",
"65 369 CURVE SMOOTH",
"65 645 OFFCURVE",
"167 758 OFFCURVE",
"359 758 CURVE SMOOTH",
"478 758 OFFCURVE",
"557.924 722.02 OFFCURVE",
"597 685 CURVE",
"579 523 LINE",
"512 523 LINE",
"496 687 LINE",
"556 606 LINE",
"515.649 644.282 OFFCURVE",
"455.903 672 OFFCURVE",
"359 672 CURVE SMOOTH",
"221 672 OFFCURVE",
"159 579 OFFCURVE",
"159 370 CURVE SMOOTH",
"159 115 OFFCURVE",
"220 68 OFFCURVE",
"335 68 CURVE SMOOTH",
"466.581 68 OFFCURVE",
"519 112 OFFCURVE",
"519 216 CURVE SMOOTH",
"519 316 OFFCURVE",
"491.025 336 OFFCURVE",
"349 336 CURVE SMOOTH",
"248 336 OFFCURVE",
"186 320 OFFCURVE",
"135 285 CURVE",
"119 330 LINE"
);
}
);
width = 663;
}
);
unicode = 0036;
},
{
glyphname = seven;
layers = (
{
background = {
paths = (
{
closed = 1;
nodes = (
"31 493 LINE",
"91 493 LINE",
"116 718 LINE",
"78 658 LINE",
"459 658 LINE",
"461 729 LINE",
"104 0 LINE",
"205 0 LINE",
"516 641 LINE",
"516 737 LINE",
"23 737 LINE"
);
},
{
closed = 1;
nodes = (
"473 707 LINE",
"416 703 LINE",
"416 608 LINE"
);
}
);
};
layerId = master01;
paths = (
{
closed = 1;
nodes = (
"31 493 LINE",
"91 493 LINE",
"116 718 LINE",
"78 658 LINE",
"459 658 LINE",
"461 729 LINE",
"104 0 LINE",
"205 0 LINE",
"516 641 LINE",
"516 737 LINE",
"23 737 LINE"
);
},
{
closed = 1;
nodes = (
"473 707 LINE",
"416 703 LINE",
"416 608 LINE"
);
}
);
width = 570;
},
{
associatedMasterId = master01;
layerId = "E84E1268-5602-4BEF-A610-B45C99DF4DEC";
name = foreground;
paths = (
{
closed = 1;
nodes = (
"31 493 LINE",
"91 493 LINE",
"116 718 LINE",
"78 658 LINE",
"459 658 LINE",
"461 729 LINE",
"104 0 LINE",
"205 0 LINE",
"516 641 LINE",
"516 737 LINE",
"23 737 LINE"
);
},
{
closed = 1;
nodes = (
"473 707 LINE",
"416 703 LINE",
"416 608 LINE"
);
}
);
width = 570;
}
);
unicode = 0037;
},
{
glyphname = eight;
layers = (
{
background = {
paths = (
{
closed = 1;
nodes = (
"458 66 OFFCURVE",
"524 98 OFFCURVE",
"524 211 CURVE SMOOTH",
"525 282 OFFCURVE",
"514 334 OFFCURVE",
"358 343 CURVE SMOOTH",
"271 348 LINE",
"271 412 LINE",
"358 419 LINE SMOOTH",
"495 429 OFFCURVE",
"509 479 OFFCURVE",
"510 544 CURVE SMOOTH",
"510 650 OFFCURVE",
"442 676 OFFCURVE",
"329 676 CURVE SMOOTH",
"207 676 OFFCURVE",
"145 650 OFFCURVE",
"145 544 CURVE SMOOTH",
"146 479 OFFCURVE",
"160 429 OFFCURVE",
"297 419 CURVE SMOOTH",
"384 412 LINE",
"384 348 LINE",
"297 343 LINE SMOOTH",
"141 334 OFFCURVE",
"130 282 OFFCURVE",
"131 211 CURVE SMOOTH",
"131 98 OFFCURVE",
"212 66 OFFCURVE",
"325 66 CURVE SMOOTH"
);
},
{
closed = 1;
nodes = (
"139 -18 OFFCURVE",
"36 42 OFFCURVE",
"36 204 CURVE SMOOTH",
"35 318 OFFCURVE",
"83 375 OFFCURVE",
"187 377 CURVE SMOOTH",
"252 378 LINE",
"187 362 LINE",
"187 424 LINE",
"252 391 LINE",
"188 394 LINE SMOOTH",
"99 398 OFFCURVE",
"46 468 OFFCURVE",
"45 570 CURVE SMOOTH",
"45 718 OFFCURVE",
"198 755 OFFCURVE",
"329 756 CURVE SMOOTH",
"458 756 OFFCURVE",
"610 717 OFFCURVE",
"610 570 CURVE SMOOTH",
"609 468 OFFCURVE",
"556 398 OFFCURVE",
"467 394 CURVE SMOOTH",
"403 391 LINE",
"468 424 LINE",
"468 362 LINE",
"403 378 LINE",
"468 377 LINE SMOOTH",
"572 375 OFFCURVE",
"620 318 OFFCURVE",
"619 204 CURVE SMOOTH",
"619 41 OFFCURVE",
"494 -18 OFFCURVE",
"325 -18 CURVE SMOOTH"
);
}
);
};
layerId = master01;
paths = (
{
closed = 1;
nodes = (
"458 66 OFFCURVE",
"524 98.222 OFFCURVE",
"524 211 CURVE SMOOTH",
"525 282 OFFCURVE",
"514 334 OFFCURVE",
"358 343 CURVE SMOOTH",
"271 348 LINE",
"271 412 LINE",
"358 419 LINE SMOOTH",
"495 429 OFFCURVE",
"509 479 OFFCURVE",
"510 544 CURVE SMOOTH",
"510 650.033 OFFCURVE",
"442 676 OFFCURVE",
"329 676 CURVE SMOOTH",
"207 676 OFFCURVE",
"145 650.033 OFFCURVE",
"145 544 CURVE SMOOTH",
"146 479 OFFCURVE",
"160 429 OFFCURVE",
"297 419 CURVE SMOOTH",
"384 412 LINE",
"384 348 LINE",
"297 343 LINE SMOOTH",
"141 334 OFFCURVE",
"130 282 OFFCURVE",
"131 211 CURVE SMOOTH",
"131 98.222 OFFCURVE",
"212 66 OFFCURVE",
"325 66 CURVE SMOOTH"
);
},
{
closed = 1;
nodes = (
"139 -18 OFFCURVE",
"36 41.689 OFFCURVE",
"36 204 CURVE SMOOTH",
"35.006 318.339 OFFCURVE",
"82.993 375.4 OFFCURVE",
"187 377 CURVE SMOOTH",
"252 378 LINE",
"187 362 LINE",
"187 424 LINE",
"252 391 LINE",
"188 394 LINE SMOOTH",
"99.009 398.171 OFFCURVE",
"45.994 467.582 OFFCURVE",
"45 570 CURVE SMOOTH",
"45 717.955 OFFCURVE",
"198 755 OFFCURVE",
"329 756 CURVE SMOOTH",
"458 756 OFFCURVE",
"610 716.898 OFFCURVE",
"610 570 CURVE SMOOTH",
"609.006 467.582 OFFCURVE",
"555.991 398.171 OFFCURVE",
"467 394 CURVE SMOOTH",
"403 391 LINE",
"468 424 LINE",
"468 362 LINE",
"403 378 LINE",
"468 377 LINE SMOOTH",
"572.007 375.4 OFFCURVE",
"619.994 318.339 OFFCURVE",
"619 204 CURVE SMOOTH",
"619 40.642 OFFCURVE",
"494 -18 OFFCURVE",
"325 -18 CURVE SMOOTH"
);
}
);
width = 660;
},
{
associatedMasterId = master01;
layerId = "DE9C4689-EEF3-4019-B4E3-F3F54A18A70D";
name = foreground;
paths = (
{
closed = 1;
nodes = (
"458 66 OFFCURVE",
"524 98.222 OFFCURVE",
"524 211 CURVE SMOOTH",
"525 282 OFFCURVE",
"514 334 OFFCURVE",
"358 343 CURVE SMOOTH",
"271 348 LINE",
"271 412 LINE",
"358 419 LINE SMOOTH",
"495 429 OFFCURVE",
"509 479 OFFCURVE",
"510 544 CURVE SMOOTH",
"510 650.033 OFFCURVE",
"442 676 OFFCURVE",
"329 676 CURVE SMOOTH",
"207 676 OFFCURVE",
"145 650.033 OFFCURVE",
"145 544 CURVE SMOOTH",
"146 479 OFFCURVE",
"160 429 OFFCURVE",
"297 419 CURVE SMOOTH",
"384 412 LINE",
"384 348 LINE",
"297 343 LINE SMOOTH",
"141 334 OFFCURVE",
"130 282 OFFCURVE",
"131 211 CURVE SMOOTH",
"131 98.222 OFFCURVE",
"212 66 OFFCURVE",
"325 66 CURVE SMOOTH"
);
},
{
closed = 1;
nodes = (
"139 -18 OFFCURVE",
"36 41.689 OFFCURVE",
"36 204 CURVE SMOOTH",
"35.006 318.339 OFFCURVE",
"82.993 375.4 OFFCURVE",
"187 377 CURVE SMOOTH",
"252 378 LINE",
"187 362 LINE",
"187 424 LINE",
"252 391 LINE",
"188 394 LINE SMOOTH",
"99.009 398.171 OFFCURVE",
"45.994 467.582 OFFCURVE",
"45 570 CURVE SMOOTH",
"45 717.955 OFFCURVE",
"198 755 OFFCURVE",
"329 756 CURVE SMOOTH",
"458 756 OFFCURVE",
"610 716.898 OFFCURVE",
"610 570 CURVE SMOOTH",
"609.006 467.582 OFFCURVE",
"555.991 398.171 OFFCURVE",
"467 394 CURVE SMOOTH",
"403 391 LINE",
"468 424 LINE",
"468 362 LINE",
"403 378 LINE",
"468 377 LINE SMOOTH",
"572.007 375.4 OFFCURVE",
"619.994 318.339 OFFCURVE",
"619 204 CURVE SMOOTH",
"619 40.642 OFFCURVE",
"494 -18 OFFCURVE",
"325 -18 CURVE SMOOTH"
);
}
);
width = 660;
}
);
unicode = 0038;
},
{
glyphname = nine;
layers = (
{
background = {
paths = (
{
closed = 1;
nodes = (
"475 288 OFFCURVE",
"405 286 OFFCURVE",
"309 286 CURVE SMOOTH",
"154 286 OFFCURVE",
"65 324 OFFCURVE",
"65 515 CURVE SMOOTH",
"65 685 OFFCURVE",
"146 758 OFFCURVE",
"345 758 CURVE SMOOTH",
"531 758 OFFCURVE",
"611 685 OFFCURVE",
"611 371 CURVE SMOOTH",
"611 95 OFFCURVE",
"509 -18 OFFCURVE",
"317 -18 CURVE SMOOTH",
"198 -18 OFFCURVE",
"118 18 OFFCURVE",
"79 55 CURVE",
"97 217 LINE",
"164 217 LINE",
"180 53 LINE",
"120 134 LINE",
"160 96 OFFCURVE",
"220 68 OFFCURVE",
"317 68 CURVE SMOOTH",
"455 68 OFFCURVE",
"517 152 OFFCURVE",
"517 340 CURVE SMOOTH",
"517 620 OFFCURVE",
"456 672 OFFCURVE",
"341 672 CURVE SMOOTH",
"209 672 OFFCURVE",
"157 628 OFFCURVE",
"157 524 CURVE SMOOTH",
"157 399 OFFCURVE",
"185 374 OFFCURVE",
"327 374 CURVE SMOOTH",
"428 374 OFFCURVE",
"490 390 OFFCURVE",
"541 425 CURVE",
"542 395 LINE"
);
}
);
};
layerId = master01;
paths = (
{
closed = 1;
nodes = (
"475 288 OFFCURVE",
"405 286 OFFCURVE",
"309 286 CURVE SMOOTH",
"154 286 OFFCURVE",
"65 324 OFFCURVE",
"65 515 CURVE SMOOTH",
"65 685 OFFCURVE",
"146 758 OFFCURVE",
"345 758 CURVE SMOOTH",
"531 758 OFFCURVE",
"611 685 OFFCURVE",
"611 371 CURVE SMOOTH",
"611 95 OFFCURVE",
"509 -18 OFFCURVE",
"317 -18 CURVE SMOOTH",
"198 -18 OFFCURVE",
"118 18 OFFCURVE",
"79 55 CURVE",
"97 217 LINE",
"164 217 LINE",
"180 53 LINE",
"120 134 LINE",
"160 96 OFFCURVE",
"220 68 OFFCURVE",
"317 68 CURVE SMOOTH",
"455 68 OFFCURVE",
"517 152 OFFCURVE",
"517 340 CURVE SMOOTH",
"517 620 OFFCURVE",
"456 672 OFFCURVE",
"341 672 CURVE SMOOTH",
"209 672 OFFCURVE",
"157 628 OFFCURVE",
"157 524 CURVE SMOOTH",
"157 399 OFFCURVE",
"185 374 OFFCURVE",
"327 374 CURVE SMOOTH",
"428 374 OFFCURVE",
"490 390 OFFCURVE",
"541 425 CURVE",
"542 395 LINE"
);
}
);
width = 663;
},
{
associatedMasterId = master01;
layerId = "1343F1FB-C5DE-4910-8943-0A565FDA3DC1";
name = foreground;
paths = (
{
closed = 1;
nodes = (
"475 288 OFFCURVE",
"405 286 OFFCURVE",
"309 286 CURVE SMOOTH",
"154 286 OFFCURVE",
"65 324 OFFCURVE",
"65 515 CURVE SMOOTH",
"65 685 OFFCURVE",
"146 758 OFFCURVE",
"345 758 CURVE SMOOTH",
"531 758 OFFCURVE",
"611 685 OFFCURVE",
"611 371 CURVE SMOOTH",
"611 95 OFFCURVE",
"509 -18 OFFCURVE",
"317 -18 CURVE SMOOTH",
"198 -18 OFFCURVE",
"118 18 OFFCURVE",
"79 55 CURVE",
"97 217 LINE",
"164 217 LINE",
"180 53 LINE",
"120 134 LINE",
"160 96 OFFCURVE",
"220 68 OFFCURVE",
"317 68 CURVE SMOOTH",
"455 68 OFFCURVE",
"517 152 OFFCURVE",
"517 340 CURVE SMOOTH",
"517 620 OFFCURVE",
"456 672 OFFCURVE",
"341 672 CURVE SMOOTH",
"209 672 OFFCURVE",
"157 628 OFFCURVE",
"157 524 CURVE SMOOTH",
"157 399 OFFCURVE",
"185 374 OFFCURVE",
"327 374 CURVE SMOOTH",
"428 374 OFFCURVE",
"490 390 OFFCURVE",
"541 425 CURVE",
"542 395 LINE"
);
}
);
width = 663;
}
);
unicode = 0039;
},
{
glyphname = hyphen;
layers = (
{
background = {
paths = (
{
closed = 1;
nodes = (
"340 230 LINE",
"340 325 LINE",
"60 325 LINE",
"60 230 LINE"
);
}
);
};
layerId = master01;
paths = (
{
closed = 1;
nodes = (
"340 230 LINE",
"340 325 LINE",
"60 325 LINE",
"60 230 LINE"
);
}
);
width = 400;
},
{
associatedMasterId = master01;
layerId = "CF055A28-E44A-409D-9FBA-F0158781923D";
name = foreground;
paths = (
{
closed = 1;
nodes = (
"340 230 LINE",
"340 325 LINE",
"60 325 LINE",
"60 230 LINE"
);
}
);
width = 400;
}
);
unicode = 002D;
},
{
glyphname = ampersand;
layers = (
{
background = {
paths = (
{
closed = 1;
nodes = (
"730 396 LINE",
"544 398 LINE",
"544 111 OFFCURVE",
"470 61 OFFCURVE",
"324 61 CURVE",
"215 61 OFFCURVE",
"123 79 OFFCURVE",
"123 230 CURVE SMOOTH",
"123 329 OFFCURVE",
"150 396 OFFCURVE",
"277 396 CURVE",
"239 473 LINE",
"68 437 OFFCURVE",
"24 368 OFFCURVE",
"25 224 CURVE SMOOTH",
"26 45 OFFCURVE",
"143 -21 OFFCURVE",
"321 -21 CURVE",
"562 -21 OFFCURVE",
"615 119 OFFCURVE",
"615 367 CURVE",
"569 307 LINE",
"732 332 LINE"
);
},
{
closed = 1;
nodes = (
"517 649 OFFCURVE",
"506 760 OFFCURVE",
"326 760 CURVE SMOOTH",
"209 760 OFFCURVE",
"129 709 OFFCURVE",
"129 604 CURVE SMOOTH",
"129 513 OFFCURVE",
"174 467 OFFCURVE",
"277 338 CURVE SMOOTH",
"367 226 OFFCURVE",
"620 -68 OFFCURVE",
"620 -68 CURVE",
"685 -10 LINE",
"348 397 LINE",
"284 479 OFFCURVE",
"228 546 OFFCURVE",
"228 591 CURVE SMOOTH",
"228 656 OFFCURVE",
"259 675 OFFCURVE",
"331 675 CURVE SMOOTH",
"412 675 OFFCURVE",
"422 627 OFFCURVE",
"422 546 CURVE",
"517 546 LINE"
);
}
);
};
layerId = master01;
paths = (
{
closed = 1;
nodes = (
"730 396 LINE",
"544 398 LINE",
"544 111 OFFCURVE",
"470 61 OFFCURVE",
"324 61 CURVE",
"215 61 OFFCURVE",
"123 79.325 OFFCURVE",
"123 230 CURVE SMOOTH",
"123 329 OFFCURVE",
"150 396 OFFCURVE",
"277 396 CURVE",
"239 473 LINE",
"68 437 OFFCURVE",
"24 368 OFFCURVE",
"25 224 CURVE SMOOTH",
"26.012 44.806 OFFCURVE",
"143 -21 OFFCURVE",
"321 -21 CURVE",
"562 -21 OFFCURVE",
"615 119 OFFCURVE",
"615 367 CURVE",
"569 307 LINE",
"732 332 LINE"
);
},
{
closed = 1;
nodes = (
"517 649 OFFCURVE",
"506 760 OFFCURVE",
"326 760 CURVE SMOOTH",
"209 760 OFFCURVE",
"129 709 OFFCURVE",
"129 604 CURVE SMOOTH",
"129 513 OFFCURVE",
"174 467 OFFCURVE",
"277 338 CURVE SMOOTH",
"367 226 OFFCURVE",
"620 -68 OFFCURVE",
"620 -68 CURVE",
"685 -10 LINE",
"348 397 LINE",
"284 479 OFFCURVE",
"228 546 OFFCURVE",
"228 591 CURVE SMOOTH",
"228 656 OFFCURVE",
"259 675 OFFCURVE",
"331 675 CURVE SMOOTH",
"412 675 OFFCURVE",
"422 627 OFFCURVE",
"422 546 CURVE",
"517 546 LINE"
);
}
);
width = 742;
},
{
associatedMasterId = master01;
layerId = "3E39367B-F71A-48A8-9418-1DC22C7FDBAF";
name = foreground;
paths = (
{
closed = 1;
nodes = (
"730 396 LINE",
"544 398 LINE",
"544 111 OFFCURVE",
"470 61 OFFCURVE",
"324 61 CURVE",
"215 61 OFFCURVE",
"123 79.325 OFFCURVE",
"123 230 CURVE SMOOTH",
"123 329 OFFCURVE",
"150 396 OFFCURVE",
"277 396 CURVE",
"239 473 LINE",
"68 437 OFFCURVE",
"24 368 OFFCURVE",
"25 224 CURVE SMOOTH",
"26.012 44.806 OFFCURVE",
"143 -21 OFFCURVE",
"321 -21 CURVE",
"562 -21 OFFCURVE",
"615 119 OFFCURVE",
"615 367 CURVE",
"569 307 LINE",
"732 332 LINE"
);
},
{
closed = 1;
nodes = (
"517 649 OFFCURVE",
"506 760 OFFCURVE",
"326 760 CURVE SMOOTH",
"209 760 OFFCURVE",
"129 709 OFFCURVE",
"129 604 CURVE SMOOTH",
"129 513 OFFCURVE",
"174 467 OFFCURVE",
"277 338 CURVE SMOOTH",
"367 226 OFFCURVE",
"620 -68 OFFCURVE",
"620 -68 CURVE",
"685 -10 LINE",
"348 397 LINE",
"284 479 OFFCURVE",
"228 546 OFFCURVE",
"228 591 CURVE SMOOTH",
"228 656 OFFCURVE",
"259 675 OFFCURVE",
"331 675 CURVE SMOOTH",
"412 675 OFFCURVE",
"422 627 OFFCURVE",
"422 546 CURVE",
"517 546 LINE"
);
}
);
width = 742;
}
);
unicode = 0026;
},
{
glyphname = period;
layers = (
{
background = {
paths = (
{
closed = 1;
nodes = (
"163 -13 OFFCURVE",
"176 0 OFFCURVE",
"176 49 CURVE SMOOTH",
"176 98 OFFCURVE",
"163 111 OFFCURVE",
"113 111 CURVE SMOOTH",
"63 111 OFFCURVE",
"50 98 OFFCURVE",
"50 49 CURVE SMOOTH",
"50 0 OFFCURVE",
"63 -13 OFFCURVE",
"113 -13 CURVE SMOOTH"
);
}
);
};
layerId = master01;
paths = (
{
closed = 1;
nodes = (
"163 -13 OFFCURVE",
"176 0 OFFCURVE",
"176 49 CURVE SMOOTH",
"176 98 OFFCURVE",
"163 111 OFFCURVE",
"113 111 CURVE SMOOTH",
"63 111 OFFCURVE",
"50 98 OFFCURVE",
"50 49 CURVE SMOOTH",
"50 0 OFFCURVE",
"63 -13 OFFCURVE",
"113 -13 CURVE SMOOTH"
);
}
);
width = 226;
},
{
associatedMasterId = master01;
layerId = "923A71D5-2EAF-44C7-A490-19A609F62D5F";
name = foreground;
paths = (
{
closed = 1;
nodes = (
"163 -13 OFFCURVE",
"176 0 OFFCURVE",
"176 49 CURVE SMOOTH",
"176 98 OFFCURVE",
"163 111 OFFCURVE",
"113 111 CURVE SMOOTH",
"63 111 OFFCURVE",
"50 98 OFFCURVE",
"50 49 CURVE SMOOTH",
"50 0 OFFCURVE",
"63 -13 OFFCURVE",
"113 -13 CURVE SMOOTH"
);
}
);
width = 226;
}
);
unicode = 002E;
},
{
glyphname = comma;
layers = (
{
background = {
paths = (
{
closed = 1;
nodes = (
"176 98 OFFCURVE",
"162 111 OFFCURVE",
"113 111 CURVE SMOOTH",
"64 111 OFFCURVE",
"50 97 OFFCURVE",
"50 49 CURVE SMOOTH",
"50 11 OFFCURVE",
"63 -6 OFFCURVE",
"90 -6 CURVE",
"102 -6 OFFCURVE",
"113 1 OFFCURVE",
"126 4 CURVE",
"119 14 LINE",
"87 -30 LINE",
"52 -84 LINE",
"104 -116 LINE",
"181 -20 OFFCURVE",
"176 -5 OFFCURVE",
"176 50 CURVE SMOOTH"
);
}
);
};
layerId = master01;
paths = (
{
closed = 1;
nodes = (
"176 98 OFFCURVE",
"162 111 OFFCURVE",
"113 111 CURVE SMOOTH",
"64 111 OFFCURVE",
"50 97 OFFCURVE",
"50 49 CURVE SMOOTH",
"50 11 OFFCURVE",
"63 -6 OFFCURVE",
"90 -6 CURVE",
"102 -6 OFFCURVE",
"113 1 OFFCURVE",
"126 4 CURVE",
"119 14 LINE",
"87 -30 LINE",
"52 -84 LINE",
"104 -116 LINE",
"181 -20 OFFCURVE",
"176 -5 OFFCURVE",
"176 50 CURVE SMOOTH"
);
}
);
width = 226;
},
{
associatedMasterId = master01;
layerId = "05E4B7E9-43DA-495E-82DF-B7DC9F82FA06";
name = foreground;
paths = (
{
closed = 1;
nodes = (
"176 98 OFFCURVE",
"162 111 OFFCURVE",
"113 111 CURVE SMOOTH",
"64 111 OFFCURVE",
"50 97 OFFCURVE",
"50 49 CURVE SMOOTH",
"50 11 OFFCURVE",
"63 -6 OFFCURVE",
"90 -6 CURVE",
"102 -6 OFFCURVE",
"113 1 OFFCURVE",
"126 4 CURVE",
"119 14 LINE",
"87 -30 LINE",
"52 -84 LINE",
"104 -116 LINE",
"181 -20 OFFCURVE",
"176 -5 OFFCURVE",
"176 50 CURVE SMOOTH"
);
}
);
width = 226;
}
);
unicode = 002C;
},
{
glyphname = acute;
layers = (
{
background = {
paths = (
{
closed = 1;
nodes = (
"464 829 LINE",
"354 646 LINE",
"271 646 LINE",
"347 829 LINE"
);
}
);
};
layerId = master01;
paths = (
{
closed = 1;
nodes = (
"464 829 LINE",
"354 646 LINE",
"271 646 LINE",
"347 829 LINE"
);
}
);
width = 621;
},
{
associatedMasterId = master01;
layerId = "AD0DE1D5-956B-4CB0-AE20-0181330140A1";
name = foreground;
paths = (
{
closed = 1;
nodes = (
"464 829 LINE",
"354 646 LINE",
"271 646 LINE",
"347 829 LINE"
);
}
);
width = 621;
}
);
unicode = 00B4;
},
{
glyphname = tilde;
layers = (
{
background = {
paths = (
{
closed = 1;
nodes = (
"231 625 OFFCURVE",
"216 695 OFFCURVE",
"149 695 CURVE SMOOTH",
"99 695 OFFCURVE",
"81 672 OFFCURVE",
"81 640 CURVE",
"50 640 LINE",
"50 739 OFFCURVE",
"60 780 OFFCURVE",
"138 780 CURVE",
"213 780 OFFCURVE",
"222 720 OFFCURVE",
"285 720 CURVE SMOOTH",
"345 720 OFFCURVE",
"357 742 OFFCURVE",
"357 775 CURVE",
"390 775 LINE",
"390 668 OFFCURVE",
"374 625 OFFCURVE",
"303 625 CURVE"
);
}
);
};
layerId = master01;
paths = (
{
closed = 1;
nodes = (
"231 625 OFFCURVE",
"216 695 OFFCURVE",
"149 695 CURVE SMOOTH",
"99 695 OFFCURVE",
"81 672 OFFCURVE",
"81 640 CURVE",
"50 640 LINE",
"50 739 OFFCURVE",
"60 780 OFFCURVE",
"138 780 CURVE",
"213 780 OFFCURVE",
"222 720 OFFCURVE",
"285 720 CURVE SMOOTH",
"345 720 OFFCURVE",
"357 742 OFFCURVE",
"357 775 CURVE",
"390 775 LINE",
"390 668 OFFCURVE",
"374 625 OFFCURVE",
"303 625 CURVE"
);
}
);
width = 440;
},
{
associatedMasterId = master01;
layerId = "FEE758A9-4C87-44EE-B0CE-A5BBCAC4D619";
name = foreground;
paths = (
{
closed = 1;
nodes = (
"231 625 OFFCURVE",
"216 695 OFFCURVE",
"149 695 CURVE SMOOTH",
"99 695 OFFCURVE",
"81 672 OFFCURVE",
"81 640 CURVE",
"50 640 LINE",
"50 739 OFFCURVE",
"60 780 OFFCURVE",
"138 780 CURVE",
"213 780 OFFCURVE",
"222 720 OFFCURVE",
"285 720 CURVE SMOOTH",
"345 720 OFFCURVE",
"357 742 OFFCURVE",
"357 775 CURVE",
"390 775 LINE",
"390 668 OFFCURVE",
"374 625 OFFCURVE",
"303 625 CURVE"
);
}
);
width = 440;
}
);
unicode = 02DC;
},
{
glyphname = dieresis;
layers = (
{
background = {
paths = (
{
closed = 1;
nodes = (
"145 609 OFFCURVE",
"165 628 OFFCURVE",
"165 679 CURVE SMOOTH",
"165 731 OFFCURVE",
"142 750 OFFCURVE",
"97 750 CURVE",
"52 750 OFFCURVE",
"30 730 OFFCURVE",
"30 680 CURVE SMOOTH",
"30 626 OFFCURVE",
"52 609 OFFCURVE",
"97 609 CURVE"
);
},
{
closed = 1;
nodes = (
"347 609 OFFCURVE",
"373 628 OFFCURVE",
"373 679 CURVE SMOOTH",
"373 731 OFFCURVE",
"349 750 OFFCURVE",
"305 750 CURVE",
"259 750 OFFCURVE",
"238 730 OFFCURVE",
"238 680 CURVE SMOOTH",
"238 626 OFFCURVE",
"260 609 OFFCURVE",
"305 609 CURVE"
);
}
);
};
layerId = master01;
paths = (
{
closed = 1;
nodes = (
"145 609 OFFCURVE",
"165 628 OFFCURVE",
"165 679 CURVE SMOOTH",
"165 731 OFFCURVE",
"142 750 OFFCURVE",
"97 750 CURVE",
"52 750 OFFCURVE",
"30 730 OFFCURVE",
"30 680 CURVE SMOOTH",
"30 626 OFFCURVE",
"52 609 OFFCURVE",
"97 609 CURVE"
);
},
{
closed = 1;
nodes = (
"347 609 OFFCURVE",
"373 628 OFFCURVE",
"373 679 CURVE SMOOTH",
"373 731 OFFCURVE",
"349 750 OFFCURVE",
"305 750 CURVE",
"259 750 OFFCURVE",
"238 730 OFFCURVE",
"238 680 CURVE SMOOTH",
"238 626 OFFCURVE",
"260 609 OFFCURVE",
"305 609 CURVE"
);
}
);
width = 403;
},
{
associatedMasterId = master01;
layerId = "E3FA287C-5C90-4E74-A937-8C70B7A2DC8E";
name = foreground;
paths = (
{
closed = 1;
nodes = (
"145 609 OFFCURVE",
"165 628 OFFCURVE",
"165 679 CURVE SMOOTH",
"165 731 OFFCURVE",
"142 750 OFFCURVE",
"97 750 CURVE",
"52 750 OFFCURVE",
"30 730 OFFCURVE",
"30 680 CURVE SMOOTH",
"30 626 OFFCURVE",
"52 609 OFFCURVE",
"97 609 CURVE"
);
},
{
closed = 1;
nodes = (
"347 609 OFFCURVE",
"373 628 OFFCURVE",
"373 679 CURVE SMOOTH",
"373 731 OFFCURVE",
"349 750 OFFCURVE",
"305 750 CURVE",
"259 750 OFFCURVE",
"238 730 OFFCURVE",
"238 680 CURVE SMOOTH",
"238 626 OFFCURVE",
"260 609 OFFCURVE",
"305 609 CURVE"
);
}
);
width = 403;
}
);
unicode = 00A8;
},
{
glyphname = .notdef;
layers = (
{
background = {
paths = (
{
closed = 1;
nodes = (
"500 0 LINE",
"500 700 LINE",
"0 700 LINE",
"0 0 LINE"
);
},
{
closed = 1;
nodes = (
"80 650 LINE",
"420 650 LINE",
"250 395 LINE"
);
},
{
closed = 1;
nodes = (
"450 605 LINE",
"450 95 LINE",
"280 350 LINE"
);
},
{
closed = 1;
nodes = (
"250 305 LINE",
"420 50 LINE",
"80 50 LINE"
);
},
{
closed = 1;
nodes = (
"220 350 LINE",
"50 95 LINE",
"50 605 LINE"
);
}
);
};
layerId = master01;
paths = (
{
closed = 1;
nodes = (
"500 0 LINE",
"500 700 LINE",
"0 700 LINE",
"0 0 LINE"
);
},
{
closed = 1;
nodes = (
"80 650 LINE",
"420 650 LINE",
"250 395 LINE"
);
},
{
closed = 1;
nodes = (
"450 605 LINE",
"450 95 LINE",
"280 350 LINE"
);
},
{
closed = 1;
nodes = (
"250 305 LINE",
"420 50 LINE",
"80 50 LINE"
);
},
{
closed = 1;
nodes = (
"220 350 LINE",
"50 95 LINE",
"50 605 LINE"
);
}
);
width = 500;
},
{
associatedMasterId = master01;
layerId = "F112EFB0-8906-44E0-998F-6BF752686E20";
name = foreground;
paths = (
{
closed = 1;
nodes = (
"500 0 LINE",
"500 700 LINE",
"0 700 LINE",
"0 0 LINE"
);
},
{
closed = 1;
nodes = (
"80 650 LINE",
"420 650 LINE",
"250 395 LINE"
);
},
{
closed = 1;
nodes = (
"450 605 LINE",
"450 95 LINE",
"280 350 LINE"
);
},
{
closed = 1;
nodes = (
"250 305 LINE",
"420 50 LINE",
"80 50 LINE"
);
},
{
closed = 1;
nodes = (
"220 350 LINE",
"50 95 LINE",
"50 605 LINE"
);
}
);
width = 500;
}
);
},
{
glyphname = notdef;
layers = (
{
background = {
paths = (
{
closed = 1;
nodes = (
"49 0 LINE",
"151 323 LINE",
"237 323 LINE",
"184 291 LINE",
"184 375 LINE",
"237 343 LINE",
"237 343 OFFCURVE",
"181 343 OFFCURVE",
"181 343 CURVE",
"114 343 OFFCURVE",
"100 404 OFFCURVE",
"100 520 CURVE SMOOTH",
"100 654 OFFCURVE",
"181 760 OFFCURVE",
"367 760 CURVE",
"553 760 OFFCURVE",
"634 654 OFFCURVE",
"634 520 CURVE SMOOTH",
"634 404 OFFCURVE",
"620 343 OFFCURVE",
"553 343 CURVE",
"553 343 OFFCURVE",
"497 343 OFFCURVE",
"497 343 CURVE",
"550 375 LINE",
"550 291 LINE",
"497 323 LINE",
"583 323 LINE",
"685 0 LINE",
"369 0 LINE"
);
},
{
closed = 1;
nodes = (
"608 76 LINE",
"587 27 LINE",
"501 295 LINE",
"480 295 LINE",
"480 369 LINE",
"566 369 OFFCURVE",
"555 457 OFFCURVE",
"555 519 CURVE SMOOTH",
"555 590 OFFCURVE",
"502 679 OFFCURVE",
"364 679 CURVE",
"232 679 OFFCURVE",
"179 590 OFFCURVE",
"179 519 CURVE SMOOTH",
"179 457 OFFCURVE",
"168 369 OFFCURVE",
"254 369 CURVE",
"254 295 LINE",
"233 295 LINE",
"147 27 LINE",
"126 76 LINE",
"367 76 LINE"
);
},
{
closed = 1;
nodes = (
"231 691 LINE",
"568 62 LINE",
"480 62 LINE",
"164 651 LINE"
);
},
{
closed = 1;
nodes = (
"247 62 LINE",
"162 62 LINE",
"499 691 LINE",
"563 651 LINE"
);
}
